<svg xmlns="http://www.w3.org/2000/svg" xmlns:xlink="http://www.w3.org/1999/xlink" width="940" zoomAndPan="magnify" viewBox="0 0 705 591.000005" height="788" preserveAspectRatio="xMidYMid meet" version="1.0"><defs><g/><clipPath id="d18ef44348"><path d="M 0.59375 0 L 704.402344 0 L 704.402344 590 L 0.59375 590 Z M 0.59375 0 " clip-rule="nonzero"/></clipPath><clipPath id="d7ba50dc54"><path d="M 140 194 L 208 194 L 208 254 L 140 254 Z M 140 194 " clip-rule="nonzero"/></clipPath><clipPath id="8c2a0d9396"><path d="M 174.589844 186.324219 L 207.414062 219.148438 L 173.53125 253.035156 L 140.707031 220.207031 Z M 174.589844 186.324219 " clip-rule="nonzero"/></clipPath><clipPath id="c87a1e10ed"><path d="M 174.589844 186.324219 L 242.359375 254.09375 L 171.945312 324.507812 L 104.175781 256.738281 Z M 174.589844 186.324219 " clip-rule="nonzero"/></clipPath><clipPath id="052eaf209a"><path d="M 174.589844 186.324219 L 242.359375 254.09375 L 171.945312 324.507812 L 104.175781 256.738281 Z M 174.589844 186.324219 " clip-rule="nonzero"/></clipPath><clipPath id="6b1fa7b3c0"><path d="M 117 215 L 200 215 L 200 268 L 117 268 Z M 117 215 " clip-rule="nonzero"/></clipPath><clipPath id="302e81de21"><path d="M 145.632812 215.613281 L 199.105469 269.085938 L 158.867188 309.320312 L 105.394531 255.847656 Z M 145.632812 215.613281 " clip-rule="nonzero"/></clipPath><clipPath id="951577122b"><path d="M 177.679688 183.566406 L 247.566406 253.449219 L 175.03125 325.984375 L 105.148438 256.097656 Z M 177.679688 183.566406 " clip-rule="nonzero"/></clipPath><clipPath id="846d104cae"><path d="M 177.679688 183.566406 L 247.566406 253.449219 L 175.03125 325.984375 L 105.148438 256.097656 Z M 177.679688 183.566406 " clip-rule="nonzero"/></clipPath><clipPath id="b2c916fb11"><path d="M 168.171875 228 L 177 228 L 177 327 L 168.171875 327 Z M 168.171875 228 " clip-rule="nonzero"/></clipPath><clipPath id="9e264dcaf2"><path d="M 173 227 L 242 227 L 242 347.480469 L 173 347.480469 Z M 173 227 " clip-rule="nonzero"/></clipPath><clipPath id="a27ea32b13"><path d="M 174 311 L 201 311 L 201 350 L 174 350 Z M 174 311 " clip-rule="nonzero"/></clipPath><clipPath id="210c4334f8"><path d="M 169.605469 343.832031 L 177.96875 311.964844 L 200.421875 317.859375 L 192.054688 349.722656 Z M 169.605469 343.832031 " clip-rule="nonzero"/></clipPath><clipPath id="46bcb38c79"><path d="M 160.277344 379.371094 L 200.765625 225.117188 L 223.21875 231.007812 L 182.726562 385.265625 Z M 160.277344 379.371094 " clip-rule="nonzero"/></clipPath><clipPath id="d99d2c6fee"><path d="M 175 321 L 202 321 L 202 360 L 175 360 Z M 175 321 " clip-rule="nonzero"/></clipPath><clipPath id="6a3a2cc572"><path d="M 171.042969 353.597656 L 179.40625 321.734375 L 201.855469 327.628906 L 193.492188 359.492188 Z M 171.042969 353.597656 " clip-rule="nonzero"/></clipPath><clipPath id="4878696b71"><path d="M 161.710938 389.136719 L 202.203125 234.882812 L 224.652344 240.777344 L 184.164062 395.03125 Z M 161.710938 389.136719 " clip-rule="nonzero"/></clipPath><clipPath id="005a0e3538"><path d="M 179 321 L 206 321 L 206 360 L 179 360 Z M 179 321 " clip-rule="nonzero"/></clipPath><clipPath id="3836ee0da8"><path d="M 174.703125 353.597656 L 183.070312 321.734375 L 205.519531 327.628906 L 197.15625 359.492188 Z M 174.703125 353.597656 " clip-rule="nonzero"/></clipPath><clipPath id="a1f0d16ce8"><path d="M 165.375 389.136719 L 205.867188 234.882812 L 228.316406 240.777344 L 187.824219 395.03125 Z M 165.375 389.136719 " clip-rule="nonzero"/></clipPath><clipPath id="8038f6449b"><path d="M 182 321 L 210 321 L 210 360 L 182 360 Z M 182 321 " clip-rule="nonzero"/></clipPath><clipPath id="46fb328d08"><path d="M 178.367188 353.597656 L 186.730469 321.734375 L 209.183594 327.628906 L 200.816406 359.492188 Z M 178.367188 353.597656 " clip-rule="nonzero"/></clipPath><clipPath id="d77e3e44bb"><path d="M 169.039062 389.136719 L 209.527344 234.882812 L 231.980469 240.777344 L 191.488281 395.03125 Z M 169.039062 389.136719 " clip-rule="nonzero"/></clipPath><clipPath id="74a4cda4fc"><path d="M 184 331 L 212 331 L 212 370 L 184 370 Z M 184 331 " clip-rule="nonzero"/></clipPath><clipPath id="667890cdce"><path d="M 180.207031 363.367188 L 188.570312 331.503906 L 211.019531 337.394531 L 202.65625 369.257812 Z M 180.207031 363.367188 " clip-rule="nonzero"/></clipPath><clipPath id="481d7c8379"><path d="M 170.878906 398.90625 L 211.367188 244.652344 L 233.816406 250.542969 L 193.328125 404.800781 Z M 170.878906 398.90625 " clip-rule="nonzero"/></clipPath><clipPath id="797367461a"><path d="M 195.691406 242.90625 L 221.972656 242.90625 L 221.972656 269.191406 L 195.691406 269.191406 Z M 195.691406 242.90625 " clip-rule="nonzero"/></clipPath><clipPath id="a01c61658a"><path d="M 208.832031 242.90625 C 201.574219 242.90625 195.691406 248.789062 195.691406 256.046875 C 195.691406 263.308594 201.574219 269.191406 208.832031 269.191406 C 216.089844 269.191406 221.972656 263.308594 221.972656 256.046875 C 221.972656 248.789062 216.089844 242.90625 208.832031 242.90625 Z M 208.832031 242.90625 " clip-rule="nonzero"/></clipPath><clipPath id="fb28268e05"><path d="M 197 241 L 209 241 L 209 254 L 197 254 Z M 197 241 " clip-rule="nonzero"/></clipPath><clipPath id="c81bfa45e7"><path d="M 208.21875 240.921875 L 208.457031 253.753906 L 197.246094 253.960938 L 197.007812 241.128906 Z M 208.21875 240.921875 " clip-rule="nonzero"/></clipPath><clipPath id="9dca7617a5"><path d="M 208.339844 247.328125 L 197.246094 253.941406 L 197.007812 241.128906 Z M 208.339844 247.328125 " clip-rule="nonzero"/></clipPath><clipPath id="ac5884214c"><path d="M 206.621094 241.101562 L 217.835938 241.101562 L 217.835938 253.9375 L 206.621094 253.9375 Z M 206.621094 241.101562 " clip-rule="nonzero"/></clipPath><clipPath id="829a64e370"><path d="M 206.621094 247.527344 L 217.835938 241.121094 L 217.835938 253.9375 Z M 206.621094 247.527344 " clip-rule="nonzero"/></clipPath><clipPath id="07a287b709"><path d="M 206.171875 252.984375 L 209.339844 252.984375 L 209.339844 255.800781 L 206.171875 255.800781 Z M 206.171875 252.984375 " clip-rule="nonzero"/></clipPath><clipPath id="cb4e6e57b6"><path d="M 207.753906 252.984375 C 206.878906 252.984375 206.171875 253.613281 206.171875 254.390625 C 206.171875 255.167969 206.878906 255.800781 207.753906 255.800781 C 208.628906 255.800781 209.335938 255.167969 209.335938 254.390625 C 209.335938 253.613281 208.628906 252.984375 207.753906 252.984375 Z M 207.753906 252.984375 " clip-rule="nonzero"/></clipPath><clipPath id="b2bd90ef9c"><path d="M 205.242188 245.355469 L 209.605469 245.355469 L 209.605469 249.714844 L 205.242188 249.714844 Z M 205.242188 245.355469 " clip-rule="nonzero"/></clipPath><clipPath id="5be676cc74"><path d="M 207.421875 245.355469 C 206.21875 245.355469 205.242188 246.328125 205.242188 247.535156 C 205.242188 248.738281 206.21875 249.714844 207.421875 249.714844 C 208.628906 249.714844 209.605469 248.738281 209.605469 247.535156 C 209.605469 246.328125 208.628906 245.355469 207.421875 245.355469 Z M 207.421875 245.355469 " clip-rule="nonzero"/></clipPath><clipPath id="8f96038943"><path d="M 206.441406 258.136719 L 209.609375 258.136719 L 209.609375 260.953125 L 206.441406 260.953125 Z M 206.441406 258.136719 " clip-rule="nonzero"/></clipPath><clipPath id="9d72c3b045"><path d="M 208.023438 258.136719 C 207.148438 258.136719 206.441406 258.769531 206.441406 259.546875 C 206.441406 260.324219 207.148438 260.953125 208.023438 260.953125 C 208.894531 260.953125 209.605469 260.324219 209.605469 259.546875 C 209.605469 258.769531 208.894531 258.136719 208.023438 258.136719 Z M 208.023438 258.136719 " clip-rule="nonzero"/></clipPath><clipPath id="6af2fdfb40"><path d="M 242.484375 307.371094 L 559.007812 307.371094 L 559.007812 349.300781 L 242.484375 349.300781 Z M 242.484375 307.371094 " clip-rule="nonzero"/></clipPath></defs><g clip-path="url(#d18ef44348)"><path fill="#ffffff" d="M 0.59375 0 L 704.40625 0 L 704.40625 590 L 0.59375 590 Z M 0.59375 0 " fill-opacity="1" fill-rule="nonzero"/><path fill="#ffffff" d="M 0.59375 0 L 704.40625 0 L 704.40625 590 L 0.59375 590 Z M 0.59375 0 " fill-opacity="1" fill-rule="nonzero"/></g><path stroke-linecap="butt" transform="matrix(0, -0.748733, 0.748733, 0, 157.522314, 309.807901)" fill="none" stroke-linejoin="miter" d="M -0.000925431 1.498821 L 44.657846 1.498821 " stroke="#000000" stroke-width="3" stroke-opacity="1" stroke-miterlimit="4"/><g fill="#000000" fill-opacity="1"><g transform="translate(115.282768, 290.884096)"><g><path d="M 4.984375 0.140625 C 3.796875 0.140625 2.894531 -0.160156 2.28125 -0.765625 C 1.675781 -1.367188 1.375 -2.257812 1.375 -3.4375 L 1.375 -9.671875 L 2.515625 -9.671875 L 2.515625 -3.453125 C 2.515625 -2.609375 2.71875 -1.972656 3.125 -1.546875 C 3.53125 -1.117188 4.148438 -0.90625 4.984375 -0.90625 C 6.640625 -0.90625 7.46875 -1.753906 7.46875 -3.453125 L 7.46875 -9.671875 L 8.59375 -9.671875 L 8.59375 -3.4375 C 8.59375 -2.257812 8.285156 -1.367188 7.671875 -0.765625 C 7.066406 -0.160156 6.171875 0.140625 4.984375 0.140625 Z M 4.984375 0.140625 "/></g></g><g transform="translate(125.25581, 290.884096)"><g><path d="M 1.46875 0 L 1.46875 -9.671875 L 5.125 -9.671875 C 5.71875 -9.671875 6.222656 -9.578125 6.640625 -9.390625 C 7.054688 -9.203125 7.367188 -8.929688 7.578125 -8.578125 C 7.785156 -8.222656 7.890625 -7.804688 7.890625 -7.328125 C 7.890625 -6.898438 7.773438 -6.515625 7.546875 -6.171875 C 7.316406 -5.835938 6.992188 -5.578125 6.578125 -5.390625 L 6.578125 -5.25 C 7.222656 -5.09375 7.710938 -4.800781 8.046875 -4.375 C 8.378906 -3.957031 8.546875 -3.429688 8.546875 -2.796875 C 8.546875 -1.898438 8.28125 -1.207031 7.75 -0.71875 C 7.21875 -0.238281 6.4375 0 5.40625 0 Z M 5.078125 -5.609375 C 5.609375 -5.609375 6.019531 -5.75 6.3125 -6.03125 C 6.613281 -6.3125 6.765625 -6.695312 6.765625 -7.1875 C 6.765625 -7.695312 6.617188 -8.082031 6.328125 -8.34375 C 6.046875 -8.601562 5.628906 -8.734375 5.078125 -8.734375 L 2.59375 -8.734375 L 2.59375 -5.609375 Z M 5.3125 -0.9375 C 6.6875 -0.9375 7.375 -1.554688 7.375 -2.796875 C 7.375 -4.046875 6.6875 -4.671875 5.3125 -4.671875 L 2.59375 -4.671875 L 2.59375 -0.9375 Z M 5.3125 -0.9375 "/></g></g><g transform="translate(134.56707, 290.884096)"><g><path d="M 2.59375 -4.5625 L 2.59375 -0.9375 L 7.53125 -0.9375 L 7.53125 0 L 1.46875 0 L 1.46875 -9.671875 L 7.421875 -9.671875 L 7.421875 -8.734375 L 2.59375 -8.734375 L 2.59375 -5.5 L 6.859375 -5.5 L 6.859375 -4.5625 Z M 2.59375 -4.5625 "/></g></g><g transform="translate(142.740067, 290.884096)"><g><path d="M 5.34375 0.140625 C 4.5 0.140625 3.742188 -0.0507812 3.078125 -0.4375 C 2.421875 -0.832031 1.90625 -1.398438 1.53125 -2.140625 C 1.15625 -2.890625 0.96875 -3.785156 0.96875 -4.828125 C 0.96875 -5.878906 1.15625 -6.773438 1.53125 -7.515625 C 1.90625 -8.265625 2.421875 -8.832031 3.078125 -9.21875 C 3.742188 -9.613281 4.5 -9.8125 5.34375 -9.8125 C 6.25 -9.8125 7 -9.640625 7.59375 -9.296875 C 8.195312 -8.953125 8.628906 -8.4375 8.890625 -7.75 L 8.171875 -7.265625 L 8 -7.265625 C 7.738281 -7.816406 7.394531 -8.207031 6.96875 -8.4375 C 6.550781 -8.675781 6.007812 -8.796875 5.34375 -8.796875 C 4.738281 -8.796875 4.195312 -8.660156 3.71875 -8.390625 C 3.25 -8.117188 2.875 -7.6875 2.59375 -7.09375 C 2.320312 -6.507812 2.1875 -5.753906 2.1875 -4.828125 C 2.1875 -3.910156 2.320312 -3.160156 2.59375 -2.578125 C 2.875 -1.992188 3.25 -1.566406 3.71875 -1.296875 C 4.195312 -1.023438 4.738281 -0.890625 5.34375 -0.890625 C 6.039062 -0.890625 6.613281 -1.046875 7.0625 -1.359375 C 7.507812 -1.671875 7.84375 -2.179688 8.0625 -2.890625 L 8.21875 -2.890625 L 8.984375 -2.515625 C 8.753906 -1.660156 8.328125 -1.003906 7.703125 -0.546875 C 7.085938 -0.0859375 6.300781 0.140625 5.34375 0.140625 Z M 5.34375 0.140625 "/></g></g></g><g fill="#000000" fill-opacity="1"><g transform="translate(89.552717, 306.696253)"><g><path d="M 5.34375 0.140625 C 4.5 0.140625 3.742188 -0.0507812 3.078125 -0.4375 C 2.421875 -0.832031 1.90625 -1.398438 1.53125 -2.140625 C 1.15625 -2.890625 0.96875 -3.785156 0.96875 -4.828125 C 0.96875 -5.878906 1.15625 -6.773438 1.53125 -7.515625 C 1.90625 -8.265625 2.421875 -8.832031 3.078125 -9.21875 C 3.742188 -9.613281 4.5 -9.8125 5.34375 -9.8125 C 6.25 -9.8125 7 -9.640625 7.59375 -9.296875 C 8.195312 -8.953125 8.628906 -8.4375 8.890625 -7.75 L 8.171875 -7.265625 L 8 -7.265625 C 7.738281 -7.816406 7.394531 -8.207031 6.96875 -8.4375 C 6.550781 -8.675781 6.007812 -8.796875 5.34375 -8.796875 C 4.738281 -8.796875 4.195312 -8.660156 3.71875 -8.390625 C 3.25 -8.117188 2.875 -7.6875 2.59375 -7.09375 C 2.320312 -6.507812 2.1875 -5.753906 2.1875 -4.828125 C 2.1875 -3.910156 2.320312 -3.160156 2.59375 -2.578125 C 2.875 -1.992188 3.25 -1.566406 3.71875 -1.296875 C 4.195312 -1.023438 4.738281 -0.890625 5.34375 -0.890625 C 6.039062 -0.890625 6.613281 -1.046875 7.0625 -1.359375 C 7.507812 -1.671875 7.84375 -2.179688 8.0625 -2.890625 L 8.21875 -2.890625 L 8.984375 -2.515625 C 8.753906 -1.660156 8.328125 -1.003906 7.703125 -0.546875 C 7.085938 -0.0859375 6.300781 0.140625 5.34375 0.140625 Z M 5.34375 0.140625 "/></g></g><g transform="translate(99.042659, 306.696253)"><g><path d="M 7.625 -5.75 L 7.625 -9.671875 L 8.765625 -9.671875 L 8.765625 0 L 7.625 0 L 7.625 -4.78125 L 2.59375 -4.78125 L 2.59375 0 L 1.46875 0 L 1.46875 -9.671875 L 2.59375 -9.671875 L 2.59375 -5.75 Z M 7.625 -5.75 "/></g></g><g transform="translate(109.273795, 306.696253)"><g><path d="M 8.703125 0 L 7.484375 0 L 6.59375 -2.65625 L 2.46875 -2.65625 L 1.578125 0 L 0.390625 0 L 3.75 -9.671875 L 5.328125 -9.671875 Z M 4.453125 -8.5 L 2.796875 -3.609375 L 6.265625 -3.609375 L 4.609375 -8.5 Z M 4.453125 -8.5 "/></g></g><g transform="translate(118.366668, 306.696253)"><g><path d="M 4.921875 -9.671875 C 5.585938 -9.671875 6.15625 -9.550781 6.625 -9.3125 C 7.101562 -9.070312 7.46875 -8.726562 7.71875 -8.28125 C 7.96875 -7.84375 8.09375 -7.328125 8.09375 -6.734375 C 8.09375 -6.128906 7.96875 -5.601562 7.71875 -5.15625 C 7.46875 -4.71875 7.101562 -4.378906 6.625 -4.140625 C 6.15625 -3.898438 5.585938 -3.78125 4.921875 -3.78125 L 2.59375 -3.78125 L 2.59375 0 L 1.46875 0 L 1.46875 -9.671875 Z M 4.890625 -4.75 C 6.234375 -4.75 6.90625 -5.410156 6.90625 -6.734375 C 6.90625 -8.046875 6.234375 -8.703125 4.890625 -8.703125 L 2.59375 -8.703125 L 2.59375 -4.75 Z M 4.890625 -4.75 "/></g></g><g transform="translate(127.188211, 306.696253)"><g><path d="M 7.546875 -9.671875 L 7.546875 -8.703125 L 4.515625 -8.703125 L 4.515625 0 L 3.390625 0 L 3.390625 -8.703125 L 0.359375 -8.703125 L 0.359375 -9.671875 Z M 7.546875 -9.671875 "/></g></g><g transform="translate(135.089877, 306.696253)"><g><path d="M 2.59375 -4.5625 L 2.59375 -0.9375 L 7.53125 -0.9375 L 7.53125 0 L 1.46875 0 L 1.46875 -9.671875 L 7.421875 -9.671875 L 7.421875 -8.734375 L 2.59375 -8.734375 L 2.59375 -5.5 L 6.859375 -5.5 L 6.859375 -4.5625 Z M 2.59375 -4.5625 "/></g></g><g transform="translate(143.262874, 306.696253)"><g><path d="M 1.46875 0 L 1.46875 -9.671875 L 4.96875 -9.671875 C 5.625 -9.671875 6.171875 -9.5625 6.609375 -9.34375 C 7.046875 -9.132812 7.375 -8.832031 7.59375 -8.4375 C 7.820312 -8.050781 7.9375 -7.59375 7.9375 -7.0625 C 7.9375 -6.457031 7.785156 -5.957031 7.484375 -5.5625 C 7.179688 -5.175781 6.710938 -4.890625 6.078125 -4.703125 L 6.078125 -4.5625 C 6.390625 -4.4375 6.644531 -4.238281 6.84375 -3.96875 C 7.039062 -3.707031 7.222656 -3.316406 7.390625 -2.796875 L 8.28125 0 L 7.125 0 L 6.15625 -2.953125 C 6.039062 -3.304688 5.90625 -3.582031 5.75 -3.78125 C 5.601562 -3.976562 5.414062 -4.117188 5.1875 -4.203125 C 4.957031 -4.296875 4.664062 -4.34375 4.3125 -4.34375 L 2.59375 -4.34375 L 2.59375 0 Z M 4.953125 -5.3125 C 5.554688 -5.3125 6.003906 -5.445312 6.296875 -5.71875 C 6.585938 -6 6.734375 -6.425781 6.734375 -7 C 6.734375 -7.570312 6.585938 -8 6.296875 -8.28125 C 6.003906 -8.5625 5.554688 -8.703125 4.953125 -8.703125 L 2.59375 -8.703125 L 2.59375 -5.3125 Z M 4.953125 -5.3125 "/></g></g></g><g fill="#000000" fill-opacity="1"><g transform="translate(152.236626, 306.696253)"><g/></g><g transform="translate(155.558768, 306.696253)"><g/></g></g><g fill="#000000" fill-opacity="1"><g transform="translate(291.196675, 343.846442)"><g><path d="M 0.101562 -8.367188 L 0.101562 -8.164062 C 0.503906 -8.136719 0.851562 -7.957031 0.851562 -7.453125 L 0.851562 -0.917969 C 0.851562 -0.414062 0.503906 -0.234375 0.101562 -0.21875 L 0.101562 0 L 2.273438 0 C 2.738281 0 3.214844 0.0390625 3.679688 0.0390625 C 4.054688 0.0390625 4.417969 0.0273438 4.792969 -0.0390625 C 5.941406 -0.234375 6.703125 -1.109375 6.703125 -2.300781 C 6.703125 -3.460938 5.941406 -4.367188 4.804688 -4.53125 L 4.390625 -4.597656 L 4.792969 -4.714844 C 5.578125 -4.945312 6.070312 -5.644531 6.070312 -6.46875 C 6.070312 -7.398438 5.488281 -8.046875 4.597656 -8.265625 C 4.144531 -8.367188 3.667969 -8.382812 3.191406 -8.382812 C 2.878906 -8.382812 2.582031 -8.367188 2.273438 -8.367188 Z M 2.183594 -4.390625 L 2.273438 -4.390625 C 2.492188 -4.390625 2.726562 -4.402344 2.957031 -4.402344 C 3.292969 -4.402344 3.65625 -4.390625 3.992188 -4.273438 C 4.84375 -3.992188 5.242188 -3.164062 5.242188 -2.335938 C 5.242188 -0.878906 4.390625 -0.207031 3.023438 -0.207031 C 2.765625 -0.207031 2.519531 -0.21875 2.273438 -0.207031 L 2.183594 -0.207031 Z M 2.183594 -8.175781 L 2.621094 -8.175781 C 2.957031 -8.175781 3.449219 -8.175781 3.796875 -8.019531 C 4.457031 -7.734375 4.714844 -6.933594 4.714844 -6.300781 C 4.714844 -5.683594 4.46875 -4.933594 3.785156 -4.726562 C 3.433594 -4.609375 2.96875 -4.609375 2.632812 -4.609375 C 2.503906 -4.609375 2.390625 -4.609375 2.273438 -4.609375 L 2.183594 -4.609375 Z M 2.183594 -8.175781 "/></g></g></g><g fill="#000000" fill-opacity="1"><g transform="translate(298.093392, 343.846442)"><g><path d="M 0.324219 -4.234375 C 0.324219 -1.949219 1.40625 0.128906 3.863281 0.128906 C 6.328125 0.128906 7.4375 -1.988281 7.4375 -4.273438 C 7.4375 -6.5625 6.328125 -8.511719 3.886719 -8.511719 C 1.433594 -8.511719 0.324219 -6.535156 0.324219 -4.234375 Z M 1.730469 -4.222656 C 1.730469 -5.488281 1.949219 -8.316406 3.886719 -8.316406 C 5.8125 -8.316406 6.03125 -5.488281 6.03125 -4.234375 C 6.03125 -2.984375 5.800781 -0.078125 3.875 -0.078125 C 1.949219 -0.078125 1.730469 -2.96875 1.730469 -4.222656 Z M 1.730469 -4.222656 "/></g></g></g><g fill="#000000" fill-opacity="1"><g transform="translate(305.687519, 343.846442)"><g><path d="M 0.0898438 -8.367188 L 0.0898438 -8.164062 C 0.492188 -8.136719 0.839844 -7.957031 0.839844 -7.453125 L 0.839844 -0.917969 C 0.839844 -0.414062 0.492188 -0.234375 0.0898438 -0.21875 L 0.0898438 0 L 6.097656 0 L 6.601562 -1.847656 L 6.394531 -1.859375 C 5.824219 -0.671875 4.507812 -0.207031 3.304688 -0.207031 L 2.195312 -0.207031 L 2.167969 -7.453125 C 2.167969 -7.957031 2.503906 -8.136719 2.90625 -8.164062 L 2.90625 -8.367188 Z M 0.0898438 -8.367188 "/></g></g></g><g fill="#000000" fill-opacity="1"><g transform="translate(312.338836, 343.846442)"><g><path d="M 0.117188 -8.367188 L 0.117188 -8.164062 C 0.515625 -8.136719 0.867188 -7.957031 0.867188 -7.453125 L 0.867188 -0.917969 C 0.867188 -0.414062 0.515625 -0.234375 0.117188 -0.207031 L 0.117188 0 L 2.285156 0 C 3.125 0 4.09375 0.0273438 4.933594 -0.101562 C 6.960938 -0.414062 7.710938 -2.183594 7.710938 -4.105469 C 7.710938 -6.058594 7.039062 -7.828125 5.023438 -8.238281 C 4.585938 -8.332031 4.121094 -8.355469 3.667969 -8.367188 C 3.191406 -8.382812 2.726562 -8.367188 2.285156 -8.367188 Z M 2.195312 -0.207031 L 2.195312 -8.175781 L 2.285156 -8.175781 C 2.894531 -8.175781 3.953125 -8.164062 4.53125 -7.96875 C 5.902344 -7.515625 6.300781 -5.464844 6.300781 -4.261719 C 6.300781 -2.945312 5.953125 -1.316406 4.648438 -0.632812 C 3.925781 -0.246094 3.0625 -0.207031 2.285156 -0.207031 Z M 2.195312 -0.207031 "/></g></g></g><g fill="#000000" fill-opacity="1"><g transform="translate(320.281676, 343.846442)"><g><path d="M 0.15625 0 L 2.726562 0 L 2.726562 -0.207031 C 2.132812 -0.234375 1.421875 -0.414062 1.421875 -1.226562 L 1.421875 -7.398438 L 6.714844 0 L 6.960938 0 L 6.960938 -7.140625 C 6.960938 -7.917969 7.4375 -8.136719 8.058594 -8.164062 L 8.058594 -8.367188 L 5.449219 -8.367188 L 5.449219 -8.164062 C 6.042969 -8.136719 6.753906 -7.957031 6.753906 -7.140625 L 6.753906 -2.234375 L 2.375 -8.367188 L 0.257812 -8.367188 L 0.257812 -8.148438 C 0.621094 -8.125 0.941406 -7.929688 1.1875 -7.683594 L 1.214844 -7.660156 L 1.214844 -1.226562 C 1.214844 -0.464844 0.789062 -0.234375 0.15625 -0.207031 Z M 0.15625 0 "/></g></g></g><g fill="#000000" fill-opacity="1"><g transform="translate(328.379494, 343.846442)"><g><path d="M 0.117188 0 L 6.496094 0 L 7.011719 -2.441406 L 6.804688 -2.453125 C 6.691406 -2.183594 6.601562 -1.898438 6.46875 -1.613281 C 6.097656 -0.789062 5.539062 -0.207031 4.558594 -0.207031 L 2.195312 -0.207031 L 2.195312 -3.953125 L 3.707031 -3.9375 C 3.898438 -3.9375 4.105469 -3.9375 4.289062 -3.914062 C 4.894531 -3.875 5.332031 -3.628906 5.371094 -2.945312 L 5.578125 -2.945312 L 5.578125 -5.410156 L 5.386719 -5.410156 C 5.332031 -4.390625 4.585938 -4.199219 3.707031 -4.199219 C 3.230469 -4.183594 2.765625 -4.183594 2.285156 -4.183594 L 2.195312 -4.171875 L 2.195312 -8.164062 L 3.9375 -8.164062 C 5.011719 -8.164062 5.683594 -7.660156 6.132812 -6.714844 C 6.25 -6.457031 6.339844 -6.1875 6.457031 -5.914062 L 6.664062 -5.929688 L 6.148438 -8.367188 L 0.117188 -8.367188 L 0.117188 -8.164062 C 0.515625 -8.136719 0.867188 -7.957031 0.867188 -7.453125 L 0.867188 -0.917969 C 0.867188 -0.414062 0.515625 -0.234375 0.117188 -0.21875 Z M 0.117188 0 "/></g></g></g><g fill="#000000" fill-opacity="1"><g transform="translate(335.431189, 343.846442)"><g><path d="M 0.207031 -0.980469 C 0.207031 -0.96875 0.21875 -0.941406 0.246094 -0.917969 C 0.285156 -0.867188 0.324219 -0.828125 0.335938 -0.800781 C 0.980469 -0.167969 2.246094 0.128906 3.125 0.128906 C 4.261719 0.128906 5.539062 -0.15625 6.03125 -1.265625 C 6.148438 -1.511719 6.210938 -1.808594 6.210938 -2.078125 C 6.210938 -3.34375 5.128906 -3.992188 3.964844 -4.609375 C 3.679688 -4.765625 3.398438 -4.90625 3.125 -5.074219 C 2.390625 -5.488281 1.628906 -6.042969 1.628906 -6.988281 C 1.628906 -7.851562 2.273438 -8.332031 3.0625 -8.332031 C 4.273438 -8.332031 5.28125 -6.933594 5.667969 -5.929688 L 5.902344 -5.929688 L 5.683594 -7.722656 C 5.667969 -7.761719 5.65625 -7.773438 5.644531 -7.789062 C 5.605469 -7.828125 5.566406 -7.867188 5.554688 -7.878906 C 5.035156 -8.332031 3.925781 -8.511719 3.230469 -8.511719 C 1.808594 -8.511719 0.363281 -7.800781 0.363281 -6.226562 C 0.363281 -4.960938 1.445312 -4.300781 2.582031 -3.707031 C 2.867188 -3.550781 3.152344 -3.410156 3.421875 -3.253906 C 4.105469 -2.894531 4.90625 -2.351562 4.90625 -1.484375 C 4.90625 -0.605469 4.199219 -0.0664062 3.382812 -0.0664062 C 2.027344 -0.0664062 0.800781 -1.433594 0.621094 -2.726562 L 0.425781 -2.75 L 0.195312 -1.007812 C 0.195312 -0.996094 0.195312 -0.996094 0.207031 -0.980469 Z M 0.207031 -0.980469 "/></g></g></g><g fill="#000000" fill-opacity="1"><g transform="translate(341.746718, 343.846442)"><g><path d="M 0.207031 -0.980469 C 0.207031 -0.96875 0.21875 -0.941406 0.246094 -0.917969 C 0.285156 -0.867188 0.324219 -0.828125 0.335938 -0.800781 C 0.980469 -0.167969 2.246094 0.128906 3.125 0.128906 C 4.261719 0.128906 5.539062 -0.15625 6.03125 -1.265625 C 6.148438 -1.511719 6.210938 -1.808594 6.210938 -2.078125 C 6.210938 -3.34375 5.128906 -3.992188 3.964844 -4.609375 C 3.679688 -4.765625 3.398438 -4.90625 3.125 -5.074219 C 2.390625 -5.488281 1.628906 -6.042969 1.628906 -6.988281 C 1.628906 -7.851562 2.273438 -8.332031 3.0625 -8.332031 C 4.273438 -8.332031 5.28125 -6.933594 5.667969 -5.929688 L 5.902344 -5.929688 L 5.683594 -7.722656 C 5.667969 -7.761719 5.65625 -7.773438 5.644531 -7.789062 C 5.605469 -7.828125 5.566406 -7.867188 5.554688 -7.878906 C 5.035156 -8.332031 3.925781 -8.511719 3.230469 -8.511719 C 1.808594 -8.511719 0.363281 -7.800781 0.363281 -6.226562 C 0.363281 -4.960938 1.445312 -4.300781 2.582031 -3.707031 C 2.867188 -3.550781 3.152344 -3.410156 3.421875 -3.253906 C 4.105469 -2.894531 4.90625 -2.351562 4.90625 -1.484375 C 4.90625 -0.605469 4.199219 -0.0664062 3.382812 -0.0664062 C 2.027344 -0.0664062 0.800781 -1.433594 0.621094 -2.726562 L 0.425781 -2.75 L 0.195312 -1.007812 C 0.195312 -0.996094 0.195312 -0.996094 0.207031 -0.980469 Z M 0.207031 -0.980469 "/></g></g></g><g fill="#000000" fill-opacity="1"><g transform="translate(348.070195, 343.846442)"><g/></g></g><g fill="#000000" fill-opacity="1"><g transform="translate(350.575743, 343.846442)"><g/></g></g><g fill="#000000" fill-opacity="1"><g transform="translate(353.081292, 343.846442)"><g/></g></g><g fill="#000000" fill-opacity="1"><g transform="translate(355.586841, 343.846442)"><g/></g></g><g fill="#000000" fill-opacity="1"><g transform="translate(358.092389, 343.846442)"><g/></g></g><g fill="#000000" fill-opacity="1"><g transform="translate(360.597938, 343.846442)"><g/></g></g><g fill="#000000" fill-opacity="1"><g transform="translate(363.103487, 343.846442)"><g/></g></g><g fill="#000000" fill-opacity="1"><g transform="translate(365.609036, 343.846442)"><g/></g></g><g fill="#000000" fill-opacity="1"><g transform="translate(368.114584, 343.846442)"><g/></g></g><g fill="#000000" fill-opacity="1"><g transform="translate(370.621167, 343.846442)"><g><path d="M 1 -4.71875 C 1 -5.289062 1.132812 -5.695312 1.40625 -5.9375 C 1.6875 -6.1875 2.023438 -6.3125 2.421875 -6.3125 C 2.828125 -6.3125 3.164062 -6.1875 3.4375 -5.9375 C 3.71875 -5.695312 3.859375 -5.289062 3.859375 -4.71875 C 3.859375 -4.144531 3.71875 -3.734375 3.4375 -3.484375 C 3.164062 -3.234375 2.828125 -3.109375 2.421875 -3.109375 C 2.023438 -3.109375 1.6875 -3.234375 1.40625 -3.484375 C 1.132812 -3.734375 1 -4.144531 1 -4.71875 Z M 1 -4.71875 "/></g></g></g><g fill="#000000" fill-opacity="1"><g transform="translate(375.481146, 343.846442)"><g/></g></g><g fill="#000000" fill-opacity="1"><g transform="translate(377.986695, 343.846442)"><g/></g></g><g fill="#000000" fill-opacity="1"><g transform="translate(380.492243, 343.846442)"><g/></g></g><g fill="#000000" fill-opacity="1"><g transform="translate(382.997792, 343.846442)"><g/></g></g><g fill="#000000" fill-opacity="1"><g transform="translate(385.503341, 343.846442)"><g/></g></g><g fill="#000000" fill-opacity="1"><g transform="translate(388.008889, 343.846442)"><g/></g></g><g fill="#000000" fill-opacity="1"><g transform="translate(390.514438, 343.846442)"><g/></g></g><g fill="#000000" fill-opacity="1"><g transform="translate(393.019987, 343.846442)"><g/></g></g><g fill="#000000" fill-opacity="1"><g transform="translate(395.525536, 343.846442)"><g/></g></g><g fill="#000000" fill-opacity="1"><g transform="translate(398.032119, 343.846442)"><g><path d="M 3.007812 0 L 3.007812 -0.207031 C 2.492188 -0.207031 1.71875 -0.257812 1.71875 -0.957031 C 1.71875 -1.070312 1.742188 -1.265625 1.796875 -1.382812 L 2.570312 -3.292969 L 5.464844 -3.292969 L 6.417969 -0.996094 C 6.445312 -0.917969 6.46875 -0.8125 6.46875 -0.710938 C 6.46875 -0.296875 6.042969 -0.246094 5.734375 -0.207031 L 5.734375 0 L 8.859375 0 L 8.859375 -0.21875 C 8.382812 -0.234375 8.085938 -0.4375 7.890625 -0.929688 L 4.792969 -8.367188 L 4.429688 -8.367188 L 1.445312 -1.304688 C 1.1875 -0.699219 0.734375 -0.269531 0.0664062 -0.21875 L 0.0664062 0 Z M 4.003906 -6.792969 L 5.371094 -3.5 L 2.660156 -3.5 Z M 4.003906 -6.792969 "/></g></g></g><g fill="#000000" fill-opacity="1"><g transform="translate(406.801531, 343.846442)"><g><path d="M 0.179688 -8.164062 C 0.582031 -8.136719 0.929688 -7.957031 0.929688 -7.453125 L 0.929688 -0.917969 C 0.929688 -0.414062 0.582031 -0.234375 0.179688 -0.21875 L 0.179688 0 L 2.867188 0 L 2.867188 -0.207031 C 2.441406 -0.234375 2.261719 -0.464844 2.261719 -0.917969 L 2.261719 -3.992188 L 2.441406 -3.992188 C 3.398438 -3.992188 3.796875 -3.527344 4.132812 -2.6875 C 4.289062 -2.285156 4.402344 -1.847656 4.53125 -1.445312 C 4.792969 -0.621094 5.074219 0 5.695312 0 L 7.078125 0 L 7.078125 -0.21875 C 6.714844 -0.285156 6.484375 -0.53125 6.300781 -0.851562 C 6.210938 -1.019531 6.132812 -1.226562 6.042969 -1.433594 C 5.964844 -1.640625 5.890625 -1.859375 5.8125 -2.078125 C 5.476562 -2.957031 5.035156 -3.992188 3.875 -4.054688 C 5.257812 -4.054688 6.457031 -4.6875 6.457031 -6.199219 C 6.457031 -7.195312 5.890625 -7.96875 4.933594 -8.226562 C 4.378906 -8.382812 3.769531 -8.382812 3.175781 -8.382812 C 2.183594 -8.382812 1.1875 -8.367188 0.179688 -8.367188 Z M 2.351562 -8.1875 C 2.582031 -8.1875 2.894531 -8.1875 3.203125 -8.164062 C 3.511719 -8.148438 3.824219 -8.097656 4.054688 -8.007812 C 4.777344 -7.710938 5.0625 -6.898438 5.0625 -6.199219 C 5.0625 -5.488281 4.777344 -4.675781 4.054688 -4.378906 C 3.824219 -4.289062 3.511719 -4.25 3.203125 -4.222656 C 2.894531 -4.199219 2.582031 -4.210938 2.351562 -4.210938 L 2.261719 -4.210938 L 2.261719 -8.1875 Z M 2.351562 -8.1875 "/></g></g></g><g fill="#000000" fill-opacity="1"><g transform="translate(413.801561, 343.846442)"><g><path d="M 0.335938 -5.914062 C 0.867188 -7.078125 1.484375 -8.164062 2.90625 -8.164062 L 3.265625 -8.164062 L 3.265625 -0.917969 C 3.265625 -0.414062 2.917969 -0.234375 2.519531 -0.207031 L 2.519531 0 L 5.332031 0 L 5.332031 -0.207031 C 4.933594 -0.234375 4.597656 -0.414062 4.597656 -0.917969 L 4.597656 -8.164062 L 4.945312 -8.164062 C 6.417969 -8.164062 7.101562 -7.140625 7.671875 -5.914062 L 7.890625 -5.929688 L 7.347656 -8.367188 L 0.632812 -8.367188 L 0.128906 -5.929688 Z M 0.335938 -5.914062 "/></g></g></g><g fill="#000000" fill-opacity="1"><g transform="translate(421.679829, 343.846442)"><g><path d="M 0.335938 -8.367188 L 0.335938 -8.164062 C 0.734375 -8.136719 1.085938 -7.957031 1.085938 -7.453125 L 1.085938 -0.917969 C 1.085938 -0.414062 0.734375 -0.234375 0.335938 -0.21875 L 0.335938 0 L 3.152344 0 L 3.152344 -0.21875 C 2.75 -0.234375 2.414062 -0.414062 2.414062 -0.917969 L 2.414062 -7.453125 C 2.414062 -7.957031 2.75 -8.136719 3.152344 -8.164062 L 3.152344 -8.367188 Z M 0.335938 -8.367188 "/></g></g></g><g fill="#000000" fill-opacity="1"><g transform="translate(425.05069, 343.846442)"><g><path d="M 0.207031 -0.980469 C 0.207031 -0.96875 0.21875 -0.941406 0.246094 -0.917969 C 0.285156 -0.867188 0.324219 -0.828125 0.335938 -0.800781 C 0.980469 -0.167969 2.246094 0.128906 3.125 0.128906 C 4.261719 0.128906 5.539062 -0.15625 6.03125 -1.265625 C 6.148438 -1.511719 6.210938 -1.808594 6.210938 -2.078125 C 6.210938 -3.34375 5.128906 -3.992188 3.964844 -4.609375 C 3.679688 -4.765625 3.398438 -4.90625 3.125 -5.074219 C 2.390625 -5.488281 1.628906 -6.042969 1.628906 -6.988281 C 1.628906 -7.851562 2.273438 -8.332031 3.0625 -8.332031 C 4.273438 -8.332031 5.28125 -6.933594 5.667969 -5.929688 L 5.902344 -5.929688 L 5.683594 -7.722656 C 5.667969 -7.761719 5.65625 -7.773438 5.644531 -7.789062 C 5.605469 -7.828125 5.566406 -7.867188 5.554688 -7.878906 C 5.035156 -8.332031 3.925781 -8.511719 3.230469 -8.511719 C 1.808594 -8.511719 0.363281 -7.800781 0.363281 -6.226562 C 0.363281 -4.960938 1.445312 -4.300781 2.582031 -3.707031 C 2.867188 -3.550781 3.152344 -3.410156 3.421875 -3.253906 C 4.105469 -2.894531 4.90625 -2.351562 4.90625 -1.484375 C 4.90625 -0.605469 4.199219 -0.0664062 3.382812 -0.0664062 C 2.027344 -0.0664062 0.800781 -1.433594 0.621094 -2.726562 L 0.425781 -2.75 L 0.195312 -1.007812 C 0.195312 -0.996094 0.195312 -0.996094 0.207031 -0.980469 Z M 0.207031 -0.980469 "/></g></g></g><g fill="#000000" fill-opacity="1"><g transform="translate(431.366218, 343.846442)"><g><path d="M 0.335938 -5.914062 C 0.867188 -7.078125 1.484375 -8.164062 2.90625 -8.164062 L 3.265625 -8.164062 L 3.265625 -0.917969 C 3.265625 -0.414062 2.917969 -0.234375 2.519531 -0.207031 L 2.519531 0 L 5.332031 0 L 5.332031 -0.207031 C 4.933594 -0.234375 4.597656 -0.414062 4.597656 -0.917969 L 4.597656 -8.164062 L 4.945312 -8.164062 C 6.417969 -8.164062 7.101562 -7.140625 7.671875 -5.914062 L 7.890625 -5.929688 L 7.347656 -8.367188 L 0.632812 -8.367188 L 0.128906 -5.929688 Z M 0.335938 -5.914062 "/></g></g></g><g fill="#000000" fill-opacity="1"><g transform="translate(439.244485, 343.846442)"><g><path d="M 0.179688 -8.164062 C 0.582031 -8.136719 0.929688 -7.957031 0.929688 -7.453125 L 0.929688 -0.917969 C 0.929688 -0.414062 0.582031 -0.234375 0.179688 -0.21875 L 0.179688 0 L 2.867188 0 L 2.867188 -0.207031 C 2.441406 -0.234375 2.261719 -0.464844 2.261719 -0.917969 L 2.261719 -3.992188 L 2.441406 -3.992188 C 3.398438 -3.992188 3.796875 -3.527344 4.132812 -2.6875 C 4.289062 -2.285156 4.402344 -1.847656 4.53125 -1.445312 C 4.792969 -0.621094 5.074219 0 5.695312 0 L 7.078125 0 L 7.078125 -0.21875 C 6.714844 -0.285156 6.484375 -0.53125 6.300781 -0.851562 C 6.210938 -1.019531 6.132812 -1.226562 6.042969 -1.433594 C 5.964844 -1.640625 5.890625 -1.859375 5.8125 -2.078125 C 5.476562 -2.957031 5.035156 -3.992188 3.875 -4.054688 C 5.257812 -4.054688 6.457031 -4.6875 6.457031 -6.199219 C 6.457031 -7.195312 5.890625 -7.96875 4.933594 -8.226562 C 4.378906 -8.382812 3.769531 -8.382812 3.175781 -8.382812 C 2.183594 -8.382812 1.1875 -8.367188 0.179688 -8.367188 Z M 2.351562 -8.1875 C 2.582031 -8.1875 2.894531 -8.1875 3.203125 -8.164062 C 3.511719 -8.148438 3.824219 -8.097656 4.054688 -8.007812 C 4.777344 -7.710938 5.0625 -6.898438 5.0625 -6.199219 C 5.0625 -5.488281 4.777344 -4.675781 4.054688 -4.378906 C 3.824219 -4.289062 3.511719 -4.25 3.203125 -4.222656 C 2.894531 -4.199219 2.582031 -4.210938 2.351562 -4.210938 L 2.261719 -4.210938 L 2.261719 -8.1875 Z M 2.351562 -8.1875 "/></g></g></g><g fill="#000000" fill-opacity="1"><g transform="translate(446.244516, 343.846442)"><g><path d="M 0.0898438 -8.148438 C 0.566406 -8.125 0.917969 -7.828125 1.1875 -7.464844 L 3.953125 -3.566406 L 3.953125 -0.917969 C 3.953125 -0.414062 3.617188 -0.234375 3.214844 -0.21875 L 3.214844 0 L 6.03125 0 L 6.03125 -0.21875 C 5.632812 -0.234375 5.28125 -0.414062 5.28125 -0.917969 L 5.28125 -4.003906 L 7.683594 -7.464844 C 7.957031 -7.839844 8.304688 -8.125 8.78125 -8.148438 L 8.78125 -8.367188 L 6.328125 -8.367188 L 6.328125 -8.164062 C 6.484375 -8.148438 6.675781 -8.125 6.84375 -8.058594 C 7.039062 -7.96875 7.21875 -7.8125 7.21875 -7.542969 C 7.21875 -7.324219 7.101562 -7.128906 7 -6.972656 L 5.140625 -4.199219 L 2.894531 -7.347656 C 2.839844 -7.425781 2.777344 -7.53125 2.777344 -7.644531 C 2.777344 -8.046875 3.382812 -8.148438 3.695312 -8.148438 L 3.695312 -8.367188 L 0.0898438 -8.367188 Z M 0.0898438 -8.148438 "/></g></g></g><g fill="#000000" fill-opacity="1"><g transform="translate(455.023354, 343.846442)"><g/></g></g><g fill="#000000" fill-opacity="1"><g transform="translate(457.528903, 343.846442)"><g/></g></g><g fill="#000000" fill-opacity="1"><g transform="translate(460.034452, 343.846442)"><g/></g></g><g fill="#000000" fill-opacity="1"><g transform="translate(462.540001, 343.846442)"><g/></g></g><g fill="#000000" fill-opacity="1"><g transform="translate(465.045549, 343.846442)"><g/></g></g><g fill="#000000" fill-opacity="1"><g transform="translate(467.551098, 343.846442)"><g/></g></g><g fill="#000000" fill-opacity="1"><g transform="translate(470.056647, 343.846442)"><g/></g></g><g fill="#000000" fill-opacity="1"><g transform="translate(472.562195, 343.846442)"><g/></g></g><g fill="#000000" fill-opacity="1"><g transform="translate(475.067744, 343.846442)"><g/></g></g><g fill="#000000" fill-opacity="1"><g transform="translate(477.573293, 343.846442)"><g/></g></g><g fill="#000000" fill-opacity="1"><g transform="translate(480.079991, 343.846442)"><g><path d="M 1 -4.71875 C 1 -5.289062 1.132812 -5.695312 1.40625 -5.9375 C 1.6875 -6.1875 2.023438 -6.3125 2.421875 -6.3125 C 2.828125 -6.3125 3.164062 -6.1875 3.4375 -5.9375 C 3.71875 -5.695312 3.859375 -5.289062 3.859375 -4.71875 C 3.859375 -4.144531 3.71875 -3.734375 3.4375 -3.484375 C 3.164062 -3.234375 2.828125 -3.109375 2.421875 -3.109375 C 2.023438 -3.109375 1.6875 -3.234375 1.40625 -3.484375 C 1.132812 -3.734375 1 -4.144531 1 -4.71875 Z M 1 -4.71875 "/></g></g></g><g fill="#000000" fill-opacity="1"><g transform="translate(484.939975, 343.846442)"><g/></g></g><g fill="#000000" fill-opacity="1"><g transform="translate(487.445524, 343.846442)"><g/></g></g><g fill="#000000" fill-opacity="1"><g transform="translate(489.951072, 343.846442)"><g/></g></g><g fill="#000000" fill-opacity="1"><g transform="translate(492.456621, 343.846442)"><g/></g></g><g fill="#000000" fill-opacity="1"><g transform="translate(494.96217, 343.846442)"><g/></g></g><g fill="#000000" fill-opacity="1"><g transform="translate(497.467718, 343.846442)"><g/></g></g><g fill="#000000" fill-opacity="1"><g transform="translate(499.973267, 343.846442)"><g/></g></g><g fill="#000000" fill-opacity="1"><g transform="translate(502.478816, 343.846442)"><g/></g></g><g fill="#000000" fill-opacity="1"><g transform="translate(504.984364, 343.846442)"><g/></g></g><g fill="#000000" fill-opacity="1"><g transform="translate(507.489913, 343.846442)"><g/></g></g><g fill="#000000" fill-opacity="1"><g transform="translate(509.995462, 343.846442)"><g/></g></g><g fill="#000000" fill-opacity="1"><g transform="translate(512.50227, 343.846442)"><g><path d="M 3.007812 0 L 3.007812 -0.207031 C 2.492188 -0.207031 1.71875 -0.257812 1.71875 -0.957031 C 1.71875 -1.070312 1.742188 -1.265625 1.796875 -1.382812 L 2.570312 -3.292969 L 5.464844 -3.292969 L 6.417969 -0.996094 C 6.445312 -0.917969 6.46875 -0.8125 6.46875 -0.710938 C 6.46875 -0.296875 6.042969 -0.246094 5.734375 -0.207031 L 5.734375 0 L 8.859375 0 L 8.859375 -0.21875 C 8.382812 -0.234375 8.085938 -0.4375 7.890625 -0.929688 L 4.792969 -8.367188 L 4.429688 -8.367188 L 1.445312 -1.304688 C 1.1875 -0.699219 0.734375 -0.269531 0.0664062 -0.21875 L 0.0664062 0 Z M 4.003906 -6.792969 L 5.371094 -3.5 L 2.660156 -3.5 Z M 4.003906 -6.792969 "/></g></g></g><g fill="#000000" fill-opacity="1"><g transform="translate(521.271682, 343.846442)"><g><path d="M 0.101562 -0.21875 L 0.101562 0 L 2.917969 0 L 2.917969 -0.21875 C 2.519531 -0.234375 2.183594 -0.414062 2.183594 -0.917969 L 2.183594 -3.433594 L 2.273438 -3.421875 C 2.648438 -3.421875 3.113281 -3.410156 3.578125 -3.421875 C 4.042969 -3.433594 4.496094 -3.472656 4.84375 -3.578125 C 5.863281 -3.886719 6.394531 -4.855469 6.394531 -5.902344 C 6.394531 -6.949219 5.851562 -7.917969 4.84375 -8.214844 C 4.339844 -8.367188 3.617188 -8.382812 3.074219 -8.382812 C 2.078125 -8.382812 1.097656 -8.367188 0.101562 -8.367188 L 0.101562 -8.164062 C 0.503906 -8.136719 0.851562 -7.957031 0.851562 -7.453125 L 0.851562 -0.917969 C 0.851562 -0.414062 0.503906 -0.234375 0.101562 -0.21875 Z M 2.183594 -3.667969 L 2.183594 -8.136719 L 2.273438 -8.136719 C 2.503906 -8.136719 2.816406 -8.136719 3.125 -8.109375 C 3.433594 -8.097656 3.757812 -8.058594 3.976562 -7.957031 C 4.738281 -7.605469 4.984375 -6.613281 4.984375 -5.890625 C 4.984375 -5.179688 4.738281 -4.183594 3.992188 -3.847656 C 3.769531 -3.746094 3.449219 -3.695312 3.136719 -3.679688 C 2.816406 -3.65625 2.503906 -3.667969 2.273438 -3.667969 Z M 2.183594 -3.667969 "/></g></g></g><g fill="#000000" fill-opacity="1"><g transform="translate(527.768021, 343.846442)"><g><path d="M 0.101562 -0.21875 L 0.101562 0 L 2.917969 0 L 2.917969 -0.21875 C 2.519531 -0.234375 2.183594 -0.414062 2.183594 -0.917969 L 2.183594 -3.433594 L 2.273438 -3.421875 C 2.648438 -3.421875 3.113281 -3.410156 3.578125 -3.421875 C 4.042969 -3.433594 4.496094 -3.472656 4.84375 -3.578125 C 5.863281 -3.886719 6.394531 -4.855469 6.394531 -5.902344 C 6.394531 -6.949219 5.851562 -7.917969 4.84375 -8.214844 C 4.339844 -8.367188 3.617188 -8.382812 3.074219 -8.382812 C 2.078125 -8.382812 1.097656 -8.367188 0.101562 -8.367188 L 0.101562 -8.164062 C 0.503906 -8.136719 0.851562 -7.957031 0.851562 -7.453125 L 0.851562 -0.917969 C 0.851562 -0.414062 0.503906 -0.234375 0.101562 -0.21875 Z M 2.183594 -3.667969 L 2.183594 -8.136719 L 2.273438 -8.136719 C 2.503906 -8.136719 2.816406 -8.136719 3.125 -8.109375 C 3.433594 -8.097656 3.757812 -8.058594 3.976562 -7.957031 C 4.738281 -7.605469 4.984375 -6.613281 4.984375 -5.890625 C 4.984375 -5.179688 4.738281 -4.183594 3.992188 -3.847656 C 3.769531 -3.746094 3.449219 -3.695312 3.136719 -3.679688 C 2.816406 -3.65625 2.503906 -3.667969 2.273438 -3.667969 Z M 2.183594 -3.667969 "/></g></g></g><g fill="#000000" fill-opacity="1"><g transform="translate(534.26436, 343.846442)"><g><path d="M 3.007812 0 L 3.007812 -0.207031 C 2.492188 -0.207031 1.71875 -0.257812 1.71875 -0.957031 C 1.71875 -1.070312 1.742188 -1.265625 1.796875 -1.382812 L 2.570312 -3.292969 L 5.464844 -3.292969 L 6.417969 -0.996094 C 6.445312 -0.917969 6.46875 -0.8125 6.46875 -0.710938 C 6.46875 -0.296875 6.042969 -0.246094 5.734375 -0.207031 L 5.734375 0 L 8.859375 0 L 8.859375 -0.21875 C 8.382812 -0.234375 8.085938 -0.4375 7.890625 -0.929688 L 4.792969 -8.367188 L 4.429688 -8.367188 L 1.445312 -1.304688 C 1.1875 -0.699219 0.734375 -0.269531 0.0664062 -0.21875 L 0.0664062 0 Z M 4.003906 -6.792969 L 5.371094 -3.5 L 2.660156 -3.5 Z M 4.003906 -6.792969 "/></g></g></g><g fill="#000000" fill-opacity="1"><g transform="translate(543.033772, 343.846442)"><g><path d="M 0.179688 -8.164062 C 0.582031 -8.136719 0.929688 -7.957031 0.929688 -7.453125 L 0.929688 -0.917969 C 0.929688 -0.414062 0.582031 -0.234375 0.179688 -0.21875 L 0.179688 0 L 2.867188 0 L 2.867188 -0.207031 C 2.441406 -0.234375 2.261719 -0.464844 2.261719 -0.917969 L 2.261719 -3.992188 L 2.441406 -3.992188 C 3.398438 -3.992188 3.796875 -3.527344 4.132812 -2.6875 C 4.289062 -2.285156 4.402344 -1.847656 4.53125 -1.445312 C 4.792969 -0.621094 5.074219 0 5.695312 0 L 7.078125 0 L 7.078125 -0.21875 C 6.714844 -0.285156 6.484375 -0.53125 6.300781 -0.851562 C 6.210938 -1.019531 6.132812 -1.226562 6.042969 -1.433594 C 5.964844 -1.640625 5.890625 -1.859375 5.8125 -2.078125 C 5.476562 -2.957031 5.035156 -3.992188 3.875 -4.054688 C 5.257812 -4.054688 6.457031 -4.6875 6.457031 -6.199219 C 6.457031 -7.195312 5.890625 -7.96875 4.933594 -8.226562 C 4.378906 -8.382812 3.769531 -8.382812 3.175781 -8.382812 C 2.183594 -8.382812 1.1875 -8.367188 0.179688 -8.367188 Z M 2.351562 -8.1875 C 2.582031 -8.1875 2.894531 -8.1875 3.203125 -8.164062 C 3.511719 -8.148438 3.824219 -8.097656 4.054688 -8.007812 C 4.777344 -7.710938 5.0625 -6.898438 5.0625 -6.199219 C 5.0625 -5.488281 4.777344 -4.675781 4.054688 -4.378906 C 3.824219 -4.289062 3.511719 -4.25 3.203125 -4.222656 C 2.894531 -4.199219 2.582031 -4.210938 2.351562 -4.210938 L 2.261719 -4.210938 L 2.261719 -8.1875 Z M 2.351562 -8.1875 "/></g></g></g><g fill="#000000" fill-opacity="1"><g transform="translate(550.033802, 343.846442)"><g><path d="M 0.117188 0 L 6.496094 0 L 7.011719 -2.441406 L 6.804688 -2.453125 C 6.691406 -2.183594 6.601562 -1.898438 6.46875 -1.613281 C 6.097656 -0.789062 5.539062 -0.207031 4.558594 -0.207031 L 2.195312 -0.207031 L 2.195312 -3.953125 L 3.707031 -3.9375 C 3.898438 -3.9375 4.105469 -3.9375 4.289062 -3.914062 C 4.894531 -3.875 5.332031 -3.628906 5.371094 -2.945312 L 5.578125 -2.945312 L 5.578125 -5.410156 L 5.386719 -5.410156 C 5.332031 -4.390625 4.585938 -4.199219 3.707031 -4.199219 C 3.230469 -4.183594 2.765625 -4.183594 2.285156 -4.183594 L 2.195312 -4.171875 L 2.195312 -8.164062 L 3.9375 -8.164062 C 5.011719 -8.164062 5.683594 -7.660156 6.132812 -6.714844 C 6.25 -6.457031 6.339844 -6.1875 6.457031 -5.914062 L 6.664062 -5.929688 L 6.148438 -8.367188 L 0.117188 -8.367188 L 0.117188 -8.164062 C 0.515625 -8.136719 0.867188 -7.957031 0.867188 -7.453125 L 0.867188 -0.917969 C 0.867188 -0.414062 0.515625 -0.234375 0.117188 -0.21875 Z M 0.117188 0 "/></g></g></g><g fill="#000000" fill-opacity="1"><g transform="translate(557.085497, 343.846442)"><g><path d="M 0.0898438 -8.367188 L 0.0898438 -8.164062 C 0.492188 -8.136719 0.839844 -7.957031 0.839844 -7.453125 L 0.839844 -0.917969 C 0.839844 -0.414062 0.492188 -0.234375 0.0898438 -0.21875 L 0.0898438 0 L 6.097656 0 L 6.601562 -1.847656 L 6.394531 -1.859375 C 5.824219 -0.671875 4.507812 -0.207031 3.304688 -0.207031 L 2.195312 -0.207031 L 2.167969 -7.453125 C 2.167969 -7.957031 2.503906 -8.136719 2.90625 -8.164062 L 2.90625 -8.367188 Z M 0.0898438 -8.367188 "/></g></g></g><g clip-path="url(#d7ba50dc54)"><g clip-path="url(#8c2a0d9396)"><g clip-path="url(#c87a1e10ed)"><g clip-path="url(#052eaf209a)"><path fill="#000000" d="M 223.652344 252.464844 L 176.230469 226.160156 C 175.550781 225.753906 174.738281 225.480469 174.0625 225.347656 L 174.058594 222.367188 C 181.914062 221.285156 187.328125 213.703125 185.429688 205.578125 C 183.253906 195.550781 171.195312 191.617188 163.613281 197.84375 C 160.367188 200.550781 158.472656 204.339844 158.472656 208.675781 C 158.476562 209.757812 159.289062 210.574219 160.371094 210.574219 C 161.457031 210.574219 162.269531 209.761719 162.265625 208.679688 C 162.265625 205.425781 163.617188 202.71875 165.917969 200.6875 C 171.46875 196.492188 180.140625 198.9375 181.769531 206.25 C 183.265625 212.617188 178.390625 218.574219 172.160156 218.570312 C 171.078125 218.570312 170.265625 219.382812 170.265625 220.46875 L 170.269531 225.34375 C 169.59375 225.476562 168.78125 225.75 168.101562 226.15625 L 120.710938 252.402344 C 113.261719 256.597656 116.113281 268.113281 124.78125 268.117188 C 125.867188 268.121094 126.679688 267.308594 126.679688 266.222656 C 126.675781 265.140625 125.863281 264.328125 124.78125 264.324219 C 120.175781 264.324219 118.546875 258.089844 122.609375 255.925781 L 170 229.675781 C 171.355469 228.867188 172.980469 228.867188 174.335938 229.679688 L 221.894531 255.851562 C 225.960938 258.019531 224.339844 264.25 219.734375 264.25 C 218.648438 264.246094 217.835938 265.058594 217.835938 266.144531 C 217.839844 267.226562 218.652344 268.039062 219.734375 268.042969 C 228.269531 268.183594 231.105469 256.671875 223.652344 252.464844 Z M 223.652344 252.464844 " fill-opacity="1" fill-rule="nonzero"/></g></g></g></g><g clip-path="url(#6b1fa7b3c0)"><g clip-path="url(#302e81de21)"><g clip-path="url(#951577122b)"><g clip-path="url(#846d104cae)"><path fill="#000000" d="M 228.289062 251.761719 L 179.394531 224.621094 C 178.695312 224.203125 177.855469 223.921875 177.160156 223.78125 L 177.15625 220.710938 C 185.25 219.601562 190.828125 211.789062 188.863281 203.410156 C 186.617188 193.078125 174.1875 189.015625 166.375 195.425781 C 163.027344 198.214844 161.078125 202.121094 161.082031 206.589844 C 161.085938 207.707031 161.921875 208.546875 163.039062 208.546875 C 164.15625 208.546875 164.996094 207.710938 164.992188 206.59375 C 164.988281 203.246094 166.382812 200.453125 168.753906 198.363281 C 174.472656 194.039062 183.410156 196.5625 185.09375 204.105469 C 186.636719 210.667969 181.617188 216.804688 175.195312 216.796875 C 174.078125 216.796875 173.242188 217.632812 173.242188 218.75 L 173.25 223.777344 C 172.550781 223.914062 171.714844 224.195312 171.015625 224.613281 L 122.183594 251.640625 C 114.507812 255.960938 117.453125 267.832031 126.390625 267.839844 C 127.507812 267.84375 128.34375 267.007812 128.339844 265.890625 C 128.339844 264.773438 127.5 263.933594 126.386719 263.933594 C 121.636719 263.925781 119.957031 257.503906 124.140625 255.273438 L 172.976562 228.242188 C 174.371094 227.40625 176.046875 227.410156 177.441406 228.25 L 226.476562 255.25 C 230.667969 257.488281 229 263.910156 224.253906 263.902344 C 223.136719 263.902344 222.300781 264.738281 222.300781 265.855469 C 222.300781 266.972656 223.140625 267.8125 224.257812 267.8125 C 233.054688 267.960938 235.972656 256.097656 228.289062 251.761719 Z M 228.289062 251.761719 " fill-opacity="1" fill-rule="nonzero"/></g></g></g></g><g clip-path="url(#b2c916fb11)"><path fill="#000000" d="M 176.742188 301.863281 C 174.605469 310.074219 172.988281 318.386719 171.890625 326.796875 C 169.410156 321.722656 168.171875 316.363281 168.171875 310.71875 L 168.171875 228.007812 L 176.742188 228.007812 Z M 176.742188 301.863281 " fill-opacity="1" fill-rule="nonzero"/></g><path fill="#000000" d="M 217.445312 254.769531 C 217.445312 255.402344 217.382812 256.03125 217.261719 256.648438 C 217.136719 257.269531 216.953125 257.875 216.710938 258.457031 C 216.46875 259.042969 216.171875 259.597656 215.820312 260.125 C 215.46875 260.648438 215.070312 261.136719 214.621094 261.582031 C 214.175781 262.03125 213.6875 262.429688 213.160156 262.78125 C 212.636719 263.132812 212.078125 263.429688 211.496094 263.671875 C 210.910156 263.914062 210.308594 264.097656 209.6875 264.21875 C 209.066406 264.34375 208.4375 264.40625 207.804688 264.40625 C 207.171875 264.40625 206.546875 264.34375 205.925781 264.21875 C 205.304688 264.097656 204.703125 263.914062 204.117188 263.671875 C 203.53125 263.429688 202.976562 263.132812 202.449219 262.78125 C 201.921875 262.429688 201.4375 262.03125 200.988281 261.582031 C 200.542969 261.136719 200.140625 260.648438 199.789062 260.125 C 199.4375 259.597656 199.140625 259.042969 198.898438 258.457031 C 198.65625 257.875 198.472656 257.269531 198.351562 256.648438 C 198.226562 256.03125 198.164062 255.402344 198.164062 254.769531 C 198.164062 254.136719 198.226562 253.511719 198.351562 252.890625 C 198.472656 252.269531 198.65625 251.667969 198.898438 251.082031 C 199.140625 250.5 199.4375 249.945312 199.789062 249.417969 C 200.140625 248.890625 200.542969 248.40625 200.988281 247.957031 C 201.4375 247.511719 201.921875 247.109375 202.449219 246.757812 C 202.976562 246.40625 203.53125 246.109375 204.117188 245.867188 C 204.703125 245.625 205.304688 245.445312 205.925781 245.320312 C 206.546875 245.195312 207.171875 245.136719 207.804688 245.136719 C 208.4375 245.136719 209.066406 245.195312 209.6875 245.320312 C 210.308594 245.445312 210.910156 245.625 211.496094 245.867188 C 212.078125 246.109375 212.636719 246.40625 213.160156 246.757812 C 213.6875 247.109375 214.175781 247.511719 214.621094 247.957031 C 215.070312 248.40625 215.46875 248.890625 215.820312 249.417969 C 216.171875 249.945312 216.46875 250.5 216.710938 251.082031 C 216.953125 251.667969 217.136719 252.269531 217.261719 252.890625 C 217.382812 253.511719 217.445312 254.136719 217.445312 254.769531 Z M 217.445312 254.769531 " fill-opacity="1" fill-rule="nonzero"/><path fill="#000000" d="M 223.871094 308.296875 C 223.871094 308.824219 223.847656 309.347656 223.796875 309.871094 C 223.742188 310.394531 223.667969 310.914062 223.5625 311.429688 C 223.460938 311.945312 223.332031 312.457031 223.179688 312.960938 C 223.027344 313.464844 222.851562 313.957031 222.648438 314.445312 C 222.449219 314.929688 222.222656 315.40625 221.976562 315.867188 C 221.726562 316.332031 221.457031 316.78125 221.164062 317.21875 C 220.871094 317.65625 220.558594 318.078125 220.226562 318.484375 C 219.890625 318.890625 219.539062 319.28125 219.167969 319.652344 C 218.792969 320.023438 218.40625 320.378906 218 320.710938 C 217.589844 321.046875 217.167969 321.359375 216.730469 321.648438 C 216.292969 321.941406 215.84375 322.210938 215.378906 322.460938 C 214.914062 322.707031 214.441406 322.933594 213.953125 323.132812 C 213.46875 323.335938 212.972656 323.511719 212.46875 323.664062 C 211.964844 323.816406 211.457031 323.945312 210.941406 324.046875 C 210.425781 324.152344 209.902344 324.226562 209.378906 324.28125 C 208.855469 324.332031 208.332031 324.355469 207.804688 324.355469 C 207.28125 324.355469 206.753906 324.332031 206.230469 324.28125 C 205.707031 324.226562 205.1875 324.152344 204.671875 324.046875 C 204.15625 323.945312 203.644531 323.816406 203.140625 323.664062 C 202.636719 323.511719 202.144531 323.335938 201.65625 323.132812 C 201.171875 322.933594 200.695312 322.707031 200.230469 322.460938 C 199.769531 322.210938 199.316406 321.941406 198.878906 321.648438 C 198.441406 321.359375 198.019531 321.046875 197.613281 320.710938 C 197.207031 320.378906 196.816406 320.023438 196.445312 319.652344 C 196.074219 319.28125 195.71875 318.890625 195.386719 318.484375 C 195.050781 318.078125 194.738281 317.65625 194.445312 317.21875 C 194.152344 316.78125 193.882812 316.332031 193.636719 315.867188 C 193.386719 315.40625 193.164062 314.929688 192.960938 314.445312 C 192.761719 313.957031 192.582031 313.464844 192.429688 312.960938 C 192.277344 312.457031 192.148438 311.945312 192.046875 311.429688 C 191.945312 310.914062 191.867188 310.394531 191.816406 309.871094 C 191.765625 309.347656 191.738281 308.824219 191.738281 308.296875 C 191.738281 307.773438 191.765625 307.246094 191.816406 306.722656 C 191.867188 306.199219 191.945312 305.679688 192.046875 305.164062 C 192.148438 304.648438 192.277344 304.140625 192.429688 303.636719 C 192.582031 303.132812 192.761719 302.640625 192.960938 302.152344 C 193.164062 301.667969 193.386719 301.191406 193.636719 300.726562 C 193.882812 300.265625 194.152344 299.8125 194.445312 299.375 C 194.738281 298.9375 195.050781 298.515625 195.386719 298.109375 C 195.71875 297.703125 196.074219 297.316406 196.445312 296.941406 C 196.816406 296.570312 197.207031 296.21875 197.613281 295.886719 C 198.019531 295.550781 198.441406 295.238281 198.878906 294.945312 C 199.316406 294.652344 199.769531 294.382812 200.230469 294.136719 C 200.695312 293.886719 201.171875 293.664062 201.65625 293.460938 C 202.144531 293.261719 202.636719 293.085938 203.140625 292.929688 C 203.644531 292.777344 204.15625 292.652344 204.671875 292.546875 C 205.1875 292.445312 205.707031 292.367188 206.230469 292.316406 C 206.753906 292.265625 207.28125 292.238281 207.804688 292.238281 C 208.332031 292.238281 208.855469 292.265625 209.378906 292.316406 C 209.902344 292.367188 210.425781 292.445312 210.941406 292.546875 C 211.457031 292.652344 211.964844 292.777344 212.46875 292.929688 C 212.972656 293.085938 213.46875 293.261719 213.953125 293.460938 C 214.441406 293.664062 214.914062 293.886719 215.378906 294.136719 C 215.84375 294.382812 216.292969 294.652344 216.730469 294.945312 C 217.167969 295.238281 217.589844 295.550781 218 295.886719 C 218.40625 296.21875 218.792969 296.570312 219.167969 296.941406 C 219.539062 297.316406 219.890625 297.703125 220.226562 298.109375 C 220.558594 298.515625 220.871094 298.9375 221.164062 299.375 C 221.457031 299.8125 221.726562 300.265625 221.976562 300.726562 C 222.222656 301.191406 222.449219 301.667969 222.648438 302.152344 C 222.851562 302.640625 223.027344 303.132812 223.179688 303.636719 C 223.332031 304.140625 223.460938 304.648438 223.5625 305.164062 C 223.667969 305.679688 223.742188 306.199219 223.796875 306.722656 C 223.847656 307.246094 223.871094 307.773438 223.871094 308.296875 Z M 223.871094 308.296875 " fill-opacity="1" fill-rule="nonzero"/><g clip-path="url(#9e264dcaf2)"><path fill="#000000" d="M 208.066406 273.984375 C 206.371094 273.835938 204.726562 273.453125 203.140625 272.839844 L 201.347656 272.15625 C 200.496094 271.847656 199.671875 271.480469 198.871094 271.054688 C 198.074219 270.625 197.308594 270.144531 196.582031 269.605469 C 195.855469 269.066406 195.167969 268.480469 194.523438 267.84375 C 193.882812 267.203125 193.289062 266.523438 192.742188 265.800781 C 192.199219 265.078125 191.707031 264.320312 191.273438 263.523438 C 190.839844 262.730469 190.464844 261.910156 190.148438 261.0625 C 189.832031 260.210938 189.582031 259.347656 189.390625 258.460938 C 189.203125 257.574219 189.078125 256.679688 189.015625 255.777344 C 189.003906 255.375 189.003906 254.972656 189.015625 254.566406 C 189.027344 254.164062 189.054688 253.761719 189.089844 253.359375 C 189.128906 252.957031 189.183594 252.554688 189.246094 252.15625 C 189.3125 251.757812 189.386719 251.363281 189.480469 250.96875 C 189.570312 250.574219 189.671875 250.183594 189.789062 249.796875 C 189.902344 249.410156 190.03125 249.027344 190.171875 248.648438 C 190.3125 248.269531 190.464844 247.894531 190.628906 247.527344 C 190.792969 247.15625 190.96875 246.792969 191.15625 246.4375 C 191.34375 246.078125 191.546875 245.726562 191.757812 245.382812 C 191.96875 245.039062 192.1875 244.699219 192.421875 244.371094 C 192.652344 244.039062 192.898438 243.71875 193.152344 243.402344 C 193.40625 243.089844 193.667969 242.78125 193.941406 242.484375 C 194.214844 242.1875 194.5 241.898438 194.789062 241.621094 C 195.082031 241.339844 195.382812 241.070312 195.691406 240.8125 C 196.003906 240.550781 196.320312 240.300781 196.644531 240.0625 C 196.972656 239.824219 197.304688 239.597656 197.644531 239.378906 C 197.988281 239.160156 198.332031 238.953125 198.6875 238.757812 C 199.042969 238.5625 199.402344 238.378906 199.765625 238.210938 C 200.132812 238.039062 200.503906 237.878906 200.878906 237.730469 C 201.257812 237.582031 201.636719 237.445312 202.023438 237.324219 C 202.40625 237.199219 202.796875 237.089844 203.1875 236.992188 C 203.582031 236.894531 203.976562 236.808594 204.371094 236.738281 C 204.769531 236.664062 205.171875 236.605469 205.570312 236.558594 C 205.972656 236.511719 206.375 236.476562 206.777344 236.457031 C 207.183594 236.4375 207.585938 236.429688 207.992188 236.433594 C 208.394531 236.441406 208.796875 236.460938 209.203125 236.492188 C 209.605469 236.523438 210.007812 236.570312 210.40625 236.625 C 210.804688 236.683594 211.203125 236.753906 211.597656 236.839844 C 211.996094 236.921875 212.386719 237.019531 212.777344 237.128906 C 213.164062 237.234375 213.550781 237.359375 213.933594 237.492188 C 214.3125 237.625 214.691406 237.769531 215.0625 237.929688 C 215.433594 238.089844 215.800781 238.257812 216.160156 238.441406 C 216.75 238.738281 217.320312 239.0625 217.871094 239.417969 C 218.425781 239.777344 218.957031 240.160156 219.472656 240.574219 C 219.984375 240.984375 220.472656 241.425781 220.9375 241.890625 C 221.40625 242.351562 221.847656 242.839844 222.261719 243.351562 C 222.675781 243.863281 223.0625 244.394531 223.421875 244.945312 C 223.78125 245.496094 224.109375 246.066406 224.40625 246.652344 C 224.707031 247.238281 224.972656 247.835938 225.210938 248.453125 C 225.445312 249.066406 225.648438 249.691406 225.816406 250.328125 C 225.984375 250.960938 226.121094 251.605469 226.222656 252.253906 C 226.324219 252.90625 226.394531 253.558594 226.425781 254.214844 C 226.457031 254.871094 226.457031 255.527344 226.421875 256.1875 C 226.382812 256.84375 226.3125 257.496094 226.207031 258.144531 C 226.101562 258.792969 225.960938 259.4375 225.789062 260.070312 C 225.617188 260.707031 225.410156 261.328125 225.171875 261.941406 C 224.933594 262.554688 224.664062 263.152344 224.359375 263.738281 C 224.058594 264.324219 223.726562 264.890625 223.363281 265.4375 L 230.523438 270.148438 C 230.816406 269.703125 231.097656 269.246094 231.363281 268.785156 C 231.632812 268.324219 231.886719 267.851562 232.125 267.375 C 232.363281 266.898438 232.589844 266.414062 232.800781 265.921875 C 233.011719 265.433594 233.210938 264.9375 233.390625 264.433594 C 233.574219 263.933594 233.738281 263.425781 233.890625 262.914062 C 234.042969 262.402344 234.179688 261.886719 234.304688 261.363281 C 234.425781 260.84375 234.53125 260.320312 234.621094 259.796875 C 234.714844 259.269531 234.789062 258.742188 234.847656 258.210938 C 234.910156 257.679688 234.953125 257.148438 234.984375 256.613281 C 235.011719 256.082031 235.023438 255.546875 235.023438 255.011719 C 235.019531 254.480469 235 253.945312 234.96875 253.414062 C 234.933594 252.878906 234.882812 252.347656 234.820312 251.816406 C 234.753906 251.289062 234.671875 250.761719 234.578125 250.234375 C 234.480469 249.710938 234.367188 249.1875 234.242188 248.667969 C 234.113281 248.148438 233.972656 247.636719 233.816406 247.125 C 233.660156 246.613281 233.488281 246.109375 233.300781 245.609375 C 233.113281 245.109375 232.910156 244.613281 232.695312 244.125 C 232.480469 243.636719 232.25 243.15625 232.003906 242.679688 C 231.761719 242.203125 231.503906 241.738281 231.230469 241.277344 C 230.960938 240.816406 230.675781 240.367188 230.378906 239.921875 C 230.078125 239.480469 229.769531 239.046875 229.445312 238.621094 C 229.121094 238.195312 228.785156 237.78125 228.4375 237.375 C 228.089844 236.96875 227.730469 236.574219 227.355469 236.191406 C 226.984375 235.808594 226.605469 235.433594 226.210938 235.074219 C 225.816406 234.710938 225.414062 234.359375 225 234.023438 C 224.585938 233.683594 224.164062 233.359375 223.730469 233.046875 C 223.296875 232.734375 222.855469 232.433594 222.40625 232.144531 C 221.953125 231.859375 221.496094 231.585938 221.027344 231.324219 C 220.5625 231.066406 220.089844 230.816406 219.609375 230.585938 C 219.125 230.351562 218.640625 230.136719 218.144531 229.929688 C 217.652344 229.726562 217.152344 229.539062 216.644531 229.363281 C 216.140625 229.1875 215.632812 229.03125 215.117188 228.886719 C 214.601562 228.742188 214.085938 228.613281 213.5625 228.496094 C 213.039062 228.382812 212.515625 228.285156 211.988281 228.199219 C 211.460938 228.117188 210.929688 228.050781 210.398438 227.996094 C 209.867188 227.945312 209.332031 227.910156 208.800781 227.886719 C 208.265625 227.867188 207.730469 227.863281 207.199219 227.871094 C 206.664062 227.882812 206.128906 227.910156 205.597656 227.949219 C 205.0625 227.992188 204.53125 228.050781 204.003906 228.121094 C 203.472656 228.195312 202.949219 228.285156 202.421875 228.386719 C 201.898438 228.492188 201.378906 228.609375 200.863281 228.746094 C 200.34375 228.878906 199.832031 229.027344 199.324219 229.191406 C 198.816406 229.359375 198.3125 229.535156 197.8125 229.730469 C 197.316406 229.925781 196.824219 230.132812 196.339844 230.355469 C 195.851562 230.578125 195.375 230.816406 194.902344 231.066406 C 194.429688 231.316406 193.96875 231.582031 193.511719 231.859375 C 193.054688 232.140625 192.605469 232.429688 192.167969 232.734375 C 191.730469 233.039062 191.300781 233.355469 190.878906 233.6875 C 190.457031 234.015625 190.046875 234.359375 189.648438 234.710938 C 189.246094 235.066406 188.859375 235.429688 188.480469 235.808594 C 188.101562 236.183594 187.734375 236.570312 187.378906 236.96875 C 187.019531 237.367188 186.675781 237.777344 186.34375 238.195312 C 186.011719 238.613281 185.695312 239.042969 185.386719 239.476562 C 185.078125 239.914062 184.785156 240.363281 184.503906 240.816406 C 184.222656 241.269531 183.957031 241.734375 183.703125 242.203125 C 183.449219 242.671875 183.210938 243.148438 182.984375 243.632812 C 182.757812 244.117188 182.546875 244.609375 182.351562 245.105469 C 182.15625 245.601562 181.972656 246.105469 181.804688 246.609375 C 181.640625 247.117188 181.488281 247.628906 181.351562 248.148438 C 181.210938 248.664062 181.089844 249.183594 180.984375 249.707031 C 180.878906 250.230469 180.785156 250.753906 180.710938 251.285156 C 180.636719 251.8125 180.574219 252.34375 180.53125 252.875 C 180.488281 253.40625 180.457031 253.941406 180.445312 254.472656 C 180.429688 255.007812 180.433594 255.542969 180.453125 256.074219 C 180.519531 257.402344 180.679688 258.714844 180.941406 260.011719 C 181.199219 261.3125 181.554688 262.589844 182 263.835938 C 182.449219 265.085938 182.984375 266.292969 183.609375 267.464844 C 184.234375 268.632812 184.941406 269.75 185.730469 270.816406 C 186.523438 271.882812 187.386719 272.882812 188.324219 273.824219 C 189.257812 274.761719 190.261719 275.625 191.324219 276.417969 C 192.390625 277.210938 193.507812 277.917969 194.675781 278.546875 C 195.84375 279.171875 197.054688 279.710938 198.300781 280.160156 L 200.09375 280.84375 C 202.441406 281.746094 204.867188 282.304688 207.371094 282.519531 C 208.28125 282.59375 209.183594 282.714844 210.078125 282.875 C 210.976562 283.035156 211.863281 283.242188 212.738281 283.488281 C 213.617188 283.734375 214.476562 284.023438 215.328125 284.355469 C 216.175781 284.683594 217.007812 285.054688 217.820312 285.464844 C 218.632812 285.878906 219.425781 286.324219 220.195312 286.8125 C 220.964844 287.300781 221.707031 287.824219 222.425781 288.382812 C 223.144531 288.941406 223.835938 289.53125 224.5 290.160156 C 225.160156 290.785156 225.792969 291.441406 226.390625 292.125 C 226.988281 292.8125 227.550781 293.527344 228.082031 294.265625 C 228.613281 295.007812 229.105469 295.773438 229.558594 296.558594 C 230.015625 297.347656 230.433594 298.15625 230.8125 298.984375 C 231.1875 299.8125 231.527344 300.660156 231.820312 301.519531 C 232.117188 302.378906 232.371094 303.253906 232.582031 304.140625 C 232.796875 305.023438 232.964844 305.917969 233.089844 306.820312 C 233.214844 307.722656 233.296875 308.628906 233.335938 309.539062 C 233.371094 310.445312 233.367188 311.355469 233.316406 312.265625 C 233.265625 313.175781 233.175781 314.078125 233.035156 314.980469 C 232.898438 315.878906 232.71875 316.769531 232.496094 317.652344 C 232.273438 318.535156 232.007812 319.40625 231.699219 320.261719 C 231.394531 321.121094 231.042969 321.960938 230.65625 322.785156 C 230.269531 323.609375 229.839844 324.410156 229.375 325.191406 C 228.910156 325.976562 228.40625 326.734375 227.867188 327.464844 C 227.328125 328.199219 226.753906 328.90625 226.144531 329.585938 C 225.539062 330.261719 224.898438 330.910156 224.230469 331.527344 C 223.558594 332.144531 222.863281 332.726562 222.136719 333.277344 C 221.410156 333.828125 220.65625 334.339844 219.882812 334.816406 C 219.105469 335.292969 218.308594 335.734375 217.492188 336.132812 C 216.671875 336.53125 215.835938 336.894531 214.984375 337.210938 C 214.128906 337.53125 213.265625 337.808594 212.382812 338.046875 C 211.503906 338.28125 210.617188 338.472656 209.71875 338.625 C 208.820312 338.773438 207.914062 338.878906 207.007812 338.945312 C 206.097656 339.007812 205.1875 339.023438 204.277344 339 C 203.367188 338.976562 202.460938 338.90625 201.554688 338.792969 C 200.652344 338.683594 199.753906 338.527344 198.867188 338.328125 C 197.976562 338.128906 197.097656 337.886719 196.234375 337.605469 C 195.367188 337.320312 194.519531 336.996094 193.683594 336.628906 C 192.851562 336.265625 192.035156 335.859375 191.238281 335.414062 C 190.445312 334.972656 189.671875 334.488281 188.925781 333.972656 C 188.175781 333.453125 187.453125 332.898438 186.757812 332.308594 C 186.0625 331.722656 185.398438 331.101562 184.761719 330.449219 C 184.128906 329.796875 183.523438 329.113281 182.957031 328.402344 C 182.386719 327.695312 181.851562 326.957031 181.355469 326.195312 C 180.855469 325.433594 180.394531 324.648438 179.972656 323.839844 C 179.550781 323.035156 179.167969 322.210938 178.824219 321.367188 C 178.480469 320.523438 178.179688 319.664062 177.921875 318.792969 C 177.660156 317.917969 177.441406 317.035156 177.269531 316.144531 C 177.09375 315.25 176.960938 314.351562 176.875 313.445312 C 176.785156 312.539062 176.742188 311.628906 176.742188 310.71875 L 176.742188 308.847656 C 175.144531 315.613281 173.984375 322.457031 173.261719 329.371094 C 175 332.332031 177.105469 335 179.582031 337.375 C 181.277344 339.003906 183.109375 340.453125 185.082031 341.726562 C 187.054688 343 189.132812 344.074219 191.3125 344.949219 C 193.492188 345.824219 195.738281 346.480469 198.046875 346.921875 C 200.351562 347.363281 202.679688 347.582031 205.03125 347.574219 C 205.613281 347.574219 206.199219 347.5625 206.785156 347.535156 C 207.945312 347.480469 209.09375 347.371094 210.242188 347.210938 C 211.390625 347.046875 212.523438 346.828125 213.652344 346.558594 C 214.777344 346.289062 215.886719 345.96875 216.984375 345.59375 C 218.082031 345.21875 219.15625 344.792969 220.210938 344.316406 C 221.265625 343.839844 222.296875 343.316406 223.304688 342.742188 C 224.3125 342.171875 225.289062 341.550781 226.234375 340.886719 C 227.183594 340.222656 228.097656 339.515625 228.980469 338.761719 C 229.859375 338.011719 230.707031 337.222656 231.511719 336.390625 C 232.320312 335.558594 233.085938 334.691406 233.808594 333.789062 C 234.535156 332.886719 235.214844 331.953125 235.851562 330.984375 C 236.488281 330.019531 237.078125 329.023438 237.621094 328.003906 C 238.164062 326.980469 238.660156 325.933594 239.105469 324.867188 C 239.546875 323.796875 239.941406 322.710938 240.285156 321.601562 C 240.625 320.496094 240.914062 319.378906 241.152344 318.246094 C 241.386719 317.113281 241.570312 315.96875 241.699219 314.820312 C 241.828125 313.667969 241.902344 312.515625 241.921875 311.359375 C 241.941406 310.199219 241.910156 309.046875 241.820312 307.890625 C 241.730469 306.738281 241.589844 305.589844 241.390625 304.449219 C 241.195312 303.308594 240.945312 302.179688 240.640625 301.0625 C 240.335938 299.945312 239.980469 298.84375 239.574219 297.761719 C 239.167969 296.675781 238.710938 295.617188 238.203125 294.574219 C 237.695312 293.535156 237.140625 292.519531 236.539062 291.53125 C 235.933594 290.542969 235.285156 289.585938 234.59375 288.65625 C 233.902344 287.730469 233.164062 286.835938 232.386719 285.980469 C 231.609375 285.121094 230.792969 284.300781 229.941406 283.519531 C 229.085938 282.738281 228.195312 282 227.273438 281.300781 C 226.347656 280.605469 225.390625 279.953125 224.40625 279.34375 C 223.421875 278.738281 222.410156 278.175781 221.371094 277.664062 C 220.332031 277.152344 219.269531 276.691406 218.1875 276.277344 C 217.105469 275.867188 216.007812 275.503906 214.890625 275.195312 C 213.777344 274.886719 212.648438 274.632812 211.507812 274.429688 C 210.367188 274.226562 209.21875 274.078125 208.066406 273.984375 Z M 208.066406 273.984375 " fill-opacity="1" fill-rule="nonzero"/></g><g clip-path="url(#a27ea32b13)"><g clip-path="url(#210c4334f8)"><g clip-path="url(#46bcb38c79)"><path fill="#ffffff" d="M 182.347656 385.164062 C 178.804688 377.003906 176.429688 369.078125 175.214844 361.394531 C 174.003906 353.703125 173.707031 345.941406 174.324219 338.105469 C 174.941406 330.265625 176.351562 322.226562 178.546875 313.996094 C 180.742188 305.765625 183.492188 296.957031 186.796875 287.578125 C 189.332031 280.3125 191.730469 273.378906 193.992188 266.777344 C 196.253906 260.175781 198.105469 254.117188 199.554688 248.597656 L 199.605469 248.402344 C 200.363281 245.515625 200.957031 242.929688 201.378906 240.652344 C 201.800781 238.378906 202.082031 236.3125 202.214844 234.449219 C 202.511719 230.386719 202.078125 227.5 200.910156 225.789062 C 200.714844 225.453125 200.765625 225.261719 201.066406 225.199219 C 201.25 225.035156 201.453125 225.054688 201.679688 225.253906 C 202.859375 227.179688 203.359375 230.011719 203.183594 233.757812 C 203.007812 237.5 202.105469 242.460938 200.488281 248.632812 L 200.4375 248.832031 C 198.988281 254.347656 197.101562 260.398438 194.773438 266.980469 C 192.453125 273.566406 190.054688 280.5 187.578125 287.78125 C 184.03125 298.085938 181.226562 307.558594 179.167969 316.214844 C 177.109375 324.867188 175.851562 333.066406 175.398438 340.808594 C 174.945312 348.546875 175.339844 356.007812 176.578125 363.175781 C 177.820312 370.34375 179.9375 377.585938 182.929688 384.898438 " fill-opacity="1" fill-rule="nonzero"/></g></g></g><g clip-path="url(#d99d2c6fee)"><g clip-path="url(#6a3a2cc572)"><g clip-path="url(#4878696b71)"><path fill="#ffffff" d="M 183.785156 394.933594 C 180.242188 386.769531 177.863281 378.847656 176.648438 371.160156 C 175.441406 363.472656 175.140625 355.710938 175.757812 347.871094 C 176.375 340.03125 177.785156 331.992188 179.984375 323.761719 C 182.179688 315.535156 184.929688 306.722656 188.230469 297.34375 C 190.769531 290.078125 193.167969 283.144531 195.429688 276.542969 C 197.691406 269.941406 199.542969 263.882812 200.988281 258.367188 L 201.042969 258.167969 C 201.800781 255.28125 202.394531 252.699219 202.8125 250.421875 C 203.234375 248.144531 203.515625 246.078125 203.652344 244.214844 C 203.949219 240.15625 203.511719 237.265625 202.34375 235.554688 C 202.152344 235.222656 202.203125 235.03125 202.5 234.96875 C 202.683594 234.804688 202.890625 234.824219 203.113281 235.023438 C 204.296875 236.949219 204.796875 239.777344 204.621094 243.523438 C 204.441406 247.269531 203.542969 252.230469 201.921875 258.398438 L 201.871094 258.597656 C 200.421875 264.113281 198.539062 270.164062 196.210938 276.75 C 193.886719 283.335938 191.488281 290.269531 189.011719 297.550781 C 185.46875 307.851562 182.664062 317.328125 180.605469 325.980469 C 178.542969 334.632812 177.289062 342.835938 176.832031 350.574219 C 176.382812 358.316406 176.773438 365.777344 178.015625 372.945312 C 179.253906 380.113281 181.371094 387.355469 184.367188 394.667969 " fill-opacity="1" fill-rule="nonzero"/></g></g></g><g clip-path="url(#005a0e3538)"><g clip-path="url(#3836ee0da8)"><g clip-path="url(#a1f0d16ce8)"><path fill="#ffffff" d="M 187.445312 394.933594 C 183.902344 386.769531 181.527344 378.847656 180.3125 371.160156 C 179.101562 363.472656 178.804688 355.710938 179.421875 347.871094 C 180.039062 340.03125 181.449219 331.992188 183.644531 323.761719 C 185.839844 315.535156 188.589844 306.722656 191.894531 297.34375 C 194.429688 290.078125 196.828125 283.144531 199.089844 276.542969 C 201.351562 269.941406 203.207031 263.882812 204.652344 258.367188 L 204.703125 258.167969 C 205.464844 255.28125 206.054688 252.699219 206.476562 250.421875 C 206.898438 248.144531 207.179688 246.078125 207.316406 244.214844 C 207.609375 240.15625 207.175781 237.265625 206.007812 235.554688 C 205.8125 235.222656 205.863281 235.03125 206.164062 234.96875 C 206.347656 234.804688 206.554688 234.824219 206.777344 235.023438 C 207.957031 236.949219 208.460938 239.777344 208.28125 243.523438 C 208.105469 247.269531 207.207031 252.230469 205.585938 258.398438 L 205.535156 258.597656 C 204.085938 264.113281 202.199219 270.164062 199.875 276.75 C 197.550781 283.335938 195.152344 290.269531 192.675781 297.550781 C 189.132812 307.851562 186.328125 317.328125 184.265625 325.980469 C 182.207031 334.632812 180.949219 342.835938 180.496094 350.574219 C 180.042969 358.316406 180.4375 365.777344 181.675781 372.945312 C 182.917969 380.113281 185.035156 387.355469 188.03125 394.667969 " fill-opacity="1" fill-rule="nonzero"/></g></g></g><g clip-path="url(#8038f6449b)"><g clip-path="url(#46fb328d08)"><g clip-path="url(#d77e3e44bb)"><path fill="#ffffff" d="M 191.109375 394.933594 C 187.566406 386.769531 185.191406 378.847656 183.976562 371.160156 C 182.765625 363.472656 182.46875 355.710938 183.085938 347.871094 C 183.703125 340.03125 185.113281 331.992188 187.308594 323.761719 C 189.503906 315.535156 192.253906 306.722656 195.558594 297.34375 C 198.09375 290.078125 200.492188 283.144531 202.753906 276.542969 C 205.015625 269.941406 206.867188 263.882812 208.316406 258.367188 L 208.367188 258.167969 C 209.125 255.28125 209.71875 252.699219 210.140625 250.421875 C 210.5625 248.144531 210.839844 246.078125 210.976562 244.214844 C 211.273438 240.15625 210.839844 237.265625 209.671875 235.554688 C 209.476562 235.222656 209.527344 235.03125 209.824219 234.96875 C 210.007812 234.804688 210.214844 234.824219 210.441406 235.023438 C 211.621094 236.949219 212.121094 239.777344 211.945312 243.523438 C 211.769531 247.269531 210.867188 252.230469 209.25 258.398438 L 209.195312 258.597656 C 207.75 264.113281 205.863281 270.164062 203.535156 276.75 C 201.214844 283.335938 198.8125 290.269531 196.339844 297.550781 C 192.792969 307.851562 189.988281 317.328125 187.929688 325.980469 C 185.871094 334.632812 184.613281 342.835938 184.15625 350.574219 C 183.707031 358.316406 184.101562 365.777344 185.339844 372.945312 C 186.582031 380.113281 188.699219 387.355469 191.691406 394.667969 " fill-opacity="1" fill-rule="nonzero"/></g></g></g><g clip-path="url(#74a4cda4fc)"><g clip-path="url(#667890cdce)"><g clip-path="url(#481d7c8379)"><path fill="#ffffff" d="M 192.949219 404.699219 C 189.40625 396.539062 187.03125 388.613281 185.816406 380.929688 C 184.605469 373.238281 184.304688 365.476562 184.925781 357.640625 C 185.542969 349.800781 186.953125 341.761719 189.148438 333.53125 C 191.34375 325.300781 194.09375 316.492188 197.394531 307.113281 C 199.933594 299.847656 202.332031 292.914062 204.59375 286.3125 C 206.855469 279.710938 208.707031 273.652344 210.15625 268.132812 L 210.207031 267.9375 C 210.964844 265.050781 211.558594 262.464844 211.980469 260.1875 C 212.398438 257.914062 212.679688 255.847656 212.816406 253.984375 C 213.113281 249.921875 212.675781 247.035156 211.511719 245.324219 C 211.316406 244.992188 211.367188 244.796875 211.664062 244.734375 C 211.847656 244.570312 212.054688 244.589844 212.28125 244.789062 C 213.460938 246.714844 213.960938 249.546875 213.785156 253.292969 C 213.605469 257.035156 212.707031 261.996094 211.085938 268.167969 L 211.035156 268.367188 C 209.589844 273.882812 207.703125 279.933594 205.375 286.515625 C 203.050781 293.101562 200.652344 300.035156 198.179688 307.316406 C 194.632812 317.621094 191.828125 327.09375 189.769531 335.75 C 187.707031 344.402344 186.453125 352.601562 185.996094 360.34375 C 185.546875 368.085938 185.9375 375.542969 187.179688 382.710938 C 188.417969 389.878906 190.535156 397.121094 193.53125 404.433594 " fill-opacity="1" fill-rule="nonzero"/></g></g></g><g clip-path="url(#797367461a)"><g clip-path="url(#a01c61658a)"><path fill="#ffffff" d="M 195.691406 242.90625 L 221.972656 242.90625 L 221.972656 269.191406 L 195.691406 269.191406 Z M 195.691406 242.90625 " fill-opacity="1" fill-rule="nonzero"/></g></g><g clip-path="url(#fb28268e05)"><g clip-path="url(#c81bfa45e7)"><g clip-path="url(#9dca7617a5)"><path fill="#000000" d="M 208.21875 240.921875 L 208.457031 253.753906 L 197.246094 253.960938 L 197.007812 241.128906 Z M 208.21875 240.921875 " fill-opacity="1" fill-rule="nonzero"/></g></g></g><g clip-path="url(#ac5884214c)"><g clip-path="url(#829a64e370)"><path fill="#000000" d="M 206.621094 253.9375 L 206.621094 241.101562 L 217.835938 241.101562 L 217.835938 253.9375 Z M 206.621094 253.9375 " fill-opacity="1" fill-rule="nonzero"/></g></g><g clip-path="url(#07a287b709)"><g clip-path="url(#cb4e6e57b6)"><path fill="#000000" d="M 206.171875 252.984375 L 209.339844 252.984375 L 209.339844 255.800781 L 206.171875 255.800781 Z M 206.171875 252.984375 " fill-opacity="1" fill-rule="nonzero"/></g></g><g clip-path="url(#b2bd90ef9c)"><g clip-path="url(#5be676cc74)"><path fill="#000000" d="M 205.242188 245.355469 L 209.605469 245.355469 L 209.605469 249.714844 L 205.242188 249.714844 Z M 205.242188 245.355469 " fill-opacity="1" fill-rule="nonzero"/></g></g><g clip-path="url(#8f96038943)"><g clip-path="url(#9d72c3b045)"><path fill="#000000" d="M 206.441406 258.136719 L 209.609375 258.136719 L 209.609375 260.953125 L 206.441406 260.953125 Z M 206.441406 258.136719 " fill-opacity="1" fill-rule="nonzero"/></g></g><g clip-path="url(#6af2fdfb40)"><path fill="#000000" d="M 559.195312 307.417969 L 559.195312 312.199219 L 269.617188 312.199219 L 255.085938 337.433594 C 256.144531 338.6875 256.789062 340.304688 256.789062 342.058594 C 256.789062 345.992188 253.558594 349.230469 249.636719 349.230469 C 245.710938 349.230469 242.480469 345.992188 242.480469 342.058594 C 242.480469 338.125 245.710938 334.882812 249.636719 334.882812 C 250.09375 334.882812 250.539062 334.929688 250.972656 335.011719 L 266.863281 307.417969 Z M 249.636719 339.667969 C 248.289062 339.667969 247.25 340.707031 247.25 342.058594 C 247.25 343.40625 248.289062 344.449219 249.636719 344.449219 C 250.980469 344.449219 252.019531 343.40625 252.019531 342.058594 C 252.019531 340.707031 250.980469 339.667969 249.636719 339.667969 Z M 249.636719 339.667969 " fill-opacity="1" fill-rule="nonzero"/></g><g fill="#000000" fill-opacity="1"><g transform="translate(240.527988, 295.532251)"><g><path d="M 35.339844 -30.578125 C 35.339844 -33.804688 32.804688 -36.417969 29.578125 -36.417969 C 26.351562 -36.417969 23.816406 -33.804688 23.816406 -30.578125 C 23.816406 -27.429688 26.351562 -24.816406 29.578125 -24.816406 C 32.804688 -24.816406 35.339844 -27.429688 35.339844 -30.578125 Z M 59.160156 -30.808594 C 59.160156 -46.097656 49.246094 -61.464844 29.65625 -61.464844 C 9.757812 -61.464844 0 -46.097656 0 -30.808594 C 0 -15.441406 9.757812 0 29.65625 0 C 49.246094 0 59.160156 -15.441406 59.160156 -30.808594 Z M 47.632812 -30.578125 C 47.632812 -20.667969 41.566406 -10.757812 29.65625 -10.757812 C 17.59375 -10.757812 11.601562 -20.667969 11.601562 -30.578125 C 11.601562 -40.644531 17.59375 -50.628906 29.65625 -50.628906 C 41.566406 -50.628906 47.632812 -40.644531 47.632812 -30.578125 Z M 47.632812 -30.578125 "/></g></g></g><g fill="#000000" fill-opacity="1"><g transform="translate(302.590273, 295.532251)"><g><path d="M 41.949219 -1 C 38.109375 -9.527344 33.957031 -17.976562 30.117188 -26.660156 C 36.261719 -28.886719 41.410156 -33.804688 41.410156 -43.179688 C 41.410156 -61.308594 24.125 -61.464844 20.667969 -61.464844 L 0.769531 -61.464844 C 0.382812 -61.464844 0 -61.078125 0 -60.773438 L 0 -50.324219 L 20.667969 -50.324219 C 22.511719 -50.324219 29.734375 -49.9375 29.734375 -43.179688 C 29.734375 -36.417969 23.203125 -36.109375 20.667969 -36.109375 L 0 -36.109375 L 0 -0.691406 C 0 -0.382812 0.382812 0 0.769531 0 L 10.832031 0 C 11.292969 0 11.679688 -0.382812 11.679688 -0.691406 L 11.679688 -24.816406 L 18.285156 -24.816406 L 29.503906 -0.460938 C 29.578125 -0.230469 30.039062 0 30.269531 0 L 41.257812 0 C 41.871094 0 42.179688 -0.460938 41.949219 -1 Z M 41.949219 -1 "/></g></g></g><g fill="#000000" fill-opacity="1"><g transform="translate(346.755896, 295.532251)"><g><path d="M 12.675781 -39.183594 L 12.675781 -0.691406 C 12.675781 -0.382812 12.984375 0 13.523438 0 L 23.433594 0 C 23.972656 0 24.355469 -0.382812 24.355469 -0.691406 L 24.355469 -39.183594 Z M 0.84375 -50.9375 L 36.109375 -50.9375 C 36.648438 -50.9375 36.957031 -51.246094 36.957031 -51.628906 L 36.957031 -60.773438 C 36.957031 -61.078125 36.648438 -61.464844 36.109375 -61.464844 L 0.84375 -61.464844 C 0.382812 -61.464844 0 -61.078125 0 -60.773438 L 0 -51.628906 C 0 -51.246094 0.382812 -50.9375 0.84375 -50.9375 Z M 0.84375 -50.9375 "/></g></g></g><g fill="#000000" fill-opacity="1"><g transform="translate(385.544812, 295.532251)"><g><path d="M 48.25 -0.921875 L 24.894531 -61.003906 C 24.664062 -61.617188 23.585938 -61.617188 23.355469 -61.003906 L 0.078125 -0.921875 C -0.152344 -0.460938 0.152344 0 0.84375 0 L 11.371094 0 C 11.679688 0 12.0625 -0.152344 12.140625 -0.460938 L 24.125 -34.726562 L 36.261719 -0.460938 C 36.339844 -0.152344 36.726562 0 36.957031 0 L 47.558594 0 C 48.09375 0 48.480469 -0.460938 48.25 -0.921875 Z M 48.25 -0.921875 "/></g></g></g><g fill="#000000" fill-opacity="1"><g transform="translate(436.239268, 295.532251)"><g><path d="M 20.667969 -61.464844 L 0.769531 -61.464844 C 0.382812 -61.464844 0 -61.078125 0 -60.773438 L 0 -50.167969 L 20.667969 -50.167969 C 22.050781 -50.167969 29.734375 -49.785156 29.734375 -43.023438 C 29.734375 -36.261719 22.203125 -36.109375 20.667969 -36.109375 L 0 -36.109375 L 0 -0.691406 C 0 -0.382812 0.382812 0 0.769531 0 L 10.757812 0 C 11.292969 0 11.523438 -0.382812 11.523438 -0.691406 L 11.523438 -24.738281 L 20.667969 -24.738281 C 22.128906 -24.738281 41.410156 -24.96875 41.410156 -43.023438 C 41.410156 -61.078125 23.125 -61.464844 20.667969 -61.464844 Z M 20.667969 -61.464844 "/></g></g></g><g fill="#000000" fill-opacity="1"><g transform="translate(479.713585, 295.532251)"><g><path d="M 48.25 -0.921875 L 24.894531 -61.003906 C 24.664062 -61.617188 23.585938 -61.617188 23.355469 -61.003906 L 0.078125 -0.921875 C -0.152344 -0.460938 0.152344 0 0.84375 0 L 11.371094 0 C 11.679688 0 12.0625 -0.152344 12.140625 -0.460938 L 24.125 -34.726562 L 36.261719 -0.460938 C 36.339844 -0.152344 36.726562 0 36.957031 0 L 47.558594 0 C 48.09375 0 48.480469 -0.460938 48.25 -0.921875 Z M 48.25 -0.921875 "/></g></g></g><g fill="#000000" fill-opacity="1"><g transform="translate(530.408041, 295.532251)"><g><path d="M 20.667969 -61.464844 L 0.769531 -61.464844 C 0.382812 -61.464844 0 -61.078125 0 -60.773438 L 0 -50.167969 L 20.667969 -50.167969 C 22.050781 -50.167969 29.734375 -49.785156 29.734375 -43.023438 C 29.734375 -36.261719 22.203125 -36.109375 20.667969 -36.109375 L 0 -36.109375 L 0 -0.691406 C 0 -0.382812 0.382812 0 0.769531 0 L 10.757812 0 C 11.292969 0 11.523438 -0.382812 11.523438 -0.691406 L 11.523438 -24.738281 L 20.667969 -24.738281 C 22.128906 -24.738281 41.410156 -24.96875 41.410156 -43.023438 C 41.410156 -61.078125 23.125 -61.464844 20.667969 -61.464844 Z M 20.667969 -61.464844 "/></g></g></g><g fill="#000000" fill-opacity="1"><g transform="translate(573.882358, 295.532251)"><g><path d="M 28.195312 -34.113281 C 23.816406 -36.1875 19.515625 -36.1875 19.128906 -36.1875 C 15.210938 -36.1875 11.449219 -38.492188 11.449219 -42.949219 C 11.449219 -47.863281 14.90625 -50.398438 19.128906 -50.398438 C 23.125 -50.398438 26.507812 -48.324219 26.660156 -43.945312 C 26.660156 -43.714844 27.042969 -43.332031 27.503906 -43.332031 L 37.109375 -43.332031 C 37.648438 -43.332031 38.03125 -43.714844 37.953125 -43.945312 C 37.800781 -54.394531 29.65625 -61.464844 19.128906 -61.464844 C 9.296875 -61.464844 0 -54.472656 0 -42.949219 C 0 -35.800781 3.609375 -30.347656 9.988281 -27.429688 C 14.445312 -25.355469 18.59375 -25.355469 19.128906 -25.355469 C 22.589844 -25.199219 26.8125 -22.433594 26.8125 -17.902344 C 26.8125 -13.828125 23.203125 -11.0625 19.128906 -11.0625 C 19.128906 -11.0625 19.128906 -11.0625 19.054688 -11.0625 L 19.054688 0 C 19.128906 0 19.128906 0 19.128906 0 C 28.964844 0 38.183594 -6.375 38.183594 -17.902344 C 38.183594 -25.125 34.648438 -31.117188 28.195312 -34.113281 Z M 28.195312 -34.113281 "/></g></g></g><path stroke-linecap="butt" transform="matrix(0.748733, 0.000000000000000411, -0.000000000000000411, 0.748733, 272.761608, 323.031258)" fill="none" stroke-linejoin="miter" d="M 0.000147514 2.499003 L 413.714628 2.499003 " stroke="#000000" stroke-width="5" stroke-opacity="1" stroke-miterlimit="4"/><path stroke-linecap="butt" transform="matrix(0.748731, -0.00183514, 0.00183514, 0.748731, 266.361081, 308.031822)" fill="none" stroke-linejoin="miter" d="M -0.00042247 3.49995 L 457.122079 3.49867 " stroke="#000000" stroke-width="7" stroke-opacity="1" stroke-miterlimit="4"/></svg>