<svg xmlns="http://www.w3.org/2000/svg" xmlns:xlink="http://www.w3.org/1999/xlink" width="500" zoomAndPan="magnify" viewBox="0 0 375 374.999991" height="500" preserveAspectRatio="xMidYMid meet" version="1.0"><defs><g/><clipPath id="de7f48036a"><path d="M 63 127 L 103 127 L 103 162 L 63 162 Z M 63 127 " clip-rule="nonzero"/></clipPath><clipPath id="87a1010943"><path d="M 82.945312 122.921875 L 102.039062 142.011719 L 82.414062 161.632812 L 63.324219 142.542969 Z M 82.945312 122.921875 " clip-rule="nonzero"/></clipPath><clipPath id="612e7b7a99"><path d="M 82.945312 122.921875 L 122.71875 162.695312 L 81.355469 204.0625 L 41.578125 164.285156 Z M 82.945312 122.921875 " clip-rule="nonzero"/></clipPath><clipPath id="48f3c2d59a"><path d="M 82.945312 122.921875 L 122.71875 162.695312 L 81.355469 204.0625 L 41.578125 164.285156 Z M 82.945312 122.921875 " clip-rule="nonzero"/></clipPath><clipPath id="569c6a6052"><path d="M 49 140 L 98 140 L 98 171 L 49 171 Z M 49 140 " clip-rule="nonzero"/></clipPath><clipPath id="f36b18c5e2"><path d="M 65.960938 140.09375 L 97.25 171.382812 L 73.386719 195.246094 L 42.097656 163.957031 Z M 65.960938 140.09375 " clip-rule="nonzero"/></clipPath><clipPath id="6ea566dc55"><path d="M 84.757812 121.300781 L 125.59375 162.132812 L 83.164062 204.5625 L 42.332031 163.726562 Z M 84.757812 121.300781 " clip-rule="nonzero"/></clipPath><clipPath id="03cea1387d"><path d="M 84.757812 121.300781 L 125.59375 162.132812 L 83.164062 204.5625 L 42.332031 163.726562 Z M 84.757812 121.300781 " clip-rule="nonzero"/></clipPath><clipPath id="0b5a7c014d"><path d="M 79.183594 147 L 85 147 L 85 206 L 79.183594 206 Z M 79.183594 147 " clip-rule="nonzero"/></clipPath><clipPath id="efc39a6241"><path d="M 82 147 L 122.683594 147 L 122.683594 217.109375 L 82 217.109375 Z M 82 147 " clip-rule="nonzero"/></clipPath><clipPath id="0e82372280"><path d="M 82 196 L 99 196 L 99 219 L 82 219 Z M 82 196 " clip-rule="nonzero"/></clipPath><clipPath id="70dd97d7aa"><path d="M 80.023438 215.289062 L 84.976562 196.425781 L 98.03125 199.855469 L 93.082031 218.714844 Z M 80.023438 215.289062 " clip-rule="nonzero"/></clipPath><clipPath id="098f553e49"><path d="M 74.554688 236.132812 L 98.355469 145.453125 L 111.414062 148.882812 L 87.609375 239.558594 Z M 74.554688 236.132812 " clip-rule="nonzero"/></clipPath><clipPath id="f01e62dc51"><path d="M 83 202 L 99 202 L 99 225 L 83 225 Z M 83 202 " clip-rule="nonzero"/></clipPath><clipPath id="39bf54cf42"><path d="M 80.867188 221.015625 L 85.816406 202.15625 L 98.875 205.582031 L 93.921875 224.445312 Z M 80.867188 221.015625 " clip-rule="nonzero"/></clipPath><clipPath id="00d5a064a2"><path d="M 75.394531 241.859375 L 99.195312 151.183594 L 112.253906 154.609375 L 88.453125 245.289062 Z M 75.394531 241.859375 " clip-rule="nonzero"/></clipPath><clipPath id="989cc2ccea"><path d="M 85 202 L 102 202 L 102 225 L 85 225 Z M 85 202 " clip-rule="nonzero"/></clipPath><clipPath id="1a4ef7d67d"><path d="M 83.015625 221.015625 L 87.964844 202.15625 L 101.023438 205.582031 L 96.070312 224.445312 Z M 83.015625 221.015625 " clip-rule="nonzero"/></clipPath><clipPath id="6d4939ca77"><path d="M 77.542969 241.859375 L 101.34375 151.183594 L 114.402344 154.609375 L 90.601562 245.289062 Z M 77.542969 241.859375 " clip-rule="nonzero"/></clipPath><clipPath id="26a1494939"><path d="M 87 202 L 104 202 L 104 225 L 87 225 Z M 87 202 " clip-rule="nonzero"/></clipPath><clipPath id="ca61162fcd"><path d="M 85.164062 221.015625 L 90.113281 202.15625 L 103.171875 205.582031 L 98.21875 224.445312 Z M 85.164062 221.015625 " clip-rule="nonzero"/></clipPath><clipPath id="a577f8765d"><path d="M 79.691406 241.859375 L 103.492188 151.183594 L 116.550781 154.609375 L 92.75 245.289062 Z M 79.691406 241.859375 " clip-rule="nonzero"/></clipPath><clipPath id="e92d3f1c80"><path d="M 88 207 L 105 207 L 105 231 L 88 231 Z M 88 207 " clip-rule="nonzero"/></clipPath><clipPath id="3d06d239ee"><path d="M 86.242188 226.746094 L 91.191406 207.882812 L 104.25 211.3125 L 99.296875 230.171875 Z M 86.242188 226.746094 " clip-rule="nonzero"/></clipPath><clipPath id="3beb708e67"><path d="M 80.769531 247.589844 L 104.570312 156.910156 L 117.628906 160.339844 L 93.828125 251.015625 Z M 80.769531 247.589844 " clip-rule="nonzero"/></clipPath><clipPath id="6d2b2561af"><path d="M 95.320312 156.105469 L 110.734375 156.105469 L 110.734375 171.519531 L 95.320312 171.519531 Z M 95.320312 156.105469 " clip-rule="nonzero"/></clipPath><clipPath id="12c62f09dd"><path d="M 103.027344 156.105469 C 98.769531 156.105469 95.320312 159.554688 95.320312 163.8125 C 95.320312 168.066406 98.769531 171.519531 103.027344 171.519531 C 107.285156 171.519531 110.734375 168.066406 110.734375 163.8125 C 110.734375 159.554688 107.285156 156.105469 103.027344 156.105469 Z M 103.027344 156.105469 " clip-rule="nonzero"/></clipPath><clipPath id="ca030e132f"><path d="M 96 155 L 103 155 L 103 163 L 96 163 Z M 96 155 " clip-rule="nonzero"/></clipPath><clipPath id="bb389cab23"><path d="M 102.667969 154.941406 L 102.808594 162.464844 L 96.230469 162.589844 L 96.09375 155.0625 Z M 102.667969 154.941406 " clip-rule="nonzero"/></clipPath><clipPath id="958d61eee6"><path d="M 102.738281 158.699219 L 96.230469 162.578125 L 96.09375 155.0625 Z M 102.738281 158.699219 " clip-rule="nonzero"/></clipPath><clipPath id="de6553086e"><path d="M 101.730469 155.046875 L 108.304688 155.046875 L 108.304688 162.574219 L 101.730469 162.574219 Z M 101.730469 155.046875 " clip-rule="nonzero"/></clipPath><clipPath id="ae5c12eebb"><path d="M 101.730469 158.8125 L 108.304688 155.054688 L 108.304688 162.574219 Z M 101.730469 158.8125 " clip-rule="nonzero"/></clipPath><clipPath id="7478f77d7f"><path d="M 101.46875 162.011719 L 103.324219 162.011719 L 103.324219 163.664062 L 101.46875 163.664062 Z M 101.46875 162.011719 " clip-rule="nonzero"/></clipPath><clipPath id="f86758b9f9"><path d="M 102.394531 162.011719 C 101.882812 162.011719 101.46875 162.382812 101.46875 162.839844 C 101.46875 163.296875 101.882812 163.664062 102.394531 163.664062 C 102.90625 163.664062 103.324219 163.296875 103.324219 162.839844 C 103.324219 162.382812 102.90625 162.011719 102.394531 162.011719 Z M 102.394531 162.011719 " clip-rule="nonzero"/></clipPath><clipPath id="6fa771afed"><path d="M 100.921875 157.539062 L 103.480469 157.539062 L 103.480469 160.097656 L 100.921875 160.097656 Z M 100.921875 157.539062 " clip-rule="nonzero"/></clipPath><clipPath id="abc7510cc5"><path d="M 102.203125 157.539062 C 101.496094 157.539062 100.921875 158.109375 100.921875 158.816406 C 100.921875 159.523438 101.496094 160.097656 102.203125 160.097656 C 102.90625 160.097656 103.480469 159.523438 103.480469 158.816406 C 103.480469 158.109375 102.90625 157.539062 102.203125 157.539062 Z M 102.203125 157.539062 " clip-rule="nonzero"/></clipPath><clipPath id="b69aea5a50"><path d="M 101.625 165.035156 L 103.484375 165.035156 L 103.484375 166.6875 L 101.625 166.6875 Z M 101.625 165.035156 " clip-rule="nonzero"/></clipPath><clipPath id="7f03e8ee36"><path d="M 102.550781 165.035156 C 102.039062 165.035156 101.625 165.40625 101.625 165.863281 C 101.625 166.316406 102.039062 166.6875 102.550781 166.6875 C 103.066406 166.6875 103.480469 166.316406 103.480469 165.863281 C 103.480469 165.40625 103.066406 165.035156 102.550781 165.035156 Z M 102.550781 165.035156 " clip-rule="nonzero"/></clipPath><clipPath id="ecfce238ff"><path d="M 122.652344 193.910156 L 308.511719 193.910156 L 308.511719 218.660156 L 122.652344 218.660156 Z M 122.652344 193.910156 " clip-rule="nonzero"/></clipPath></defs><path stroke-linecap="butt" transform="matrix(0, -0.75, 0.75, 0, 72.846012, 195.341414)" fill="none" stroke-linejoin="miter" d="M 0.0020931 1.002193 L 26.147928 1.002193 " stroke="#000000" stroke-width="2" stroke-opacity="1" stroke-miterlimit="4"/><g fill="#000000" fill-opacity="1"><g transform="translate(48.163222, 184.241496)"><g><path d="M 2.921875 0.078125 C 2.234375 0.078125 1.707031 -0.0976562 1.34375 -0.453125 C 0.988281 -0.804688 0.8125 -1.328125 0.8125 -2.015625 L 0.8125 -5.671875 L 1.46875 -5.671875 L 1.46875 -2.03125 C 1.46875 -1.53125 1.585938 -1.15625 1.828125 -0.90625 C 2.066406 -0.65625 2.429688 -0.53125 2.921875 -0.53125 C 3.890625 -0.53125 4.375 -1.03125 4.375 -2.03125 L 4.375 -5.671875 L 5.046875 -5.671875 L 5.046875 -2.015625 C 5.046875 -1.328125 4.863281 -0.804688 4.5 -0.453125 C 4.144531 -0.0976562 3.617188 0.078125 2.921875 0.078125 Z M 2.921875 0.078125 "/></g></g><g transform="translate(54.0122, 184.241496)"><g><path d="M 0.859375 0 L 0.859375 -5.671875 L 3.015625 -5.671875 C 3.359375 -5.671875 3.648438 -5.613281 3.890625 -5.5 C 4.140625 -5.394531 4.328125 -5.238281 4.453125 -5.03125 C 4.578125 -4.820312 4.640625 -4.578125 4.640625 -4.296875 C 4.640625 -4.054688 4.570312 -3.832031 4.4375 -3.625 C 4.300781 -3.425781 4.109375 -3.273438 3.859375 -3.171875 L 3.859375 -3.078125 C 4.234375 -2.984375 4.519531 -2.8125 4.71875 -2.5625 C 4.914062 -2.320312 5.015625 -2.015625 5.015625 -1.640625 C 5.015625 -1.117188 4.859375 -0.710938 4.546875 -0.421875 C 4.234375 -0.140625 3.773438 0 3.171875 0 Z M 2.984375 -3.296875 C 3.296875 -3.296875 3.535156 -3.375 3.703125 -3.53125 C 3.878906 -3.695312 3.96875 -3.925781 3.96875 -4.21875 C 3.96875 -4.519531 3.882812 -4.742188 3.71875 -4.890625 C 3.550781 -5.046875 3.304688 -5.125 2.984375 -5.125 L 1.53125 -5.125 L 1.53125 -3.296875 Z M 3.125 -0.546875 C 3.925781 -0.546875 4.328125 -0.910156 4.328125 -1.640625 C 4.328125 -2.367188 3.925781 -2.734375 3.125 -2.734375 L 1.53125 -2.734375 L 1.53125 -0.546875 Z M 3.125 -0.546875 "/></g></g><g transform="translate(59.473057, 184.241496)"><g><path d="M 1.53125 -2.671875 L 1.53125 -0.546875 L 4.421875 -0.546875 L 4.421875 0 L 0.859375 0 L 0.859375 -5.671875 L 4.359375 -5.671875 L 4.359375 -5.125 L 1.53125 -5.125 L 1.53125 -3.234375 L 4.015625 -3.234375 L 4.015625 -2.671875 Z M 1.53125 -2.671875 "/></g></g><g transform="translate(64.266346, 184.241496)"><g><path d="M 3.140625 0.078125 C 2.640625 0.078125 2.195312 -0.0351562 1.8125 -0.265625 C 1.425781 -0.492188 1.117188 -0.828125 0.890625 -1.265625 C 0.671875 -1.703125 0.5625 -2.226562 0.5625 -2.84375 C 0.5625 -3.457031 0.671875 -3.984375 0.890625 -4.421875 C 1.117188 -4.859375 1.425781 -5.191406 1.8125 -5.421875 C 2.195312 -5.648438 2.640625 -5.765625 3.140625 -5.765625 C 3.671875 -5.765625 4.109375 -5.660156 4.453125 -5.453125 C 4.804688 -5.253906 5.0625 -4.953125 5.21875 -4.546875 L 4.796875 -4.265625 L 4.703125 -4.265625 C 4.546875 -4.585938 4.34375 -4.816406 4.09375 -4.953125 C 3.84375 -5.085938 3.523438 -5.15625 3.140625 -5.15625 C 2.785156 -5.15625 2.46875 -5.078125 2.1875 -4.921875 C 1.90625 -4.765625 1.679688 -4.507812 1.515625 -4.15625 C 1.359375 -3.8125 1.28125 -3.375 1.28125 -2.84375 C 1.28125 -2.300781 1.359375 -1.859375 1.515625 -1.515625 C 1.679688 -1.171875 1.90625 -0.914062 2.1875 -0.75 C 2.46875 -0.59375 2.785156 -0.515625 3.140625 -0.515625 C 3.546875 -0.515625 3.878906 -0.609375 4.140625 -0.796875 C 4.410156 -0.984375 4.609375 -1.285156 4.734375 -1.703125 L 4.828125 -1.703125 L 5.28125 -1.46875 C 5.144531 -0.96875 4.894531 -0.582031 4.53125 -0.3125 C 4.164062 -0.0507812 3.703125 0.078125 3.140625 0.078125 Z M 3.140625 0.078125 "/></g></g></g><g fill="#000000" fill-opacity="1"><g transform="translate(33.073093, 193.514991)"><g><path d="M 3.140625 0.078125 C 2.640625 0.078125 2.195312 -0.0351562 1.8125 -0.265625 C 1.425781 -0.492188 1.117188 -0.828125 0.890625 -1.265625 C 0.671875 -1.703125 0.5625 -2.226562 0.5625 -2.84375 C 0.5625 -3.457031 0.671875 -3.984375 0.890625 -4.421875 C 1.117188 -4.859375 1.425781 -5.191406 1.8125 -5.421875 C 2.195312 -5.648438 2.640625 -5.765625 3.140625 -5.765625 C 3.671875 -5.765625 4.109375 -5.660156 4.453125 -5.453125 C 4.804688 -5.253906 5.0625 -4.953125 5.21875 -4.546875 L 4.796875 -4.265625 L 4.703125 -4.265625 C 4.546875 -4.585938 4.34375 -4.816406 4.09375 -4.953125 C 3.84375 -5.085938 3.523438 -5.15625 3.140625 -5.15625 C 2.785156 -5.15625 2.46875 -5.078125 2.1875 -4.921875 C 1.90625 -4.765625 1.679688 -4.507812 1.515625 -4.15625 C 1.359375 -3.8125 1.28125 -3.375 1.28125 -2.84375 C 1.28125 -2.300781 1.359375 -1.859375 1.515625 -1.515625 C 1.679688 -1.171875 1.90625 -0.914062 2.1875 -0.75 C 2.46875 -0.59375 2.785156 -0.515625 3.140625 -0.515625 C 3.546875 -0.515625 3.878906 -0.609375 4.140625 -0.796875 C 4.410156 -0.984375 4.609375 -1.285156 4.734375 -1.703125 L 4.828125 -1.703125 L 5.28125 -1.46875 C 5.144531 -0.96875 4.894531 -0.582031 4.53125 -0.3125 C 4.164062 -0.0507812 3.703125 0.078125 3.140625 0.078125 Z M 3.140625 0.078125 "/></g></g><g transform="translate(38.638742, 193.514991)"><g><path d="M 4.484375 -3.375 L 4.484375 -5.671875 L 5.140625 -5.671875 L 5.140625 0 L 4.484375 0 L 4.484375 -2.8125 L 1.53125 -2.8125 L 1.53125 0 L 0.859375 0 L 0.859375 -5.671875 L 1.53125 -5.671875 L 1.53125 -3.375 Z M 4.484375 -3.375 "/></g></g><g transform="translate(44.639087, 193.514991)"><g><path d="M 5.109375 0 L 4.390625 0 L 3.875 -1.5625 L 1.453125 -1.5625 L 0.921875 0 L 0.21875 0 L 2.203125 -5.671875 L 3.125 -5.671875 Z M 2.609375 -4.984375 L 1.640625 -2.109375 L 3.6875 -2.109375 L 2.703125 -4.984375 Z M 2.609375 -4.984375 "/></g></g><g transform="translate(49.971864, 193.514991)"><g><path d="M 2.890625 -5.671875 C 3.273438 -5.671875 3.609375 -5.601562 3.890625 -5.46875 C 4.171875 -5.332031 4.382812 -5.132812 4.53125 -4.875 C 4.675781 -4.613281 4.75 -4.304688 4.75 -3.953125 C 4.75 -3.597656 4.675781 -3.289062 4.53125 -3.03125 C 4.382812 -2.769531 4.171875 -2.566406 3.890625 -2.421875 C 3.609375 -2.285156 3.273438 -2.21875 2.890625 -2.21875 L 1.53125 -2.21875 L 1.53125 0 L 0.859375 0 L 0.859375 -5.671875 Z M 2.875 -2.796875 C 3.65625 -2.796875 4.046875 -3.179688 4.046875 -3.953125 C 4.046875 -4.722656 3.65625 -5.109375 2.875 -5.109375 L 1.53125 -5.109375 L 1.53125 -2.796875 Z M 2.875 -2.796875 "/></g></g><g transform="translate(55.145512, 193.514991)"><g><path d="M 4.4375 -5.671875 L 4.4375 -5.109375 L 2.65625 -5.109375 L 2.65625 0 L 1.984375 0 L 1.984375 -5.109375 L 0.203125 -5.109375 L 0.203125 -5.671875 Z M 4.4375 -5.671875 "/></g></g><g transform="translate(59.779672, 193.514991)"><g><path d="M 1.53125 -2.671875 L 1.53125 -0.546875 L 4.421875 -0.546875 L 4.421875 0 L 0.859375 0 L 0.859375 -5.671875 L 4.359375 -5.671875 L 4.359375 -5.125 L 1.53125 -5.125 L 1.53125 -3.234375 L 4.015625 -3.234375 L 4.015625 -2.671875 Z M 1.53125 -2.671875 "/></g></g><g transform="translate(64.572962, 193.514991)"><g><path d="M 0.859375 0 L 0.859375 -5.671875 L 2.921875 -5.671875 C 3.296875 -5.671875 3.613281 -5.609375 3.875 -5.484375 C 4.132812 -5.359375 4.328125 -5.179688 4.453125 -4.953125 C 4.585938 -4.722656 4.65625 -4.453125 4.65625 -4.140625 C 4.65625 -3.785156 4.566406 -3.492188 4.390625 -3.265625 C 4.210938 -3.035156 3.9375 -2.863281 3.5625 -2.75 L 3.5625 -2.671875 C 3.75 -2.597656 3.898438 -2.484375 4.015625 -2.328125 C 4.128906 -2.171875 4.238281 -1.941406 4.34375 -1.640625 L 4.859375 0 L 4.171875 0 L 3.609375 -1.734375 C 3.546875 -1.941406 3.46875 -2.101562 3.375 -2.21875 C 3.289062 -2.332031 3.179688 -2.414062 3.046875 -2.46875 C 2.910156 -2.519531 2.738281 -2.546875 2.53125 -2.546875 L 1.53125 -2.546875 L 1.53125 0 Z M 2.90625 -3.109375 C 3.257812 -3.109375 3.519531 -3.191406 3.6875 -3.359375 C 3.863281 -3.523438 3.953125 -3.773438 3.953125 -4.109375 C 3.953125 -4.453125 3.863281 -4.703125 3.6875 -4.859375 C 3.519531 -5.023438 3.257812 -5.109375 2.90625 -5.109375 L 1.53125 -5.109375 L 1.53125 -3.109375 Z M 2.90625 -3.109375 "/></g></g></g><g fill="#000000" fill-opacity="1"><g transform="translate(69.835877, 193.514991)"><g/></g><g transform="translate(71.784243, 193.514991)"><g/></g></g><g clip-path="url(#de7f48036a)"><g clip-path="url(#87a1010943)"><g clip-path="url(#612e7b7a99)"><g clip-path="url(#48f3c2d59a)"><path fill="#000000" d="M 111.738281 161.746094 L 83.898438 146.308594 C 83.5 146.070312 83.023438 145.914062 82.625 145.832031 L 82.625 144.082031 C 87.238281 143.449219 90.417969 138.992188 89.304688 134.222656 C 88.03125 128.335938 80.953125 126.027344 76.5 129.6875 C 74.589844 131.277344 73.476562 133.503906 73.476562 136.046875 C 73.476562 136.683594 73.953125 137.164062 74.589844 137.164062 C 75.226562 137.164062 75.703125 136.683594 75.703125 136.050781 C 75.703125 134.140625 76.5 132.550781 77.851562 131.355469 C 81.113281 128.890625 86.203125 130.324219 87.15625 134.617188 C 88.03125 138.355469 85.167969 141.855469 81.511719 141.855469 C 80.875 141.855469 80.398438 142.332031 80.398438 142.96875 L 80.398438 145.832031 C 80 145.914062 79.523438 146.070312 79.125 146.308594 L 51.289062 161.738281 C 46.914062 164.203125 48.585938 170.960938 53.675781 170.964844 C 54.3125 170.964844 54.789062 170.484375 54.789062 169.851562 C 54.789062 169.214844 54.3125 168.738281 53.675781 168.734375 C 50.972656 168.734375 50.015625 165.078125 52.402344 163.804688 L 80.238281 148.378906 C 81.035156 147.902344 81.988281 147.902344 82.785156 148.378906 L 110.703125 163.734375 C 113.089844 165.007812 112.136719 168.664062 109.433594 168.664062 C 108.796875 168.664062 108.320312 169.140625 108.320312 169.777344 C 108.320312 170.414062 108.796875 170.890625 109.433594 170.890625 C 114.445312 170.972656 116.113281 164.210938 111.738281 161.746094 Z M 111.738281 161.746094 " fill-opacity="1" fill-rule="nonzero"/></g></g></g></g><g clip-path="url(#569c6a6052)"><g clip-path="url(#f36b18c5e2)"><g clip-path="url(#6ea566dc55)"><g clip-path="url(#03cea1387d)"><path fill="#000000" d="M 114.320312 161.152344 L 85.746094 145.300781 C 85.335938 145.054688 84.847656 144.894531 84.4375 144.8125 L 84.4375 143.015625 C 89.171875 142.367188 92.433594 137.796875 91.285156 132.898438 C 89.976562 126.859375 82.710938 124.488281 78.144531 128.238281 C 76.1875 129.871094 75.042969 132.15625 75.046875 134.765625 C 75.046875 135.417969 75.535156 135.910156 76.191406 135.910156 C 76.84375 135.910156 77.332031 135.421875 77.332031 134.769531 C 77.332031 132.808594 78.144531 131.175781 79.53125 129.953125 C 82.875 127.425781 88.101562 128.898438 89.082031 133.304688 C 89.984375 137.144531 87.046875 140.730469 83.292969 140.730469 C 82.640625 140.730469 82.152344 141.21875 82.152344 141.871094 L 82.152344 144.808594 C 81.746094 144.890625 81.257812 145.054688 80.847656 145.296875 L 52.292969 161.113281 C 47.804688 163.640625 49.523438 170.578125 54.746094 170.582031 C 55.402344 170.582031 55.890625 170.09375 55.890625 169.441406 C 55.890625 168.789062 55.398438 168.296875 54.746094 168.296875 C 51.972656 168.296875 50.988281 164.539062 53.4375 163.234375 L 81.992188 147.421875 C 82.808594 146.933594 83.789062 146.933594 84.605469 147.421875 L 113.261719 163.195312 C 115.710938 164.5 114.734375 168.253906 111.960938 168.253906 C 111.304688 168.253906 110.816406 168.742188 110.816406 169.394531 C 110.816406 170.046875 111.308594 170.539062 111.960938 170.539062 C 117.101562 170.625 118.8125 163.6875 114.320312 161.152344 Z M 114.320312 161.152344 " fill-opacity="1" fill-rule="nonzero"/></g></g></g></g><g clip-path="url(#0b5a7c014d)"><path fill="#000000" d="M 84.210938 190.476562 C 82.957031 195.269531 82.007812 200.121094 81.363281 205.035156 C 79.910156 202.070312 79.183594 198.941406 79.183594 195.644531 L 79.183594 147.359375 L 84.210938 147.359375 Z M 84.210938 190.476562 " fill-opacity="1" fill-rule="nonzero"/></g><path fill="#000000" d="M 108.097656 162.984375 C 108.097656 163.351562 108.0625 163.71875 107.988281 164.082031 C 107.917969 164.441406 107.808594 164.792969 107.667969 165.136719 C 107.523438 165.476562 107.351562 165.800781 107.144531 166.109375 C 106.9375 166.414062 106.703125 166.699219 106.441406 166.960938 C 106.179688 167.222656 105.894531 167.457031 105.582031 167.660156 C 105.273438 167.867188 104.949219 168.039062 104.605469 168.179688 C 104.261719 168.320312 103.910156 168.429688 103.542969 168.5 C 103.179688 168.570312 102.8125 168.609375 102.441406 168.609375 C 102.070312 168.609375 101.703125 168.570312 101.335938 168.5 C 100.972656 168.429688 100.617188 168.320312 100.277344 168.179688 C 99.933594 168.039062 99.605469 167.867188 99.296875 167.660156 C 98.988281 167.457031 98.703125 167.222656 98.441406 166.960938 C 98.175781 166.699219 97.941406 166.414062 97.738281 166.109375 C 97.53125 165.800781 97.355469 165.476562 97.214844 165.136719 C 97.070312 164.792969 96.964844 164.441406 96.890625 164.082031 C 96.820312 163.71875 96.785156 163.351562 96.785156 162.984375 C 96.785156 162.613281 96.820312 162.25 96.890625 161.886719 C 96.964844 161.523438 97.070312 161.171875 97.214844 160.832031 C 97.355469 160.488281 97.53125 160.164062 97.738281 159.859375 C 97.941406 159.550781 98.175781 159.265625 98.441406 159.003906 C 98.703125 158.746094 98.988281 158.511719 99.296875 158.304688 C 99.605469 158.101562 99.933594 157.929688 100.277344 157.785156 C 100.617188 157.644531 100.972656 157.539062 101.335938 157.464844 C 101.703125 157.394531 102.070312 157.359375 102.441406 157.359375 C 102.8125 157.359375 103.179688 157.394531 103.542969 157.464844 C 103.910156 157.539062 104.261719 157.644531 104.605469 157.785156 C 104.949219 157.929688 105.273438 158.101562 105.582031 158.304688 C 105.894531 158.511719 106.179688 158.746094 106.441406 159.003906 C 106.703125 159.265625 106.9375 159.550781 107.144531 159.859375 C 107.351562 160.164062 107.523438 160.488281 107.667969 160.832031 C 107.808594 161.171875 107.917969 161.523438 107.988281 161.886719 C 108.0625 162.25 108.097656 162.613281 108.097656 162.984375 Z M 108.097656 162.984375 " fill-opacity="1" fill-rule="nonzero"/><path fill="#000000" d="M 111.871094 194.234375 C 111.871094 194.847656 111.808594 195.457031 111.6875 196.0625 C 111.566406 196.664062 111.390625 197.253906 111.152344 197.820312 C 110.914062 198.390625 110.625 198.929688 110.28125 199.441406 C 109.9375 199.953125 109.546875 200.425781 109.109375 200.863281 C 108.671875 201.296875 108.195312 201.6875 107.679688 202.027344 C 107.164062 202.371094 106.621094 202.660156 106.050781 202.894531 C 105.476562 203.128906 104.886719 203.308594 104.28125 203.429688 C 103.671875 203.546875 103.058594 203.609375 102.441406 203.609375 C 101.820312 203.609375 101.207031 203.546875 100.601562 203.429688 C 99.992188 203.308594 99.40625 203.128906 98.832031 202.894531 C 98.261719 202.660156 97.71875 202.371094 97.203125 202.027344 C 96.6875 201.6875 96.210938 201.296875 95.773438 200.863281 C 95.335938 200.425781 94.945312 199.953125 94.601562 199.441406 C 94.257812 198.929688 93.964844 198.390625 93.730469 197.820312 C 93.492188 197.253906 93.3125 196.664062 93.191406 196.0625 C 93.070312 195.457031 93.011719 194.847656 93.011719 194.234375 C 93.011719 193.617188 93.070312 193.007812 93.191406 192.402344 C 93.3125 191.800781 93.492188 191.214844 93.730469 190.644531 C 93.964844 190.078125 94.257812 189.535156 94.601562 189.023438 C 94.945312 188.511719 95.335938 188.039062 95.773438 187.605469 C 96.210938 187.167969 96.6875 186.78125 97.203125 186.4375 C 97.71875 186.097656 98.261719 185.808594 98.832031 185.570312 C 99.40625 185.335938 99.992188 185.160156 100.601562 185.039062 C 101.207031 184.917969 101.820312 184.859375 102.441406 184.859375 C 103.058594 184.859375 103.671875 184.917969 104.28125 185.039062 C 104.886719 185.160156 105.476562 185.335938 106.050781 185.570312 C 106.621094 185.808594 107.164062 186.097656 107.679688 186.4375 C 108.195312 186.78125 108.671875 187.167969 109.109375 187.605469 C 109.546875 188.039062 109.9375 188.511719 110.28125 189.023438 C 110.625 189.535156 110.914062 190.078125 111.152344 190.644531 C 111.390625 191.214844 111.566406 191.800781 111.6875 192.402344 C 111.808594 193.007812 111.871094 193.617188 111.871094 194.234375 Z M 111.871094 194.234375 " fill-opacity="1" fill-rule="nonzero"/><g clip-path="url(#efc39a6241)"><path fill="#000000" d="M 102.59375 174.199219 C 101.597656 174.113281 100.632812 173.890625 99.703125 173.53125 L 98.652344 173.132812 C 97.644531 172.773438 96.714844 172.273438 95.855469 171.644531 C 94.996094 171.011719 94.242188 170.273438 93.601562 169.421875 C 92.957031 168.574219 92.453125 167.652344 92.078125 166.65625 C 91.707031 165.660156 91.484375 164.632812 91.414062 163.570312 C 91.398438 163.101562 91.414062 162.628906 91.457031 162.160156 C 91.503906 161.6875 91.578125 161.222656 91.683594 160.761719 C 91.792969 160.304688 91.925781 159.851562 92.09375 159.410156 C 92.257812 158.964844 92.449219 158.535156 92.671875 158.117188 C 92.890625 157.699219 93.140625 157.296875 93.414062 156.910156 C 93.6875 156.523438 93.984375 156.160156 94.304688 155.8125 C 94.625 155.464844 94.96875 155.136719 95.332031 154.832031 C 95.695312 154.53125 96.078125 154.25 96.476562 153.996094 C 96.878906 153.742188 97.292969 153.515625 97.722656 153.316406 C 98.152344 153.113281 98.59375 152.941406 99.046875 152.796875 C 99.5 152.652344 99.957031 152.539062 100.425781 152.453125 C 100.894531 152.371094 101.363281 152.316406 101.839844 152.292969 C 102.3125 152.269531 102.785156 152.273438 103.261719 152.3125 C 103.734375 152.347656 104.203125 152.417969 104.667969 152.515625 C 105.132812 152.613281 105.589844 152.738281 106.035156 152.894531 C 106.484375 153.050781 106.921875 153.238281 107.34375 153.449219 C 108.035156 153.796875 108.683594 154.210938 109.285156 154.695312 C 109.890625 155.179688 110.433594 155.71875 110.921875 156.316406 C 111.410156 156.914062 111.832031 157.558594 112.183594 158.242188 C 112.535156 158.929688 112.8125 159.644531 113.011719 160.390625 C 113.210938 161.132812 113.328125 161.890625 113.367188 162.660156 C 113.40625 163.429688 113.363281 164.191406 113.238281 164.953125 C 113.117188 165.714844 112.914062 166.453125 112.632812 167.171875 C 112.351562 167.886719 111.996094 168.570312 111.570312 169.210938 L 115.773438 171.960938 C 116.117188 171.441406 116.429688 170.898438 116.710938 170.34375 C 116.992188 169.785156 117.242188 169.210938 117.457031 168.625 C 117.667969 168.039062 117.847656 167.441406 117.992188 166.832031 C 118.132812 166.226562 118.242188 165.613281 118.3125 164.992188 C 118.382812 164.371094 118.414062 163.75 118.414062 163.125 C 118.410156 162.5 118.371094 161.878906 118.292969 161.257812 C 118.214844 160.640625 118.105469 160.027344 117.953125 159.421875 C 117.804688 158.816406 117.621094 158.21875 117.402344 157.632812 C 117.183594 157.050781 116.929688 156.480469 116.640625 155.925781 C 116.355469 155.371094 116.035156 154.832031 115.6875 154.316406 C 115.335938 153.796875 114.957031 153.300781 114.546875 152.828125 C 114.140625 152.355469 113.703125 151.90625 113.242188 151.484375 C 112.78125 151.0625 112.292969 150.667969 111.785156 150.300781 C 111.277344 149.933594 110.75 149.601562 110.199219 149.296875 C 109.652344 148.992188 109.089844 148.71875 108.507812 148.480469 C 107.929688 148.242188 107.335938 148.039062 106.730469 147.871094 C 106.128906 147.703125 105.515625 147.570312 104.894531 147.472656 C 104.273438 147.375 103.652344 147.3125 103.023438 147.289062 C 102.398438 147.265625 101.769531 147.277344 101.144531 147.324219 C 100.519531 147.375 99.898438 147.460938 99.28125 147.582031 C 98.667969 147.703125 98.058594 147.859375 97.460938 148.050781 C 96.867188 148.242188 96.28125 148.46875 95.710938 148.730469 C 95.140625 148.992188 94.585938 149.285156 94.050781 149.609375 C 93.515625 149.933594 93 150.289062 92.507812 150.675781 C 92.011719 151.058594 91.542969 151.472656 91.097656 151.914062 C 90.652344 152.351562 90.238281 152.816406 89.847656 153.304688 C 89.457031 153.796875 89.097656 154.304688 88.765625 154.835938 C 88.4375 155.367188 88.140625 155.917969 87.875 156.480469 C 87.609375 157.046875 87.378906 157.628906 87.183594 158.21875 C 86.988281 158.8125 86.824219 159.414062 86.699219 160.027344 C 86.574219 160.636719 86.488281 161.253906 86.433594 161.875 C 86.382812 162.5 86.367188 163.121094 86.386719 163.746094 C 86.425781 164.519531 86.523438 165.285156 86.675781 166.042969 C 86.828125 166.804688 87.035156 167.546875 87.296875 168.277344 C 87.558594 169.003906 87.875 169.710938 88.242188 170.394531 C 88.609375 171.078125 89.023438 171.730469 89.488281 172.351562 C 89.949219 172.972656 90.457031 173.558594 91.007812 174.105469 C 91.558594 174.652344 92.144531 175.160156 92.769531 175.621094 C 93.394531 176.082031 94.050781 176.496094 94.734375 176.863281 C 95.421875 177.230469 96.128906 177.542969 96.863281 177.804688 L 97.914062 178.203125 C 99.292969 178.730469 100.714844 179.058594 102.1875 179.183594 C 103.253906 179.269531 104.304688 179.460938 105.335938 179.75 C 106.367188 180.039062 107.359375 180.421875 108.316406 180.902344 C 109.273438 181.382812 110.175781 181.953125 111.019531 182.605469 C 111.867188 183.261719 112.640625 183.988281 113.347656 184.792969 C 114.050781 185.59375 114.671875 186.457031 115.207031 187.378906 C 115.742188 188.304688 116.1875 189.269531 116.535156 190.277344 C 116.882812 191.285156 117.128906 192.316406 117.277344 193.371094 C 117.425781 194.425781 117.46875 195.484375 117.410156 196.550781 C 117.351562 197.613281 117.191406 198.660156 116.929688 199.695312 C 116.667969 200.726562 116.308594 201.726562 115.851562 202.691406 C 115.394531 203.652344 114.847656 204.566406 114.214844 205.425781 C 113.578125 206.28125 112.867188 207.074219 112.078125 207.796875 C 111.292969 208.515625 110.441406 209.15625 109.527344 209.714844 C 108.613281 210.273438 107.65625 210.738281 106.652344 211.113281 C 105.648438 211.488281 104.621094 211.761719 103.5625 211.9375 C 102.503906 212.113281 101.441406 212.1875 100.371094 212.15625 C 99.296875 212.128906 98.238281 211.996094 97.195312 211.765625 C 96.148438 211.53125 95.136719 211.203125 94.152344 210.773438 C 93.171875 210.34375 92.242188 209.828125 91.359375 209.222656 C 90.480469 208.613281 89.664062 207.929688 88.917969 207.164062 C 88.171875 206.402344 87.503906 205.574219 86.917969 204.679688 C 86.332031 203.789062 85.835938 202.851562 85.433594 201.863281 C 85.03125 200.875 84.726562 199.859375 84.519531 198.8125 C 84.3125 197.765625 84.210938 196.710938 84.210938 195.644531 L 84.210938 194.554688 C 83.273438 198.503906 82.589844 202.5 82.167969 206.535156 C 83.1875 208.265625 84.425781 209.820312 85.878906 211.207031 C 86.871094 212.160156 87.949219 213.003906 89.105469 213.75 C 90.265625 214.492188 91.484375 215.121094 92.761719 215.628906 C 94.042969 216.140625 95.359375 216.523438 96.710938 216.78125 C 98.066406 217.039062 99.433594 217.167969 100.8125 217.164062 C 101.152344 217.164062 101.496094 217.15625 101.84375 217.140625 C 102.523438 217.109375 103.199219 217.046875 103.871094 216.949219 C 104.542969 216.855469 105.210938 216.726562 105.871094 216.570312 C 106.53125 216.414062 107.183594 216.226562 107.828125 216.007812 C 108.46875 215.789062 109.101562 215.539062 109.722656 215.261719 C 110.339844 214.984375 110.945312 214.675781 111.535156 214.34375 C 112.125 214.007812 112.699219 213.648438 113.257812 213.257812 C 113.8125 212.871094 114.351562 212.457031 114.867188 212.019531 C 115.382812 211.582031 115.878906 211.117188 116.351562 210.632812 C 116.824219 210.148438 117.273438 209.644531 117.699219 209.117188 C 118.125 208.589844 118.527344 208.042969 118.898438 207.480469 C 119.273438 206.914062 119.621094 206.332031 119.9375 205.738281 C 120.257812 205.140625 120.546875 204.53125 120.808594 203.90625 C 121.070312 203.28125 121.300781 202.648438 121.5 202 C 121.699219 201.355469 121.871094 200.703125 122.007812 200.039062 C 122.148438 199.378906 122.253906 198.710938 122.332031 198.039062 C 122.40625 197.367188 122.449219 196.695312 122.460938 196.019531 C 122.472656 195.34375 122.453125 194.667969 122.402344 193.996094 C 122.347656 193.320312 122.265625 192.652344 122.148438 191.984375 C 122.035156 191.320312 121.886719 190.660156 121.710938 190.007812 C 121.53125 189.355469 121.324219 188.714844 121.085938 188.082031 C 120.84375 187.449219 120.578125 186.828125 120.277344 186.222656 C 119.980469 185.613281 119.65625 185.023438 119.300781 184.445312 C 118.949219 183.867188 118.566406 183.308594 118.160156 182.765625 C 117.753906 182.226562 117.324219 181.703125 116.867188 181.203125 C 116.410156 180.703125 115.933594 180.222656 115.429688 179.769531 C 114.929688 179.3125 114.40625 178.878906 113.863281 178.472656 C 113.320312 178.066406 112.761719 177.683594 112.183594 177.332031 C 111.605469 176.976562 111.011719 176.648438 110.402344 176.347656 C 109.792969 176.050781 109.167969 175.78125 108.535156 175.539062 C 107.898438 175.300781 107.253906 175.089844 106.597656 174.90625 C 105.945312 174.726562 105.28125 174.578125 104.613281 174.460938 C 103.945312 174.339844 103.269531 174.253906 102.59375 174.199219 Z M 102.59375 174.199219 " fill-opacity="1" fill-rule="nonzero"/></g><g clip-path="url(#0e82372280)"><g clip-path="url(#70dd97d7aa)"><g clip-path="url(#098f553e49)"><path fill="#ffffff" d="M 87.492188 239.527344 C 85.414062 234.742188 84.023438 230.09375 83.308594 225.585938 C 82.601562 221.078125 82.425781 216.527344 82.789062 211.929688 C 83.148438 207.332031 83.976562 202.617188 85.265625 197.789062 C 86.550781 192.964844 88.164062 187.796875 90.101562 182.296875 C 91.589844 178.035156 92.996094 173.96875 94.324219 170.097656 C 95.648438 166.226562 96.734375 162.671875 97.585938 159.4375 L 97.613281 159.320312 C 98.058594 157.628906 98.40625 156.113281 98.652344 154.777344 C 98.902344 153.441406 99.066406 152.230469 99.144531 151.136719 C 99.320312 148.757812 99.0625 147.0625 98.378906 146.058594 C 98.265625 145.863281 98.296875 145.75 98.46875 145.714844 C 98.578125 145.617188 98.699219 145.628906 98.832031 145.746094 C 99.523438 146.875 99.816406 148.535156 99.714844 150.730469 C 99.609375 152.929688 99.082031 155.835938 98.132812 159.457031 L 98.101562 159.570312 C 97.253906 162.808594 96.144531 166.355469 94.78125 170.21875 C 93.417969 174.078125 92.011719 178.144531 90.5625 182.414062 C 88.480469 188.457031 86.835938 194.015625 85.628906 199.089844 C 84.421875 204.164062 83.683594 208.972656 83.417969 213.515625 C 83.152344 218.054688 83.382812 222.429688 84.109375 226.632812 C 84.835938 230.835938 86.078125 235.085938 87.835938 239.371094 " fill-opacity="1" fill-rule="nonzero"/></g></g></g><g clip-path="url(#f01e62dc51)"><g clip-path="url(#39bf54cf42)"><g clip-path="url(#00d5a064a2)"><path fill="#ffffff" d="M 88.335938 245.257812 C 86.257812 240.472656 84.863281 235.824219 84.152344 231.316406 C 83.441406 226.804688 83.265625 222.253906 83.628906 217.65625 C 83.992188 213.058594 84.820312 208.34375 86.105469 203.519531 C 87.394531 198.691406 89.007812 193.523438 90.945312 188.023438 C 92.429688 183.761719 93.839844 179.699219 95.164062 175.824219 C 96.492188 171.953125 97.578125 168.398438 98.425781 165.164062 L 98.457031 165.050781 C 98.902344 163.355469 99.25 161.839844 99.496094 160.503906 C 99.742188 159.171875 99.90625 157.957031 99.988281 156.867188 C 100.160156 154.484375 99.90625 152.789062 99.222656 151.785156 C 99.105469 151.589844 99.136719 151.476562 99.3125 151.441406 C 99.417969 151.347656 99.539062 151.355469 99.671875 151.472656 C 100.367188 152.605469 100.660156 154.265625 100.554688 156.460938 C 100.449219 158.65625 99.921875 161.566406 98.972656 165.183594 L 98.941406 165.300781 C 98.09375 168.535156 96.988281 172.085938 95.625 175.945312 C 94.261719 179.808594 92.855469 183.875 91.402344 188.144531 C 89.324219 194.1875 87.679688 199.742188 86.46875 204.820312 C 85.261719 209.894531 84.527344 214.703125 84.257812 219.242188 C 83.992188 223.78125 84.222656 228.15625 84.953125 232.363281 C 85.679688 236.566406 86.921875 240.8125 88.675781 245.101562 " fill-opacity="1" fill-rule="nonzero"/></g></g></g><g clip-path="url(#989cc2ccea)"><g clip-path="url(#1a4ef7d67d)"><g clip-path="url(#6d4939ca77)"><path fill="#ffffff" d="M 90.484375 245.257812 C 88.40625 240.472656 87.011719 235.824219 86.300781 231.316406 C 85.589844 226.804688 85.414062 222.253906 85.777344 217.65625 C 86.140625 213.058594 86.964844 208.34375 88.253906 203.519531 C 89.542969 198.691406 91.15625 193.523438 93.09375 188.023438 C 94.578125 183.761719 95.988281 179.699219 97.3125 175.824219 C 98.640625 171.953125 99.726562 168.398438 100.574219 165.164062 L 100.605469 165.050781 C 101.050781 163.355469 101.398438 161.839844 101.644531 160.503906 C 101.890625 159.171875 102.054688 157.957031 102.136719 156.867188 C 102.308594 154.484375 102.054688 152.789062 101.371094 151.785156 C 101.253906 151.589844 101.285156 151.476562 101.460938 151.441406 C 101.566406 151.347656 101.6875 151.355469 101.820312 151.472656 C 102.511719 152.605469 102.808594 154.265625 102.703125 156.460938 C 102.597656 158.65625 102.070312 161.566406 101.121094 165.183594 L 101.089844 165.300781 C 100.242188 168.535156 99.136719 172.085938 97.769531 175.945312 C 96.410156 179.808594 95.003906 183.875 93.550781 188.144531 C 91.472656 194.1875 89.828125 199.742188 88.617188 204.820312 C 87.410156 209.894531 86.675781 214.703125 86.40625 219.242188 C 86.140625 223.78125 86.371094 228.15625 87.101562 232.363281 C 87.828125 236.566406 89.070312 240.8125 90.824219 245.101562 " fill-opacity="1" fill-rule="nonzero"/></g></g></g><g clip-path="url(#26a1494939)"><g clip-path="url(#ca61162fcd)"><g clip-path="url(#a577f8765d)"><path fill="#ffffff" d="M 92.632812 245.257812 C 90.554688 240.472656 89.160156 235.824219 88.449219 231.316406 C 87.738281 226.804688 87.5625 222.253906 87.925781 217.65625 C 88.289062 213.058594 89.113281 208.34375 90.402344 203.519531 C 91.691406 198.691406 93.304688 193.523438 95.242188 188.023438 C 96.726562 183.761719 98.132812 179.699219 99.460938 175.824219 C 100.789062 171.953125 101.875 168.398438 102.722656 165.164062 L 102.753906 165.050781 C 103.199219 163.355469 103.546875 161.839844 103.792969 160.503906 C 104.039062 159.171875 104.203125 157.957031 104.285156 156.867188 C 104.457031 154.484375 104.203125 152.789062 103.519531 151.785156 C 103.402344 151.589844 103.433594 151.476562 103.609375 151.441406 C 103.714844 151.347656 103.835938 151.355469 103.96875 151.472656 C 104.660156 152.605469 104.957031 154.265625 104.851562 156.460938 C 104.746094 158.65625 104.21875 161.566406 103.269531 165.183594 L 103.238281 165.300781 C 102.390625 168.535156 101.285156 172.085938 99.917969 175.945312 C 98.558594 179.808594 97.152344 183.875 95.699219 188.144531 C 93.621094 194.1875 91.976562 199.742188 90.765625 204.820312 C 89.558594 209.894531 88.820312 214.703125 88.554688 219.242188 C 88.289062 223.78125 88.519531 228.15625 89.25 232.363281 C 89.976562 236.566406 91.21875 240.8125 92.972656 245.101562 " fill-opacity="1" fill-rule="nonzero"/></g></g></g><g clip-path="url(#e92d3f1c80)"><g clip-path="url(#3d06d239ee)"><g clip-path="url(#3beb708e67)"><path fill="#ffffff" d="M 93.710938 250.984375 C 91.632812 246.199219 90.238281 241.550781 89.527344 237.042969 C 88.816406 232.535156 88.640625 227.984375 89.003906 223.386719 C 89.367188 218.789062 90.191406 214.074219 91.480469 209.246094 C 92.769531 204.421875 94.382812 199.253906 96.320312 193.753906 C 97.804688 189.492188 99.214844 185.425781 100.539062 181.554688 C 101.867188 177.683594 102.953125 174.128906 103.800781 170.894531 L 103.832031 170.777344 C 104.277344 169.085938 104.625 167.570312 104.871094 166.234375 C 105.117188 164.898438 105.28125 163.6875 105.363281 162.59375 C 105.535156 160.214844 105.28125 158.519531 104.597656 157.515625 C 104.480469 157.320312 104.511719 157.207031 104.6875 157.171875 C 104.792969 157.074219 104.914062 157.085938 105.046875 157.203125 C 105.738281 158.332031 106.035156 159.992188 105.929688 162.1875 C 105.824219 164.386719 105.296875 167.292969 104.347656 170.914062 L 104.316406 171.03125 C 103.46875 174.265625 102.363281 177.8125 101 181.675781 C 99.636719 185.535156 98.230469 189.601562 96.777344 193.871094 C 94.699219 199.914062 93.054688 205.472656 91.84375 210.546875 C 90.636719 215.621094 89.902344 220.429688 89.632812 224.972656 C 89.367188 229.511719 89.597656 233.886719 90.328125 238.089844 C 91.054688 242.292969 92.296875 246.542969 94.050781 250.828125 " fill-opacity="1" fill-rule="nonzero"/></g></g></g><g clip-path="url(#6d2b2561af)"><g clip-path="url(#12c62f09dd)"><path fill="#ffffff" d="M 95.320312 156.105469 L 110.734375 156.105469 L 110.734375 171.519531 L 95.320312 171.519531 Z M 95.320312 156.105469 " fill-opacity="1" fill-rule="nonzero"/></g></g><g clip-path="url(#ca030e132f)"><g clip-path="url(#bb389cab23)"><g clip-path="url(#958d61eee6)"><path fill="#000000" d="M 102.667969 154.941406 L 102.808594 162.464844 L 96.230469 162.589844 L 96.09375 155.0625 Z M 102.667969 154.941406 " fill-opacity="1" fill-rule="nonzero"/></g></g></g><g clip-path="url(#de6553086e)"><g clip-path="url(#ae5c12eebb)"><path fill="#000000" d="M 101.730469 162.574219 L 101.730469 155.046875 L 108.304688 155.046875 L 108.304688 162.574219 Z M 101.730469 162.574219 " fill-opacity="1" fill-rule="nonzero"/></g></g><g clip-path="url(#7478f77d7f)"><g clip-path="url(#f86758b9f9)"><path fill="#000000" d="M 101.46875 162.011719 L 103.324219 162.011719 L 103.324219 163.664062 L 101.46875 163.664062 Z M 101.46875 162.011719 " fill-opacity="1" fill-rule="nonzero"/></g></g><g clip-path="url(#6fa771afed)"><g clip-path="url(#abc7510cc5)"><path fill="#000000" d="M 100.921875 157.539062 L 103.480469 157.539062 L 103.480469 160.097656 L 100.921875 160.097656 Z M 100.921875 157.539062 " fill-opacity="1" fill-rule="nonzero"/></g></g><g clip-path="url(#b69aea5a50)"><g clip-path="url(#7f03e8ee36)"><path fill="#000000" d="M 101.625 165.035156 L 103.484375 165.035156 L 103.484375 166.6875 L 101.625 166.6875 Z M 101.625 165.035156 " fill-opacity="1" fill-rule="nonzero"/></g></g><g clip-path="url(#ecfce238ff)"><path fill="#000000" d="M 308.511719 193.9375 L 308.511719 196.761719 L 138.449219 196.761719 L 129.914062 211.65625 C 130.539062 212.398438 130.914062 213.351562 130.914062 214.386719 C 130.914062 216.707031 129.015625 218.621094 126.714844 218.621094 C 124.410156 218.621094 122.511719 216.707031 122.511719 214.386719 C 122.511719 212.066406 124.410156 210.152344 126.714844 210.152344 C 126.980469 210.152344 127.242188 210.179688 127.5 210.226562 L 136.832031 193.9375 Z M 126.714844 212.976562 C 125.921875 212.976562 125.3125 213.589844 125.3125 214.386719 C 125.3125 215.183594 125.921875 215.796875 126.714844 215.796875 C 127.503906 215.796875 128.113281 215.183594 128.113281 214.386719 C 128.113281 213.589844 127.503906 212.976562 126.714844 212.976562 Z M 126.714844 212.976562 " fill-opacity="1" fill-rule="nonzero"/></g><g fill="#000000" fill-opacity="1"><g transform="translate(121.616888, 186.967542)"><g><path d="M 20.726562 -17.933594 C 20.726562 -19.824219 19.238281 -21.359375 17.347656 -21.359375 C 15.457031 -21.359375 13.96875 -19.824219 13.96875 -17.933594 C 13.96875 -16.085938 15.457031 -14.554688 17.347656 -14.554688 C 19.238281 -14.554688 20.726562 -16.085938 20.726562 -17.933594 Z M 34.695312 -18.070312 C 34.695312 -27.035156 28.882812 -36.046875 17.394531 -36.046875 C 5.722656 -36.046875 0 -27.035156 0 -18.070312 C 0 -9.058594 5.722656 0 17.394531 0 C 28.882812 0 34.695312 -9.058594 34.695312 -18.070312 Z M 27.9375 -17.933594 C 27.9375 -12.121094 24.375 -6.308594 17.394531 -6.308594 C 10.320312 -6.308594 6.804688 -12.121094 6.804688 -17.933594 C 6.804688 -23.835938 10.320312 -29.695312 17.394531 -29.695312 C 24.375 -29.695312 27.9375 -23.835938 27.9375 -17.933594 Z M 27.9375 -17.933594 "/></g></g></g><g fill="#000000" fill-opacity="1"><g transform="translate(158.015107, 186.967542)"><g><path d="M 24.601562 -0.585938 C 22.347656 -5.585938 19.917969 -10.542969 17.664062 -15.636719 C 21.269531 -16.941406 24.285156 -19.824219 24.285156 -25.324219 C 24.285156 -35.957031 14.148438 -36.046875 12.121094 -36.046875 L 0.449219 -36.046875 C 0.226562 -36.046875 0 -35.820312 0 -35.640625 L 0 -29.511719 L 12.121094 -29.511719 C 13.203125 -29.511719 17.4375 -29.289062 17.4375 -25.324219 C 17.4375 -21.359375 13.609375 -21.179688 12.121094 -21.179688 L 0 -21.179688 L 0 -0.40625 C 0 -0.226562 0.226562 0 0.449219 0 L 6.351562 0 C 6.625 0 6.847656 -0.226562 6.847656 -0.40625 L 6.847656 -14.554688 L 10.722656 -14.554688 L 17.300781 -0.269531 C 17.347656 -0.136719 17.617188 0 17.753906 0 L 24.195312 0 C 24.558594 0 24.738281 -0.269531 24.601562 -0.585938 Z M 24.601562 -0.585938 "/></g></g></g><g fill="#000000" fill-opacity="1"><g transform="translate(183.917311, 186.967542)"><g><path d="M 7.433594 -22.980469 L 7.433594 -0.40625 C 7.433594 -0.226562 7.613281 0 7.929688 0 L 13.742188 0 C 14.058594 0 14.285156 -0.226562 14.285156 -0.40625 L 14.285156 -22.980469 Z M 0.496094 -29.875 L 21.179688 -29.875 C 21.492188 -29.875 21.671875 -30.054688 21.671875 -30.28125 L 21.671875 -35.640625 C 21.671875 -35.820312 21.492188 -36.046875 21.179688 -36.046875 L 0.496094 -36.046875 C 0.226562 -36.046875 0 -35.820312 0 -35.640625 L 0 -30.28125 C 0 -30.054688 0.226562 -29.875 0.496094 -29.875 Z M 0.496094 -29.875 "/></g></g></g><g fill="#000000" fill-opacity="1"><g transform="translate(206.666191, 186.967542)"><g><path d="M 28.296875 -0.539062 L 14.597656 -35.777344 C 14.464844 -36.136719 13.832031 -36.136719 13.699219 -35.777344 L 0.046875 -0.539062 C -0.0898438 -0.269531 0.0898438 0 0.496094 0 L 6.667969 0 C 6.847656 0 7.074219 -0.0898438 7.121094 -0.269531 L 14.148438 -20.367188 L 21.269531 -0.269531 C 21.3125 -0.0898438 21.539062 0 21.671875 0 L 27.890625 0 C 28.207031 0 28.433594 -0.269531 28.296875 -0.539062 Z M 28.296875 -0.539062 "/></g></g></g><g fill="#000000" fill-opacity="1"><g transform="translate(236.397419, 186.967542)"><g><path d="M 12.121094 -36.046875 L 0.449219 -36.046875 C 0.226562 -36.046875 0 -35.820312 0 -35.640625 L 0 -29.421875 L 12.121094 -29.421875 C 12.933594 -29.421875 17.4375 -29.199219 17.4375 -25.234375 C 17.4375 -21.269531 13.023438 -21.179688 12.121094 -21.179688 L 0 -21.179688 L 0 -0.40625 C 0 -0.226562 0.226562 0 0.449219 0 L 6.308594 0 C 6.625 0 6.757812 -0.226562 6.757812 -0.40625 L 6.757812 -14.507812 L 12.121094 -14.507812 C 12.976562 -14.507812 24.285156 -14.644531 24.285156 -25.234375 C 24.285156 -35.820312 13.5625 -36.046875 12.121094 -36.046875 Z M 12.121094 -36.046875 "/></g></g></g><g fill="#000000" fill-opacity="1"><g transform="translate(261.894187, 186.967542)"><g><path d="M 28.296875 -0.539062 L 14.597656 -35.777344 C 14.464844 -36.136719 13.832031 -36.136719 13.699219 -35.777344 L 0.046875 -0.539062 C -0.0898438 -0.269531 0.0898438 0 0.496094 0 L 6.667969 0 C 6.847656 0 7.074219 -0.0898438 7.121094 -0.269531 L 14.148438 -20.367188 L 21.269531 -0.269531 C 21.3125 -0.0898438 21.539062 0 21.671875 0 L 27.890625 0 C 28.207031 0 28.433594 -0.269531 28.296875 -0.539062 Z M 28.296875 -0.539062 "/></g></g></g><g fill="#000000" fill-opacity="1"><g transform="translate(291.625415, 186.967542)"><g><path d="M 12.121094 -36.046875 L 0.449219 -36.046875 C 0.226562 -36.046875 0 -35.820312 0 -35.640625 L 0 -29.421875 L 12.121094 -29.421875 C 12.933594 -29.421875 17.4375 -29.199219 17.4375 -25.234375 C 17.4375 -21.269531 13.023438 -21.179688 12.121094 -21.179688 L 0 -21.179688 L 0 -0.40625 C 0 -0.226562 0.226562 0 0.449219 0 L 6.308594 0 C 6.625 0 6.757812 -0.226562 6.757812 -0.40625 L 6.757812 -14.507812 L 12.121094 -14.507812 C 12.976562 -14.507812 24.285156 -14.644531 24.285156 -25.234375 C 24.285156 -35.820312 13.5625 -36.046875 12.121094 -36.046875 Z M 12.121094 -36.046875 "/></g></g></g><g fill="#000000" fill-opacity="1"><g transform="translate(317.122184, 186.967542)"><g><path d="M 16.535156 -20.007812 C 13.96875 -21.222656 11.445312 -21.222656 11.21875 -21.222656 C 8.921875 -21.222656 6.714844 -22.574219 6.714844 -25.1875 C 6.714844 -28.070312 8.742188 -29.558594 11.21875 -29.558594 C 13.5625 -29.558594 15.546875 -28.34375 15.636719 -25.773438 C 15.636719 -25.636719 15.859375 -25.414062 16.132812 -25.414062 L 21.761719 -25.414062 C 22.078125 -25.414062 22.304688 -25.636719 22.257812 -25.773438 C 22.167969 -31.902344 17.394531 -36.046875 11.21875 -36.046875 C 5.453125 -36.046875 0 -31.945312 0 -25.1875 C 0 -20.996094 2.117188 -17.796875 5.859375 -16.085938 C 8.472656 -14.871094 10.902344 -14.871094 11.21875 -14.871094 C 13.246094 -14.78125 15.726562 -13.15625 15.726562 -10.5 C 15.726562 -8.109375 13.609375 -6.488281 11.21875 -6.488281 C 11.21875 -6.488281 11.21875 -6.488281 11.175781 -6.488281 L 11.175781 0 C 11.21875 0 11.21875 0 11.21875 0 C 16.988281 0 22.394531 -3.738281 22.394531 -10.5 C 22.394531 -14.734375 20.320312 -18.25 16.535156 -20.007812 Z M 16.535156 -20.007812 "/></g></g></g><path stroke-linecap="butt" transform="matrix(0.75, 0.000000000000000352, -0.000000000000000352, 0.75, 140.521226, 203.067906)" fill="none" stroke-linejoin="miter" d="M -0.0022603 1.498001 L 242.226922 1.498001 " stroke="#000000" stroke-width="3" stroke-opacity="1" stroke-miterlimit="4"/><g fill="#000000" fill-opacity="1"><g transform="translate(151.333003, 215.302765)"><g><path d="M 0.0625 -4.910156 L 0.0625 -4.785156 C 0.296875 -4.773438 0.5 -4.664062 0.5 -4.371094 L 0.5 -0.539062 C 0.5 -0.242188 0.296875 -0.136719 0.0625 -0.128906 L 0.0625 0 L 1.332031 0 C 1.605469 0 1.886719 0.0234375 2.160156 0.0234375 C 2.378906 0.0234375 2.589844 0.015625 2.808594 -0.0234375 C 3.484375 -0.136719 3.929688 -0.652344 3.929688 -1.347656 C 3.929688 -2.03125 3.484375 -2.558594 2.816406 -2.660156 L 2.574219 -2.695312 L 2.808594 -2.765625 C 3.273438 -2.902344 3.558594 -3.308594 3.558594 -3.792969 C 3.558594 -4.339844 3.21875 -4.71875 2.695312 -4.847656 C 2.429688 -4.910156 2.152344 -4.914062 1.871094 -4.914062 C 1.6875 -4.914062 1.515625 -4.910156 1.332031 -4.910156 Z M 1.28125 -2.574219 L 1.332031 -2.574219 C 1.460938 -2.574219 1.597656 -2.582031 1.734375 -2.582031 C 1.929688 -2.582031 2.144531 -2.574219 2.339844 -2.507812 C 2.839844 -2.339844 3.074219 -1.855469 3.074219 -1.371094 C 3.074219 -0.515625 2.574219 -0.121094 1.773438 -0.121094 C 1.621094 -0.121094 1.476562 -0.128906 1.332031 -0.121094 L 1.28125 -0.121094 Z M 1.28125 -4.792969 L 1.539062 -4.792969 C 1.734375 -4.792969 2.023438 -4.792969 2.226562 -4.703125 C 2.613281 -4.535156 2.765625 -4.066406 2.765625 -3.695312 C 2.765625 -3.332031 2.621094 -2.894531 2.21875 -2.773438 C 2.015625 -2.703125 1.742188 -2.703125 1.546875 -2.703125 C 1.46875 -2.703125 1.402344 -2.703125 1.332031 -2.703125 L 1.28125 -2.703125 Z M 1.28125 -4.792969 "/></g></g></g><g fill="#000000" fill-opacity="1"><g transform="translate(155.377781, 215.302765)"><g><path d="M 0.1875 -2.484375 C 0.1875 -1.144531 0.824219 0.0742188 2.265625 0.0742188 C 3.710938 0.0742188 4.363281 -1.167969 4.363281 -2.507812 C 4.363281 -3.847656 3.710938 -4.992188 2.28125 -4.992188 C 0.839844 -4.992188 0.1875 -3.832031 0.1875 -2.484375 Z M 1.015625 -2.476562 C 1.015625 -3.21875 1.144531 -4.878906 2.28125 -4.878906 C 3.410156 -4.878906 3.539062 -3.21875 3.539062 -2.484375 C 3.539062 -1.75 3.402344 -0.046875 2.273438 -0.046875 C 1.144531 -0.046875 1.015625 -1.742188 1.015625 -2.476562 Z M 1.015625 -2.476562 "/></g></g></g><g fill="#000000" fill-opacity="1"><g transform="translate(159.831576, 215.302765)"><g><path d="M 0.0546875 -4.910156 L 0.0546875 -4.785156 C 0.289062 -4.773438 0.492188 -4.664062 0.492188 -4.371094 L 0.492188 -0.539062 C 0.492188 -0.242188 0.289062 -0.136719 0.0546875 -0.128906 L 0.0546875 0 L 3.574219 0 L 3.871094 -1.082031 L 3.75 -1.089844 C 3.417969 -0.394531 2.644531 -0.121094 1.9375 -0.121094 L 1.289062 -0.121094 L 1.273438 -4.371094 C 1.273438 -4.664062 1.46875 -4.773438 1.703125 -4.785156 L 1.703125 -4.910156 Z M 0.0546875 -4.910156 "/></g></g></g><g fill="#000000" fill-opacity="1"><g transform="translate(163.732433, 215.302765)"><g><path d="M 0.0664062 -4.910156 L 0.0664062 -4.785156 C 0.304688 -4.773438 0.507812 -4.664062 0.507812 -4.371094 L 0.507812 -0.539062 C 0.507812 -0.242188 0.304688 -0.136719 0.0664062 -0.121094 L 0.0664062 0 L 1.339844 0 C 1.832031 0 2.402344 0.015625 2.894531 -0.0625 C 4.082031 -0.242188 4.523438 -1.28125 4.523438 -2.410156 C 4.523438 -3.550781 4.128906 -4.589844 2.945312 -4.832031 C 2.6875 -4.886719 2.417969 -4.902344 2.152344 -4.910156 C 1.871094 -4.914062 1.597656 -4.910156 1.339844 -4.910156 Z M 1.289062 -0.121094 L 1.289062 -4.792969 L 1.339844 -4.792969 C 1.695312 -4.792969 2.316406 -4.785156 2.660156 -4.671875 C 3.460938 -4.410156 3.695312 -3.203125 3.695312 -2.5 C 3.695312 -1.726562 3.492188 -0.773438 2.726562 -0.371094 C 2.300781 -0.144531 1.796875 -0.121094 1.339844 -0.121094 Z M 1.289062 -0.121094 "/></g></g></g><g fill="#000000" fill-opacity="1"><g transform="translate(168.39074, 215.302765)"><g><path d="M 0.0898438 0 L 1.597656 0 L 1.597656 -0.121094 C 1.25 -0.136719 0.832031 -0.242188 0.832031 -0.71875 L 0.832031 -4.339844 L 3.9375 0 L 4.082031 0 L 4.082031 -4.1875 C 4.082031 -4.644531 4.363281 -4.773438 4.726562 -4.785156 L 4.726562 -4.910156 L 3.195312 -4.910156 L 3.195312 -4.785156 C 3.542969 -4.773438 3.960938 -4.664062 3.960938 -4.1875 L 3.960938 -1.308594 L 1.394531 -4.910156 L 0.152344 -4.910156 L 0.152344 -4.78125 C 0.363281 -4.765625 0.554688 -4.652344 0.695312 -4.507812 L 0.710938 -4.492188 L 0.710938 -0.71875 C 0.710938 -0.273438 0.460938 -0.136719 0.0898438 -0.121094 Z M 0.0898438 0 "/></g></g></g><g fill="#000000" fill-opacity="1"><g transform="translate(173.13994, 215.302765)"><g><path d="M 0.0664062 0 L 3.808594 0 L 4.113281 -1.429688 L 3.992188 -1.4375 C 3.921875 -1.28125 3.871094 -1.113281 3.792969 -0.945312 C 3.574219 -0.460938 3.25 -0.121094 2.671875 -0.121094 L 1.289062 -0.121094 L 1.289062 -2.316406 L 2.175781 -2.308594 C 2.289062 -2.308594 2.410156 -2.308594 2.515625 -2.296875 C 2.871094 -2.273438 3.128906 -2.128906 3.152344 -1.726562 L 3.273438 -1.726562 L 3.273438 -3.171875 L 3.160156 -3.171875 C 3.128906 -2.574219 2.6875 -2.460938 2.175781 -2.460938 C 1.894531 -2.453125 1.621094 -2.453125 1.339844 -2.453125 L 1.289062 -2.445312 L 1.289062 -4.785156 L 2.308594 -4.785156 C 2.9375 -4.785156 3.332031 -4.492188 3.597656 -3.9375 C 3.667969 -3.789062 3.71875 -3.628906 3.789062 -3.46875 L 3.910156 -3.476562 L 3.605469 -4.910156 L 0.0664062 -4.910156 L 0.0664062 -4.785156 C 0.304688 -4.773438 0.507812 -4.664062 0.507812 -4.371094 L 0.507812 -0.539062 C 0.507812 -0.242188 0.304688 -0.136719 0.0664062 -0.128906 Z M 0.0664062 0 "/></g></g></g><g fill="#000000" fill-opacity="1"><g transform="translate(177.27561, 215.302765)"><g><path d="M 0.121094 -0.574219 C 0.121094 -0.566406 0.128906 -0.554688 0.144531 -0.539062 C 0.167969 -0.507812 0.1875 -0.484375 0.195312 -0.46875 C 0.574219 -0.0976562 1.316406 0.0742188 1.832031 0.0742188 C 2.5 0.0742188 3.25 -0.0898438 3.539062 -0.742188 C 3.605469 -0.886719 3.644531 -1.058594 3.644531 -1.21875 C 3.644531 -1.960938 3.007812 -2.339844 2.324219 -2.703125 C 2.160156 -2.796875 1.992188 -2.878906 1.832031 -2.976562 C 1.402344 -3.21875 0.953125 -3.542969 0.953125 -4.097656 C 0.953125 -4.605469 1.332031 -4.886719 1.796875 -4.886719 C 2.507812 -4.886719 3.097656 -4.066406 3.324219 -3.476562 L 3.460938 -3.476562 L 3.332031 -4.53125 C 3.324219 -4.550781 3.316406 -4.558594 3.308594 -4.566406 C 3.289062 -4.589844 3.265625 -4.613281 3.257812 -4.621094 C 2.953125 -4.886719 2.300781 -4.992188 1.894531 -4.992188 C 1.058594 -4.992188 0.210938 -4.574219 0.210938 -3.652344 C 0.210938 -2.910156 0.847656 -2.523438 1.515625 -2.175781 C 1.679688 -2.082031 1.847656 -2 2.007812 -1.910156 C 2.410156 -1.695312 2.878906 -1.378906 2.878906 -0.871094 C 2.878906 -0.355469 2.460938 -0.0390625 1.984375 -0.0390625 C 1.1875 -0.0390625 0.46875 -0.839844 0.363281 -1.597656 L 0.25 -1.613281 L 0.113281 -0.589844 C 0.113281 -0.582031 0.113281 -0.582031 0.121094 -0.574219 Z M 0.121094 -0.574219 "/></g></g></g><g fill="#000000" fill-opacity="1"><g transform="translate(180.979533, 215.302765)"><g><path d="M 0.121094 -0.574219 C 0.121094 -0.566406 0.128906 -0.554688 0.144531 -0.539062 C 0.167969 -0.507812 0.1875 -0.484375 0.195312 -0.46875 C 0.574219 -0.0976562 1.316406 0.0742188 1.832031 0.0742188 C 2.5 0.0742188 3.25 -0.0898438 3.539062 -0.742188 C 3.605469 -0.886719 3.644531 -1.058594 3.644531 -1.21875 C 3.644531 -1.960938 3.007812 -2.339844 2.324219 -2.703125 C 2.160156 -2.796875 1.992188 -2.878906 1.832031 -2.976562 C 1.402344 -3.21875 0.953125 -3.542969 0.953125 -4.097656 C 0.953125 -4.605469 1.332031 -4.886719 1.796875 -4.886719 C 2.507812 -4.886719 3.097656 -4.066406 3.324219 -3.476562 L 3.460938 -3.476562 L 3.332031 -4.53125 C 3.324219 -4.550781 3.316406 -4.558594 3.308594 -4.566406 C 3.289062 -4.589844 3.265625 -4.613281 3.257812 -4.621094 C 2.953125 -4.886719 2.300781 -4.992188 1.894531 -4.992188 C 1.058594 -4.992188 0.210938 -4.574219 0.210938 -3.652344 C 0.210938 -2.910156 0.847656 -2.523438 1.515625 -2.175781 C 1.679688 -2.082031 1.847656 -2 2.007812 -1.910156 C 2.410156 -1.695312 2.878906 -1.378906 2.878906 -0.871094 C 2.878906 -0.355469 2.460938 -0.0390625 1.984375 -0.0390625 C 1.1875 -0.0390625 0.46875 -0.839844 0.363281 -1.597656 L 0.25 -1.613281 L 0.113281 -0.589844 C 0.113281 -0.582031 0.113281 -0.582031 0.121094 -0.574219 Z M 0.121094 -0.574219 "/></g></g></g><g fill="#000000" fill-opacity="1"><g transform="translate(184.688119, 215.302765)"><g/></g></g><g fill="#000000" fill-opacity="1"><g transform="translate(186.15757, 215.302765)"><g/></g></g><g fill="#000000" fill-opacity="1"><g transform="translate(187.627021, 215.302765)"><g/></g></g><g fill="#000000" fill-opacity="1"><g transform="translate(189.096473, 215.302765)"><g/></g></g><g fill="#000000" fill-opacity="1"><g transform="translate(190.565924, 215.302765)"><g/></g></g><g fill="#000000" fill-opacity="1"><g transform="translate(192.035375, 215.302765)"><g/></g></g><g fill="#000000" fill-opacity="1"><g transform="translate(193.504827, 215.302765)"><g/></g></g><g fill="#000000" fill-opacity="1"><g transform="translate(194.974278, 215.302765)"><g/></g></g><g fill="#000000" fill-opacity="1"><g transform="translate(196.443729, 215.302765)"><g/></g></g><g fill="#000000" fill-opacity="1"><g transform="translate(197.913787, 215.302765)"><g><path d="M 0.578125 -2.765625 C 0.578125 -3.109375 0.65625 -3.347656 0.8125 -3.484375 C 0.976562 -3.628906 1.179688 -3.703125 1.421875 -3.703125 C 1.648438 -3.703125 1.847656 -3.628906 2.015625 -3.484375 C 2.179688 -3.347656 2.265625 -3.109375 2.265625 -2.765625 C 2.265625 -2.429688 2.179688 -2.191406 2.015625 -2.046875 C 1.847656 -1.898438 1.648438 -1.828125 1.421875 -1.828125 C 1.179688 -1.828125 0.976562 -1.898438 0.8125 -2.046875 C 0.65625 -2.191406 0.578125 -2.429688 0.578125 -2.765625 Z M 0.578125 -2.765625 "/></g></g></g><g fill="#000000" fill-opacity="1"><g transform="translate(200.764062, 215.302765)"><g/></g></g><g fill="#000000" fill-opacity="1"><g transform="translate(202.233513, 215.302765)"><g/></g></g><g fill="#000000" fill-opacity="1"><g transform="translate(203.702964, 215.302765)"><g/></g></g><g fill="#000000" fill-opacity="1"><g transform="translate(205.172416, 215.302765)"><g/></g></g><g fill="#000000" fill-opacity="1"><g transform="translate(206.641867, 215.302765)"><g/></g></g><g fill="#000000" fill-opacity="1"><g transform="translate(208.111318, 215.302765)"><g/></g></g><g fill="#000000" fill-opacity="1"><g transform="translate(209.58077, 215.302765)"><g/></g></g><g fill="#000000" fill-opacity="1"><g transform="translate(211.050221, 215.302765)"><g/></g></g><g fill="#000000" fill-opacity="1"><g transform="translate(212.519672, 215.302765)"><g/></g></g><g fill="#000000" fill-opacity="1"><g transform="translate(213.98973, 215.302765)"><g><path d="M 1.765625 0 L 1.765625 -0.121094 C 1.460938 -0.121094 1.007812 -0.152344 1.007812 -0.558594 C 1.007812 -0.628906 1.023438 -0.742188 1.054688 -0.808594 L 1.507812 -1.929688 L 3.203125 -1.929688 L 3.765625 -0.582031 C 3.78125 -0.539062 3.792969 -0.476562 3.792969 -0.417969 C 3.792969 -0.175781 3.542969 -0.144531 3.363281 -0.121094 L 3.363281 0 L 5.195312 0 L 5.195312 -0.128906 C 4.914062 -0.136719 4.742188 -0.257812 4.628906 -0.546875 L 2.808594 -4.910156 L 2.597656 -4.910156 L 0.847656 -0.765625 C 0.695312 -0.410156 0.433594 -0.160156 0.0390625 -0.128906 L 0.0390625 0 Z M 2.347656 -3.984375 L 3.152344 -2.050781 L 1.558594 -2.050781 Z M 2.347656 -3.984375 "/></g></g></g><g fill="#000000" fill-opacity="1"><g transform="translate(219.132805, 215.302765)"><g><path d="M 0.105469 -4.785156 C 0.339844 -4.773438 0.546875 -4.664062 0.546875 -4.371094 L 0.546875 -0.539062 C 0.546875 -0.242188 0.339844 -0.136719 0.105469 -0.128906 L 0.105469 0 L 1.679688 0 L 1.679688 -0.121094 C 1.429688 -0.136719 1.324219 -0.273438 1.324219 -0.539062 L 1.324219 -2.339844 L 1.429688 -2.339844 C 1.992188 -2.339844 2.226562 -2.066406 2.421875 -1.574219 C 2.515625 -1.339844 2.582031 -1.082031 2.660156 -0.847656 C 2.808594 -0.363281 2.976562 0 3.339844 0 L 4.152344 0 L 4.152344 -0.128906 C 3.9375 -0.167969 3.800781 -0.3125 3.695312 -0.5 C 3.644531 -0.597656 3.597656 -0.71875 3.542969 -0.839844 C 3.5 -0.960938 3.453125 -1.089844 3.410156 -1.21875 C 3.210938 -1.734375 2.953125 -2.339844 2.273438 -2.378906 C 3.082031 -2.378906 3.789062 -2.75 3.789062 -3.636719 C 3.789062 -4.21875 3.453125 -4.671875 2.894531 -4.824219 C 2.566406 -4.914062 2.210938 -4.914062 1.863281 -4.914062 C 1.28125 -4.914062 0.695312 -4.910156 0.105469 -4.910156 Z M 1.378906 -4.800781 C 1.515625 -4.800781 1.695312 -4.800781 1.878906 -4.785156 C 2.058594 -4.78125 2.242188 -4.75 2.378906 -4.695312 C 2.800781 -4.523438 2.96875 -4.042969 2.96875 -3.636719 C 2.96875 -3.21875 2.800781 -2.742188 2.378906 -2.566406 C 2.242188 -2.515625 2.058594 -2.492188 1.878906 -2.476562 C 1.695312 -2.460938 1.515625 -2.46875 1.378906 -2.46875 L 1.324219 -2.46875 L 1.324219 -4.800781 Z M 1.378906 -4.800781 "/></g></g></g><g fill="#000000" fill-opacity="1"><g transform="translate(223.238175, 215.302765)"><g><path d="M 0.195312 -3.46875 C 0.507812 -4.152344 0.871094 -4.785156 1.703125 -4.785156 L 1.917969 -4.785156 L 1.917969 -0.539062 C 1.917969 -0.242188 1.710938 -0.136719 1.476562 -0.121094 L 1.476562 0 L 3.128906 0 L 3.128906 -0.121094 C 2.894531 -0.136719 2.695312 -0.242188 2.695312 -0.539062 L 2.695312 -4.785156 L 2.902344 -4.785156 C 3.765625 -4.785156 4.164062 -4.1875 4.5 -3.46875 L 4.628906 -3.476562 L 4.308594 -4.910156 L 0.371094 -4.910156 L 0.0742188 -3.476562 Z M 0.195312 -3.46875 "/></g></g></g><g fill="#000000" fill-opacity="1"><g transform="translate(227.858612, 215.302765)"><g><path d="M 0.195312 -4.910156 L 0.195312 -4.785156 C 0.433594 -4.773438 0.636719 -4.664062 0.636719 -4.371094 L 0.636719 -0.539062 C 0.636719 -0.242188 0.433594 -0.136719 0.195312 -0.128906 L 0.195312 0 L 1.847656 0 L 1.847656 -0.128906 C 1.613281 -0.136719 1.417969 -0.242188 1.417969 -0.539062 L 1.417969 -4.371094 C 1.417969 -4.664062 1.613281 -4.773438 1.847656 -4.785156 L 1.847656 -4.910156 Z M 0.195312 -4.910156 "/></g></g></g><g fill="#000000" fill-opacity="1"><g transform="translate(229.83555, 215.302765)"><g><path d="M 0.121094 -0.574219 C 0.121094 -0.566406 0.128906 -0.554688 0.144531 -0.539062 C 0.167969 -0.507812 0.1875 -0.484375 0.195312 -0.46875 C 0.574219 -0.0976562 1.316406 0.0742188 1.832031 0.0742188 C 2.5 0.0742188 3.25 -0.0898438 3.539062 -0.742188 C 3.605469 -0.886719 3.644531 -1.058594 3.644531 -1.21875 C 3.644531 -1.960938 3.007812 -2.339844 2.324219 -2.703125 C 2.160156 -2.796875 1.992188 -2.878906 1.832031 -2.976562 C 1.402344 -3.21875 0.953125 -3.542969 0.953125 -4.097656 C 0.953125 -4.605469 1.332031 -4.886719 1.796875 -4.886719 C 2.507812 -4.886719 3.097656 -4.066406 3.324219 -3.476562 L 3.460938 -3.476562 L 3.332031 -4.53125 C 3.324219 -4.550781 3.316406 -4.558594 3.308594 -4.566406 C 3.289062 -4.589844 3.265625 -4.613281 3.257812 -4.621094 C 2.953125 -4.886719 2.300781 -4.992188 1.894531 -4.992188 C 1.058594 -4.992188 0.210938 -4.574219 0.210938 -3.652344 C 0.210938 -2.910156 0.847656 -2.523438 1.515625 -2.175781 C 1.679688 -2.082031 1.847656 -2 2.007812 -1.910156 C 2.410156 -1.695312 2.878906 -1.378906 2.878906 -0.871094 C 2.878906 -0.355469 2.460938 -0.0390625 1.984375 -0.0390625 C 1.1875 -0.0390625 0.46875 -0.839844 0.363281 -1.597656 L 0.25 -1.613281 L 0.113281 -0.589844 C 0.113281 -0.582031 0.113281 -0.582031 0.121094 -0.574219 Z M 0.121094 -0.574219 "/></g></g></g><g fill="#000000" fill-opacity="1"><g transform="translate(233.539474, 215.302765)"><g><path d="M 0.195312 -3.46875 C 0.507812 -4.152344 0.871094 -4.785156 1.703125 -4.785156 L 1.917969 -4.785156 L 1.917969 -0.539062 C 1.917969 -0.242188 1.710938 -0.136719 1.476562 -0.121094 L 1.476562 0 L 3.128906 0 L 3.128906 -0.121094 C 2.894531 -0.136719 2.695312 -0.242188 2.695312 -0.539062 L 2.695312 -4.785156 L 2.902344 -4.785156 C 3.765625 -4.785156 4.164062 -4.1875 4.5 -3.46875 L 4.628906 -3.476562 L 4.308594 -4.910156 L 0.371094 -4.910156 L 0.0742188 -3.476562 Z M 0.195312 -3.46875 "/></g></g></g><g fill="#000000" fill-opacity="1"><g transform="translate(238.159911, 215.302765)"><g><path d="M 0.105469 -4.785156 C 0.339844 -4.773438 0.546875 -4.664062 0.546875 -4.371094 L 0.546875 -0.539062 C 0.546875 -0.242188 0.339844 -0.136719 0.105469 -0.128906 L 0.105469 0 L 1.679688 0 L 1.679688 -0.121094 C 1.429688 -0.136719 1.324219 -0.273438 1.324219 -0.539062 L 1.324219 -2.339844 L 1.429688 -2.339844 C 1.992188 -2.339844 2.226562 -2.066406 2.421875 -1.574219 C 2.515625 -1.339844 2.582031 -1.082031 2.660156 -0.847656 C 2.808594 -0.363281 2.976562 0 3.339844 0 L 4.152344 0 L 4.152344 -0.128906 C 3.9375 -0.167969 3.800781 -0.3125 3.695312 -0.5 C 3.644531 -0.597656 3.597656 -0.71875 3.542969 -0.839844 C 3.5 -0.960938 3.453125 -1.089844 3.410156 -1.21875 C 3.210938 -1.734375 2.953125 -2.339844 2.273438 -2.378906 C 3.082031 -2.378906 3.789062 -2.75 3.789062 -3.636719 C 3.789062 -4.21875 3.453125 -4.671875 2.894531 -4.824219 C 2.566406 -4.914062 2.210938 -4.914062 1.863281 -4.914062 C 1.28125 -4.914062 0.695312 -4.910156 0.105469 -4.910156 Z M 1.378906 -4.800781 C 1.515625 -4.800781 1.695312 -4.800781 1.878906 -4.785156 C 2.058594 -4.78125 2.242188 -4.75 2.378906 -4.695312 C 2.800781 -4.523438 2.96875 -4.042969 2.96875 -3.636719 C 2.96875 -3.21875 2.800781 -2.742188 2.378906 -2.566406 C 2.242188 -2.515625 2.058594 -2.492188 1.878906 -2.476562 C 1.695312 -2.460938 1.515625 -2.46875 1.378906 -2.46875 L 1.324219 -2.46875 L 1.324219 -4.800781 Z M 1.378906 -4.800781 "/></g></g></g><g fill="#000000" fill-opacity="1"><g transform="translate(242.265281, 215.302765)"><g><path d="M 0.0546875 -4.78125 C 0.332031 -4.765625 0.539062 -4.589844 0.695312 -4.378906 L 2.316406 -2.089844 L 2.316406 -0.539062 C 2.316406 -0.242188 2.121094 -0.136719 1.886719 -0.128906 L 1.886719 0 L 3.539062 0 L 3.539062 -0.128906 C 3.300781 -0.136719 3.097656 -0.242188 3.097656 -0.539062 L 3.097656 -2.347656 L 4.507812 -4.378906 C 4.664062 -4.597656 4.871094 -4.765625 5.152344 -4.78125 L 5.152344 -4.910156 L 3.710938 -4.910156 L 3.710938 -4.785156 C 3.800781 -4.78125 3.914062 -4.765625 4.015625 -4.726562 C 4.128906 -4.671875 4.234375 -4.582031 4.234375 -4.421875 C 4.234375 -4.292969 4.164062 -4.179688 4.105469 -4.089844 L 3.015625 -2.460938 L 1.695312 -4.308594 C 1.667969 -4.355469 1.628906 -4.414062 1.628906 -4.484375 C 1.628906 -4.71875 1.984375 -4.78125 2.167969 -4.78125 L 2.167969 -4.910156 L 0.0546875 -4.910156 Z M 0.0546875 -4.78125 "/></g></g></g><g fill="#000000" fill-opacity="1"><g transform="translate(247.413884, 215.302765)"><g/></g></g><g fill="#000000" fill-opacity="1"><g transform="translate(248.883335, 215.302765)"><g/></g></g><g fill="#000000" fill-opacity="1"><g transform="translate(250.352787, 215.302765)"><g/></g></g><g fill="#000000" fill-opacity="1"><g transform="translate(251.822238, 215.302765)"><g/></g></g><g fill="#000000" fill-opacity="1"><g transform="translate(253.291689, 215.302765)"><g/></g></g><g fill="#000000" fill-opacity="1"><g transform="translate(254.761141, 215.302765)"><g/></g></g><g fill="#000000" fill-opacity="1"><g transform="translate(256.230592, 215.302765)"><g/></g></g><g fill="#000000" fill-opacity="1"><g transform="translate(257.700043, 215.302765)"><g/></g></g><g fill="#000000" fill-opacity="1"><g transform="translate(259.169495, 215.302765)"><g/></g></g><g fill="#000000" fill-opacity="1"><g transform="translate(260.638946, 215.302765)"><g/></g></g><g fill="#000000" fill-opacity="1"><g transform="translate(262.109071, 215.302765)"><g><path d="M 0.578125 -2.765625 C 0.578125 -3.109375 0.65625 -3.347656 0.8125 -3.484375 C 0.976562 -3.628906 1.179688 -3.703125 1.421875 -3.703125 C 1.648438 -3.703125 1.847656 -3.628906 2.015625 -3.484375 C 2.179688 -3.347656 2.265625 -3.109375 2.265625 -2.765625 C 2.265625 -2.429688 2.179688 -2.191406 2.015625 -2.046875 C 1.847656 -1.898438 1.648438 -1.828125 1.421875 -1.828125 C 1.179688 -1.828125 0.976562 -1.898438 0.8125 -2.046875 C 0.65625 -2.191406 0.578125 -2.429688 0.578125 -2.765625 Z M 0.578125 -2.765625 "/></g></g></g><g fill="#000000" fill-opacity="1"><g transform="translate(264.959349, 215.302765)"><g/></g></g><g fill="#000000" fill-opacity="1"><g transform="translate(266.4288, 215.302765)"><g/></g></g><g fill="#000000" fill-opacity="1"><g transform="translate(267.898252, 215.302765)"><g/></g></g><g fill="#000000" fill-opacity="1"><g transform="translate(269.367703, 215.302765)"><g/></g></g><g fill="#000000" fill-opacity="1"><g transform="translate(270.837154, 215.302765)"><g/></g></g><g fill="#000000" fill-opacity="1"><g transform="translate(272.306605, 215.302765)"><g/></g></g><g fill="#000000" fill-opacity="1"><g transform="translate(273.776057, 215.302765)"><g/></g></g><g fill="#000000" fill-opacity="1"><g transform="translate(275.245508, 215.302765)"><g/></g></g><g fill="#000000" fill-opacity="1"><g transform="translate(276.714959, 215.302765)"><g/></g></g><g fill="#000000" fill-opacity="1"><g transform="translate(278.184411, 215.302765)"><g/></g></g><g fill="#000000" fill-opacity="1"><g transform="translate(279.653862, 215.302765)"><g/></g></g><g fill="#000000" fill-opacity="1"><g transform="translate(281.124052, 215.302765)"><g><path d="M 1.765625 0 L 1.765625 -0.121094 C 1.460938 -0.121094 1.007812 -0.152344 1.007812 -0.558594 C 1.007812 -0.628906 1.023438 -0.742188 1.054688 -0.808594 L 1.507812 -1.929688 L 3.203125 -1.929688 L 3.765625 -0.582031 C 3.78125 -0.539062 3.792969 -0.476562 3.792969 -0.417969 C 3.792969 -0.175781 3.542969 -0.144531 3.363281 -0.121094 L 3.363281 0 L 5.195312 0 L 5.195312 -0.128906 C 4.914062 -0.136719 4.742188 -0.257812 4.628906 -0.546875 L 2.808594 -4.910156 L 2.597656 -4.910156 L 0.847656 -0.765625 C 0.695312 -0.410156 0.433594 -0.160156 0.0390625 -0.128906 L 0.0390625 0 Z M 2.347656 -3.984375 L 3.152344 -2.050781 L 1.558594 -2.050781 Z M 2.347656 -3.984375 "/></g></g></g><g fill="#000000" fill-opacity="1"><g transform="translate(286.267126, 215.302765)"><g><path d="M 0.0625 -0.128906 L 0.0625 0 L 1.710938 0 L 1.710938 -0.128906 C 1.476562 -0.136719 1.28125 -0.242188 1.28125 -0.539062 L 1.28125 -2.015625 L 1.332031 -2.007812 C 1.554688 -2.007812 1.824219 -2 2.097656 -2.007812 C 2.371094 -2.015625 2.636719 -2.039062 2.839844 -2.097656 C 3.4375 -2.28125 3.75 -2.847656 3.75 -3.460938 C 3.75 -4.074219 3.429688 -4.644531 2.839844 -4.816406 C 2.546875 -4.910156 2.121094 -4.914062 1.800781 -4.914062 C 1.21875 -4.914062 0.644531 -4.910156 0.0625 -4.910156 L 0.0625 -4.785156 C 0.296875 -4.773438 0.5 -4.664062 0.5 -4.371094 L 0.5 -0.539062 C 0.5 -0.242188 0.296875 -0.136719 0.0625 -0.128906 Z M 1.28125 -2.152344 L 1.28125 -4.773438 L 1.332031 -4.773438 C 1.46875 -4.773438 1.652344 -4.773438 1.832031 -4.757812 C 2.015625 -4.75 2.203125 -4.726562 2.332031 -4.664062 C 2.78125 -4.460938 2.921875 -3.878906 2.921875 -3.453125 C 2.921875 -3.039062 2.78125 -2.453125 2.339844 -2.257812 C 2.210938 -2.195312 2.023438 -2.167969 1.839844 -2.160156 C 1.652344 -2.144531 1.46875 -2.152344 1.332031 -2.152344 Z M 1.28125 -2.152344 "/></g></g></g><g fill="#000000" fill-opacity="1"><g transform="translate(290.077092, 215.302765)"><g><path d="M 0.0625 -0.128906 L 0.0625 0 L 1.710938 0 L 1.710938 -0.128906 C 1.476562 -0.136719 1.28125 -0.242188 1.28125 -0.539062 L 1.28125 -2.015625 L 1.332031 -2.007812 C 1.554688 -2.007812 1.824219 -2 2.097656 -2.007812 C 2.371094 -2.015625 2.636719 -2.039062 2.839844 -2.097656 C 3.4375 -2.28125 3.75 -2.847656 3.75 -3.460938 C 3.75 -4.074219 3.429688 -4.644531 2.839844 -4.816406 C 2.546875 -4.910156 2.121094 -4.914062 1.800781 -4.914062 C 1.21875 -4.914062 0.644531 -4.910156 0.0625 -4.910156 L 0.0625 -4.785156 C 0.296875 -4.773438 0.5 -4.664062 0.5 -4.371094 L 0.5 -0.539062 C 0.5 -0.242188 0.296875 -0.136719 0.0625 -0.128906 Z M 1.28125 -2.152344 L 1.28125 -4.773438 L 1.332031 -4.773438 C 1.46875 -4.773438 1.652344 -4.773438 1.832031 -4.757812 C 2.015625 -4.75 2.203125 -4.726562 2.332031 -4.664062 C 2.78125 -4.460938 2.921875 -3.878906 2.921875 -3.453125 C 2.921875 -3.039062 2.78125 -2.453125 2.339844 -2.257812 C 2.210938 -2.195312 2.023438 -2.167969 1.839844 -2.160156 C 1.652344 -2.144531 1.46875 -2.152344 1.332031 -2.152344 Z M 1.28125 -2.152344 "/></g></g></g><g fill="#000000" fill-opacity="1"><g transform="translate(293.887057, 215.302765)"><g><path d="M 1.765625 0 L 1.765625 -0.121094 C 1.460938 -0.121094 1.007812 -0.152344 1.007812 -0.558594 C 1.007812 -0.628906 1.023438 -0.742188 1.054688 -0.808594 L 1.507812 -1.929688 L 3.203125 -1.929688 L 3.765625 -0.582031 C 3.78125 -0.539062 3.792969 -0.476562 3.792969 -0.417969 C 3.792969 -0.175781 3.542969 -0.144531 3.363281 -0.121094 L 3.363281 0 L 5.195312 0 L 5.195312 -0.128906 C 4.914062 -0.136719 4.742188 -0.257812 4.628906 -0.546875 L 2.808594 -4.910156 L 2.597656 -4.910156 L 0.847656 -0.765625 C 0.695312 -0.410156 0.433594 -0.160156 0.0390625 -0.128906 L 0.0390625 0 Z M 2.347656 -3.984375 L 3.152344 -2.050781 L 1.558594 -2.050781 Z M 2.347656 -3.984375 "/></g></g></g><g fill="#000000" fill-opacity="1"><g transform="translate(299.030132, 215.302765)"><g><path d="M 0.105469 -4.785156 C 0.339844 -4.773438 0.546875 -4.664062 0.546875 -4.371094 L 0.546875 -0.539062 C 0.546875 -0.242188 0.339844 -0.136719 0.105469 -0.128906 L 0.105469 0 L 1.679688 0 L 1.679688 -0.121094 C 1.429688 -0.136719 1.324219 -0.273438 1.324219 -0.539062 L 1.324219 -2.339844 L 1.429688 -2.339844 C 1.992188 -2.339844 2.226562 -2.066406 2.421875 -1.574219 C 2.515625 -1.339844 2.582031 -1.082031 2.660156 -0.847656 C 2.808594 -0.363281 2.976562 0 3.339844 0 L 4.152344 0 L 4.152344 -0.128906 C 3.9375 -0.167969 3.800781 -0.3125 3.695312 -0.5 C 3.644531 -0.597656 3.597656 -0.71875 3.542969 -0.839844 C 3.5 -0.960938 3.453125 -1.089844 3.410156 -1.21875 C 3.210938 -1.734375 2.953125 -2.339844 2.273438 -2.378906 C 3.082031 -2.378906 3.789062 -2.75 3.789062 -3.636719 C 3.789062 -4.21875 3.453125 -4.671875 2.894531 -4.824219 C 2.566406 -4.914062 2.210938 -4.914062 1.863281 -4.914062 C 1.28125 -4.914062 0.695312 -4.910156 0.105469 -4.910156 Z M 1.378906 -4.800781 C 1.515625 -4.800781 1.695312 -4.800781 1.878906 -4.785156 C 2.058594 -4.78125 2.242188 -4.75 2.378906 -4.695312 C 2.800781 -4.523438 2.96875 -4.042969 2.96875 -3.636719 C 2.96875 -3.21875 2.800781 -2.742188 2.378906 -2.566406 C 2.242188 -2.515625 2.058594 -2.492188 1.878906 -2.476562 C 1.695312 -2.460938 1.515625 -2.46875 1.378906 -2.46875 L 1.324219 -2.46875 L 1.324219 -4.800781 Z M 1.378906 -4.800781 "/></g></g></g><g fill="#000000" fill-opacity="1"><g transform="translate(303.135502, 215.302765)"><g><path d="M 0.0664062 0 L 3.808594 0 L 4.113281 -1.429688 L 3.992188 -1.4375 C 3.921875 -1.28125 3.871094 -1.113281 3.792969 -0.945312 C 3.574219 -0.460938 3.25 -0.121094 2.671875 -0.121094 L 1.289062 -0.121094 L 1.289062 -2.316406 L 2.175781 -2.308594 C 2.289062 -2.308594 2.410156 -2.308594 2.515625 -2.296875 C 2.871094 -2.273438 3.128906 -2.128906 3.152344 -1.726562 L 3.273438 -1.726562 L 3.273438 -3.171875 L 3.160156 -3.171875 C 3.128906 -2.574219 2.6875 -2.460938 2.175781 -2.460938 C 1.894531 -2.453125 1.621094 -2.453125 1.339844 -2.453125 L 1.289062 -2.445312 L 1.289062 -4.785156 L 2.308594 -4.785156 C 2.9375 -4.785156 3.332031 -4.492188 3.597656 -3.9375 C 3.667969 -3.789062 3.71875 -3.628906 3.789062 -3.46875 L 3.910156 -3.476562 L 3.605469 -4.910156 L 0.0664062 -4.910156 L 0.0664062 -4.785156 C 0.304688 -4.773438 0.507812 -4.664062 0.507812 -4.371094 L 0.507812 -0.539062 C 0.507812 -0.242188 0.304688 -0.136719 0.0664062 -0.128906 Z M 0.0664062 0 "/></g></g></g><g fill="#000000" fill-opacity="1"><g transform="translate(307.271172, 215.302765)"><g><path d="M 0.0546875 -4.910156 L 0.0546875 -4.785156 C 0.289062 -4.773438 0.492188 -4.664062 0.492188 -4.371094 L 0.492188 -0.539062 C 0.492188 -0.242188 0.289062 -0.136719 0.0546875 -0.128906 L 0.0546875 0 L 3.574219 0 L 3.871094 -1.082031 L 3.75 -1.089844 C 3.417969 -0.394531 2.644531 -0.121094 1.9375 -0.121094 L 1.289062 -0.121094 L 1.273438 -4.371094 C 1.273438 -4.664062 1.46875 -4.773438 1.703125 -4.785156 L 1.703125 -4.910156 Z M 0.0546875 -4.910156 "/></g></g></g><path stroke-linecap="butt" transform="matrix(0.749998, -0.00183825, 0.00183825, 0.749998, 136.767564, 194.335154)" fill="none" stroke-linejoin="miter" d="M -0.00228199 2.001046 L 267.639158 2.000784 " stroke="#000000" stroke-width="4" stroke-opacity="1" stroke-miterlimit="4"/></svg>