<svg xmlns="http://www.w3.org/2000/svg" xmlns:xlink="http://www.w3.org/1999/xlink" width="500" zoomAndPan="magnify" viewBox="0 0 375 374.999991" height="500" preserveAspectRatio="xMidYMid meet" version="1.0"><defs><g/><clipPath id="6f8b90215e"><path d="M 132 45 L 246 45 L 246 145 L 132 145 Z M 132 45 " clip-rule="nonzero"/></clipPath><clipPath id="d6d31b6b02"><path d="M 189.722656 31.433594 L 245.296875 87.003906 L 187.613281 144.6875 L 132.042969 89.117188 Z M 189.722656 31.433594 " clip-rule="nonzero"/></clipPath><clipPath id="d56ab9a3c8"><path d="M 189.722656 31.433594 L 305.089844 146.796875 L 185.503906 266.382812 L 70.140625 151.019531 Z M 189.722656 31.433594 " clip-rule="nonzero"/></clipPath><clipPath id="ad1e5f9275"><path d="M 189.722656 31.433594 L 305.089844 146.796875 L 185.503906 266.382812 L 70.140625 151.019531 Z M 189.722656 31.433594 " clip-rule="nonzero"/></clipPath><clipPath id="95627422d1"><path d="M 96 79 L 236 79 L 236 168 L 96 168 Z M 96 79 " clip-rule="nonzero"/></clipPath><clipPath id="7e30145e56"><path d="M 144.0625 79.144531 L 235.507812 170.589844 L 166.570312 239.527344 L 75.125 148.082031 Z M 144.0625 79.144531 " clip-rule="nonzero"/></clipPath><clipPath id="37ce14e960"><path d="M 198.578125 24.628906 L 317.457031 143.507812 L 194.355469 266.613281 L 75.472656 147.730469 Z M 198.578125 24.628906 " clip-rule="nonzero"/></clipPath><clipPath id="e46536fb1d"><path d="M 198.578125 24.628906 L 317.457031 143.507812 L 194.355469 266.613281 L 75.472656 147.730469 Z M 198.578125 24.628906 " clip-rule="nonzero"/></clipPath><clipPath id="ef644c64f1"><path d="M 182.53125 103 L 198 103 L 198 272 L 182.53125 272 Z M 182.53125 103 " clip-rule="nonzero"/></clipPath><clipPath id="b2f6b2356a"><path d="M 191 102 L 308.871094 102 L 308.871094 306.746094 L 191 306.746094 Z M 191 102 " clip-rule="nonzero"/></clipPath><clipPath id="3e287b3441"><path d="M 192 246 L 238 246 L 238 311 L 192 311 Z M 192 246 " clip-rule="nonzero"/></clipPath><clipPath id="455d9e84ee"><path d="M 184.96875 300.242188 L 199.113281 246.355469 L 237.601562 256.460938 L 223.457031 310.34375 Z M 184.96875 300.242188 " clip-rule="nonzero"/></clipPath><clipPath id="85cebc4f0b"><path d="M 169.101562 360.699219 L 238.050781 98.011719 L 276.542969 108.113281 L 207.589844 370.800781 Z M 169.101562 360.699219 " clip-rule="nonzero"/></clipPath><clipPath id="c4283c3c86"><path d="M 194 262 L 241 262 L 241 327 L 194 327 Z M 194 262 " clip-rule="nonzero"/></clipPath><clipPath id="2eb8bd1d72"><path d="M 187.410156 316.855469 L 201.554688 262.972656 L 240.042969 273.074219 L 225.902344 326.960938 Z M 187.410156 316.855469 " clip-rule="nonzero"/></clipPath><clipPath id="226cde3bc5"><path d="M 171.542969 377.3125 L 240.496094 114.628906 L 278.984375 124.730469 L 210.03125 387.417969 Z M 171.542969 377.3125 " clip-rule="nonzero"/></clipPath><clipPath id="a1a61bb9a4"><path d="M 201 262 L 247 262 L 247 327 L 201 327 Z M 201 262 " clip-rule="nonzero"/></clipPath><clipPath id="cf04813aa2"><path d="M 193.644531 316.855469 L 207.785156 262.972656 L 246.277344 273.074219 L 232.132812 326.960938 Z M 193.644531 316.855469 " clip-rule="nonzero"/></clipPath><clipPath id="fd6fa17d7b"><path d="M 177.773438 377.3125 L 246.726562 114.628906 L 285.214844 124.730469 L 216.261719 387.417969 Z M 177.773438 377.3125 " clip-rule="nonzero"/></clipPath><clipPath id="382ca0fada"><path d="M 207 262 L 253 262 L 253 327 L 207 327 Z M 207 262 " clip-rule="nonzero"/></clipPath><clipPath id="2d19308010"><path d="M 199.875 316.855469 L 214.019531 262.972656 L 252.507812 273.074219 L 238.363281 326.960938 Z M 199.875 316.855469 " clip-rule="nonzero"/></clipPath><clipPath id="e0dde3f13e"><path d="M 184.003906 377.3125 L 252.957031 114.628906 L 291.445312 124.730469 L 222.492188 387.417969 Z M 184.003906 377.3125 " clip-rule="nonzero"/></clipPath><clipPath id="450df23aeb"><path d="M 210 279 L 256 279 L 256 344 L 210 344 Z M 210 279 " clip-rule="nonzero"/></clipPath><clipPath id="1e435d5f0d"><path d="M 203.003906 333.472656 L 217.144531 279.589844 L 255.636719 289.691406 L 241.492188 343.574219 Z M 203.003906 333.472656 " clip-rule="nonzero"/></clipPath><clipPath id="42c247e72a"><path d="M 187.132812 393.929688 L 256.085938 131.246094 L 294.574219 141.347656 L 225.621094 404.03125 Z M 187.132812 393.929688 " clip-rule="nonzero"/></clipPath><clipPath id="db23c904db"><path d="M 229.339844 128.546875 L 274.054688 128.546875 L 274.054688 173.257812 L 229.339844 173.257812 Z M 229.339844 128.546875 " clip-rule="nonzero"/></clipPath><clipPath id="ff4d28005c"><path d="M 251.699219 128.546875 C 239.351562 128.546875 229.339844 138.554688 229.339844 150.902344 C 229.339844 163.25 239.351562 173.257812 251.699219 173.257812 C 264.042969 173.257812 274.054688 163.25 274.054688 150.902344 C 274.054688 138.554688 264.042969 128.546875 251.699219 128.546875 Z M 251.699219 128.546875 " clip-rule="nonzero"/></clipPath><clipPath id="dfb0bb6a62"><path d="M 231 125 L 251 125 L 251 148 L 231 148 Z M 231 125 " clip-rule="nonzero"/></clipPath><clipPath id="53960b9a03"><path d="M 250.660156 125.171875 L 251.0625 147 L 231.992188 147.355469 L 231.585938 125.523438 Z M 250.660156 125.171875 " clip-rule="nonzero"/></clipPath><clipPath id="e65a458482"><path d="M 250.859375 136.070312 L 231.988281 147.324219 L 231.585938 125.523438 Z M 250.859375 136.070312 " clip-rule="nonzero"/></clipPath><clipPath id="898bc852c5"><path d="M 247.933594 125.480469 L 267.007812 125.480469 L 267.007812 147.3125 L 247.933594 147.3125 Z M 247.933594 125.480469 " clip-rule="nonzero"/></clipPath><clipPath id="cb19c26c73"><path d="M 247.933594 136.414062 L 267.007812 125.511719 L 267.007812 147.3125 Z M 247.933594 136.414062 " clip-rule="nonzero"/></clipPath><clipPath id="ca26f02e38"><path d="M 247.171875 145.6875 L 252.558594 145.6875 L 252.558594 150.476562 L 247.171875 150.476562 Z M 247.171875 145.6875 " clip-rule="nonzero"/></clipPath><clipPath id="482b3e0f59"><path d="M 249.863281 145.6875 C 248.375 145.6875 247.171875 146.761719 247.171875 148.082031 C 247.171875 149.40625 248.375 150.476562 249.863281 150.476562 C 251.347656 150.476562 252.554688 149.40625 252.554688 148.082031 C 252.554688 146.761719 251.347656 145.6875 249.863281 145.6875 Z M 249.863281 145.6875 " clip-rule="nonzero"/></clipPath><clipPath id="790d580331"><path d="M 245.59375 132.710938 L 253.011719 132.710938 L 253.011719 140.125 L 245.59375 140.125 Z M 245.59375 132.710938 " clip-rule="nonzero"/></clipPath><clipPath id="28f2171b4a"><path d="M 249.300781 132.710938 C 247.253906 132.710938 245.59375 134.371094 245.59375 136.417969 C 245.59375 138.464844 247.253906 140.125 249.300781 140.125 C 251.351562 140.125 253.011719 138.464844 253.011719 136.417969 C 253.011719 134.371094 251.351562 132.710938 249.300781 132.710938 Z M 249.300781 132.710938 " clip-rule="nonzero"/></clipPath><clipPath id="b1839614f1"><path d="M 247.628906 154.457031 L 253.015625 154.457031 L 253.015625 159.246094 L 247.628906 159.246094 Z M 247.628906 154.457031 " clip-rule="nonzero"/></clipPath><clipPath id="e61e4a03ef"><path d="M 250.320312 154.457031 C 248.832031 154.457031 247.628906 155.53125 247.628906 156.851562 C 247.628906 158.175781 248.832031 159.246094 250.320312 159.246094 C 251.804688 159.246094 253.011719 158.175781 253.011719 156.851562 C 253.011719 155.53125 251.804688 154.457031 250.320312 154.457031 Z M 250.320312 154.457031 " clip-rule="nonzero"/></clipPath></defs><g clip-path="url(#6f8b90215e)"><g clip-path="url(#d6d31b6b02)"><g clip-path="url(#d56ab9a3c8)"><g clip-path="url(#ad1e5f9275)"><path fill="#000000" d="M 273.285156 143.992188 L 192.59375 99.167969 C 191.4375 98.476562 190.054688 98.011719 188.90625 97.78125 L 188.894531 92.710938 C 202.25 90.894531 211.441406 78.011719 208.191406 64.1875 C 204.476562 47.136719 183.964844 40.421875 171.085938 50.992188 C 165.566406 55.589844 162.355469 62.03125 162.367188 69.402344 C 162.371094 71.246094 163.753906 72.628906 165.597656 72.632812 C 167.441406 72.636719 168.820312 71.257812 168.816406 69.414062 C 168.808594 63.886719 171.101562 59.285156 175.011719 55.835938 C 184.441406 48.714844 199.1875 52.886719 201.976562 65.328125 C 204.527344 76.15625 196.253906 86.277344 185.660156 86.257812 C 183.816406 86.253906 182.4375 87.632812 182.441406 89.476562 L 182.457031 97.769531 C 181.304688 97.996094 179.921875 98.453125 178.773438 99.144531 L 98.242188 143.683594 C 85.585938 150.800781 90.457031 170.386719 105.199219 170.410156 C 107.039062 170.414062 108.417969 169.035156 108.417969 167.191406 C 108.414062 165.351562 107.027344 163.964844 105.1875 163.960938 C 97.355469 163.949219 94.574219 153.347656 101.476562 149.675781 L 182.007812 105.136719 C 184.308594 103.757812 187.074219 103.765625 189.378906 105.152344 L 270.300781 149.746094 C 277.214844 153.441406 274.46875 164.03125 266.640625 164.019531 C 264.796875 164.015625 263.417969 165.394531 263.421875 167.238281 C 263.425781 169.082031 264.808594 170.464844 266.652344 170.46875 C 281.160156 170.722656 285.964844 151.15625 273.285156 143.992188 Z M 273.285156 143.992188 " fill-opacity="1" fill-rule="nonzero"/></g></g></g></g><g clip-path="url(#95627422d1)"><g clip-path="url(#7e30145e56)"><g clip-path="url(#37ce14e960)"><g clip-path="url(#e46536fb1d)"><path fill="#000000" d="M 284.695312 140.605469 L 201.566406 94.394531 C 200.378906 93.679688 198.953125 93.203125 197.765625 92.960938 L 197.753906 87.742188 C 211.507812 85.878906 220.96875 72.617188 217.613281 58.375 C 213.777344 40.8125 192.648438 33.882812 179.390625 44.765625 C 173.707031 49.496094 170.402344 56.128906 170.421875 63.722656 C 170.425781 65.617188 171.851562 67.046875 173.75 67.050781 C 175.648438 67.054688 177.066406 65.632812 177.0625 63.738281 C 177.050781 58.042969 179.410156 53.304688 183.433594 49.757812 C 193.144531 42.425781 208.335938 46.730469 211.210938 59.546875 C 213.847656 70.699219 205.332031 81.117188 194.417969 81.09375 C 192.519531 81.089844 191.101562 82.507812 191.105469 84.40625 L 191.125 92.945312 C 189.941406 93.179688 188.515625 93.652344 187.332031 94.359375 L 104.414062 140.1875 C 91.386719 147.511719 96.414062 167.6875 111.59375 167.722656 C 113.492188 167.726562 114.914062 166.304688 114.910156 164.40625 C 114.90625 162.511719 113.476562 161.082031 111.582031 161.078125 C 103.515625 161.058594 100.644531 150.140625 107.75 146.363281 L 190.667969 100.535156 C 193.039062 99.117188 195.882812 99.125 198.257812 100.554688 L 281.628906 146.527344 C 288.753906 150.339844 285.929688 161.246094 277.867188 161.226562 C 275.96875 161.222656 274.546875 162.644531 274.550781 164.539062 C 274.558594 166.4375 275.984375 167.863281 277.882812 167.867188 C 292.824219 168.140625 297.761719 147.988281 284.695312 140.605469 Z M 284.695312 140.605469 " fill-opacity="1" fill-rule="nonzero"/></g></g></g></g><path stroke-linecap="butt" transform="matrix(0, -0.994815, 0.994815, 0, 170.300837, 249.318617)" fill="none" stroke-linejoin="miter" d="M -0.00170411 0.498623 L 70.928583 0.498623 " stroke="#000000" stroke-width="1" stroke-opacity="1" stroke-miterlimit="4"/><g clip-path="url(#ef644c64f1)"><path fill="#000000" d="M 197.136719 229.03125 C 193.492188 243.015625 190.734375 257.175781 188.863281 271.507812 C 186.78125 267.242188 185.203125 262.796875 184.132812 258.171875 C 183.0625 253.546875 182.53125 248.863281 182.53125 244.117188 L 182.53125 103.207031 L 197.136719 103.207031 Z M 197.136719 229.03125 " fill-opacity="1" fill-rule="nonzero"/></g><path fill="#000000" d="M 266.515625 148.800781 C 266.515625 149.339844 266.488281 149.875 266.4375 150.410156 C 266.382812 150.945312 266.304688 151.476562 266.199219 152.003906 C 266.09375 152.53125 265.964844 153.050781 265.808594 153.566406 C 265.652344 154.082031 265.46875 154.585938 265.265625 155.082031 C 265.058594 155.578125 264.828125 156.066406 264.574219 156.539062 C 264.320312 157.011719 264.042969 157.472656 263.746094 157.921875 C 263.445312 158.367188 263.125 158.800781 262.785156 159.214844 C 262.445312 159.628906 262.082031 160.027344 261.703125 160.410156 C 261.320312 160.789062 260.921875 161.148438 260.507812 161.488281 C 260.089844 161.832031 259.660156 162.152344 259.210938 162.449219 C 258.765625 162.75 258.304688 163.023438 257.828125 163.277344 C 257.355469 163.53125 256.867188 163.761719 256.371094 163.964844 C 255.875 164.171875 255.367188 164.351562 254.851562 164.507812 C 254.339844 164.664062 253.816406 164.796875 253.289062 164.902344 C 252.761719 165.003906 252.230469 165.085938 251.695312 165.136719 C 251.15625 165.191406 250.621094 165.214844 250.082031 165.214844 C 249.546875 165.214844 249.007812 165.191406 248.472656 165.136719 C 247.9375 165.085938 247.40625 165.003906 246.878906 164.902344 C 246.351562 164.796875 245.828125 164.664062 245.3125 164.507812 C 244.796875 164.351562 244.292969 164.171875 243.796875 163.964844 C 243.296875 163.761719 242.8125 163.53125 242.335938 163.277344 C 241.863281 163.023438 241.402344 162.75 240.953125 162.449219 C 240.507812 162.152344 240.074219 161.832031 239.660156 161.488281 C 239.242188 161.148438 238.84375 160.789062 238.464844 160.410156 C 238.082031 160.027344 237.722656 159.628906 237.382812 159.214844 C 237.039062 158.800781 236.71875 158.367188 236.421875 157.921875 C 236.121094 157.472656 235.84375 157.011719 235.589844 156.539062 C 235.339844 156.066406 235.109375 155.578125 234.902344 155.082031 C 234.695312 154.585938 234.515625 154.082031 234.359375 153.566406 C 234.203125 153.050781 234.070312 152.53125 233.96875 152.003906 C 233.863281 151.476562 233.785156 150.945312 233.730469 150.410156 C 233.679688 149.875 233.652344 149.339844 233.652344 148.800781 C 233.652344 148.265625 233.679688 147.726562 233.730469 147.191406 C 233.785156 146.65625 233.863281 146.125 233.96875 145.597656 C 234.070312 145.070312 234.203125 144.550781 234.359375 144.035156 C 234.515625 143.523438 234.695312 143.015625 234.902344 142.519531 C 235.109375 142.023438 235.339844 141.539062 235.589844 141.0625 C 235.84375 140.589844 236.121094 140.128906 236.421875 139.683594 C 236.71875 139.234375 237.039062 138.804688 237.382812 138.386719 C 237.722656 137.972656 238.082031 137.574219 238.464844 137.195312 C 238.84375 136.816406 239.242188 136.453125 239.660156 136.113281 C 240.074219 135.773438 240.507812 135.453125 240.953125 135.152344 C 241.402344 134.855469 241.863281 134.578125 242.335938 134.324219 C 242.8125 134.070312 243.296875 133.84375 243.796875 133.636719 C 244.292969 133.429688 244.796875 133.25 245.3125 133.09375 C 245.828125 132.9375 246.351562 132.808594 246.878906 132.703125 C 247.40625 132.597656 247.9375 132.519531 248.472656 132.464844 C 249.007812 132.414062 249.546875 132.386719 250.082031 132.386719 C 250.621094 132.386719 251.15625 132.414062 251.695312 132.464844 C 252.230469 132.519531 252.761719 132.597656 253.289062 132.703125 C 253.816406 132.808594 254.339844 132.9375 254.851562 133.09375 C 255.367188 133.25 255.875 133.429688 256.371094 133.636719 C 256.867188 133.84375 257.355469 134.070312 257.828125 134.324219 C 258.304688 134.578125 258.765625 134.855469 259.210938 135.152344 C 259.660156 135.453125 260.089844 135.773438 260.507812 136.113281 C 260.921875 136.453125 261.320312 136.816406 261.703125 137.195312 C 262.082031 137.574219 262.445312 137.972656 262.785156 138.386719 C 263.125 138.804688 263.445312 139.234375 263.746094 139.683594 C 264.042969 140.128906 264.320312 140.589844 264.574219 141.0625 C 264.828125 141.539062 265.058594 142.023438 265.265625 142.519531 C 265.46875 143.015625 265.652344 143.523438 265.808594 144.035156 C 265.964844 144.550781 266.09375 145.070312 266.199219 145.597656 C 266.304688 146.125 266.382812 146.65625 266.4375 147.191406 C 266.488281 147.726562 266.515625 148.265625 266.515625 148.800781 Z M 266.515625 148.800781 " fill-opacity="1" fill-rule="nonzero"/><path fill="#000000" d="M 277.46875 239.992188 C 277.46875 240.890625 277.425781 241.78125 277.335938 242.675781 C 277.25 243.566406 277.117188 244.453125 276.941406 245.328125 C 276.769531 246.207031 276.550781 247.078125 276.289062 247.933594 C 276.03125 248.792969 275.726562 249.632812 275.382812 250.460938 C 275.042969 251.289062 274.660156 252.097656 274.234375 252.890625 C 273.8125 253.679688 273.351562 254.445312 272.855469 255.191406 C 272.355469 255.9375 271.820312 256.65625 271.253906 257.347656 C 270.683594 258.039062 270.082031 258.703125 269.449219 259.335938 C 268.8125 259.972656 268.148438 260.570312 267.457031 261.140625 C 266.761719 261.707031 266.042969 262.242188 265.296875 262.738281 C 264.550781 263.238281 263.785156 263.699219 262.992188 264.121094 C 262.203125 264.542969 261.390625 264.925781 260.5625 265.269531 C 259.734375 265.609375 258.890625 265.914062 258.03125 266.171875 C 257.175781 266.433594 256.304688 266.648438 255.425781 266.824219 C 254.546875 267 253.660156 267.128906 252.765625 267.21875 C 251.875 267.304688 250.980469 267.351562 250.082031 267.351562 C 249.1875 267.351562 248.292969 267.304688 247.398438 267.21875 C 246.507812 267.128906 245.621094 267 244.742188 266.824219 C 243.859375 266.648438 242.992188 266.433594 242.132812 266.171875 C 241.273438 265.914062 240.429688 265.609375 239.601562 265.269531 C 238.773438 264.925781 237.964844 264.542969 237.171875 264.121094 C 236.382812 263.699219 235.613281 263.238281 234.867188 262.738281 C 234.121094 262.242188 233.402344 261.707031 232.710938 261.140625 C 232.015625 260.570312 231.351562 259.972656 230.71875 259.335938 C 230.085938 258.703125 229.484375 258.039062 228.914062 257.347656 C 228.34375 256.65625 227.8125 255.9375 227.3125 255.191406 C 226.8125 254.445312 226.355469 253.679688 225.929688 252.890625 C 225.507812 252.097656 225.125 251.289062 224.78125 250.460938 C 224.4375 249.632812 224.136719 248.792969 223.875 247.933594 C 223.617188 247.078125 223.398438 246.207031 223.222656 245.328125 C 223.046875 244.453125 222.917969 243.566406 222.828125 242.675781 C 222.742188 241.78125 222.695312 240.890625 222.695312 239.992188 C 222.695312 239.097656 222.742188 238.203125 222.828125 237.3125 C 222.917969 236.417969 223.046875 235.535156 223.222656 234.65625 C 223.398438 233.777344 223.617188 232.910156 223.875 232.050781 C 224.136719 231.195312 224.4375 230.351562 224.78125 229.523438 C 225.125 228.695312 225.507812 227.886719 225.929688 227.097656 C 226.355469 226.304688 226.8125 225.539062 227.3125 224.792969 C 227.8125 224.050781 228.34375 223.332031 228.914062 222.636719 C 229.484375 221.945312 230.085938 221.28125 230.71875 220.648438 C 231.351562 220.015625 232.015625 219.414062 232.710938 218.84375 C 233.402344 218.277344 234.121094 217.742188 234.867188 217.246094 C 235.613281 216.75 236.382812 216.289062 237.171875 215.867188 C 237.964844 215.445312 238.773438 215.0625 239.601562 214.71875 C 240.429688 214.375 241.273438 214.074219 242.132812 213.8125 C 242.992188 213.554688 243.859375 213.335938 244.742188 213.160156 C 245.621094 212.988281 246.507812 212.855469 247.398438 212.765625 C 248.292969 212.679688 249.1875 212.636719 250.082031 212.636719 C 250.980469 212.636719 251.875 212.679688 252.765625 212.765625 C 253.660156 212.855469 254.546875 212.988281 255.425781 213.160156 C 256.304688 213.335938 257.175781 213.554688 258.03125 213.8125 C 258.890625 214.074219 259.734375 214.375 260.5625 214.71875 C 261.390625 215.0625 262.203125 215.445312 262.992188 215.867188 C 263.785156 216.289062 264.550781 216.75 265.296875 217.246094 C 266.042969 217.742188 266.761719 218.277344 267.457031 218.84375 C 268.148438 219.414062 268.8125 220.015625 269.449219 220.648438 C 270.082031 221.28125 270.683594 221.945312 271.253906 222.636719 C 271.820312 223.332031 272.355469 224.050781 272.855469 224.792969 C 273.351562 225.539062 273.8125 226.304688 274.234375 227.097656 C 274.660156 227.886719 275.042969 228.695312 275.382812 229.523438 C 275.726562 230.351562 276.03125 231.195312 276.289062 232.050781 C 276.550781 232.910156 276.769531 233.777344 276.941406 234.65625 C 277.117188 235.535156 277.25 236.417969 277.335938 237.3125 C 277.425781 238.203125 277.46875 239.097656 277.46875 239.992188 Z M 277.46875 239.992188 " fill-opacity="1" fill-rule="nonzero"/><g clip-path="url(#b2f6b2356a)"><path fill="#000000" d="M 250.523438 181.53125 C 247.632812 181.28125 244.835938 180.628906 242.132812 179.582031 L 239.074219 178.417969 C 237.625 177.894531 236.21875 177.269531 234.855469 176.539062 C 233.496094 175.8125 232.195312 174.992188 230.953125 174.074219 C 229.710938 173.15625 228.542969 172.15625 227.445312 171.070312 C 226.347656 169.984375 225.335938 168.828125 224.410156 167.59375 C 223.480469 166.363281 222.644531 165.070312 221.90625 163.714844 C 221.164062 162.363281 220.527344 160.964844 219.988281 159.519531 C 219.449219 158.074219 219.019531 156.597656 218.695312 155.089844 C 218.375 153.582031 218.160156 152.058594 218.058594 150.519531 C 218.035156 149.832031 218.035156 149.144531 218.054688 148.453125 C 218.074219 147.765625 218.121094 147.082031 218.183594 146.394531 C 218.25 145.710938 218.339844 145.027344 218.449219 144.347656 C 218.558594 143.667969 218.691406 142.992188 218.84375 142.324219 C 219 141.652344 219.171875 140.988281 219.371094 140.328125 C 219.566406 139.667969 219.785156 139.015625 220.023438 138.371094 C 220.265625 137.722656 220.523438 137.085938 220.804688 136.457031 C 221.085938 135.832031 221.386719 135.210938 221.707031 134.601562 C 222.027344 133.992188 222.367188 133.394531 222.726562 132.808594 C 223.085938 132.21875 223.464844 131.644531 223.859375 131.082031 C 224.257812 130.519531 224.671875 129.972656 225.105469 129.433594 C 225.535156 128.898438 225.984375 128.378906 226.453125 127.871094 C 226.917969 127.363281 227.402344 126.875 227.898438 126.398438 C 228.398438 125.921875 228.910156 125.464844 229.4375 125.019531 C 229.964844 124.578125 230.507812 124.152344 231.0625 123.746094 C 231.617188 123.339844 232.183594 122.949219 232.765625 122.578125 C 233.347656 122.207031 233.9375 121.855469 234.542969 121.523438 C 235.144531 121.191406 235.757812 120.878906 236.382812 120.585938 C 237.003906 120.292969 237.636719 120.023438 238.277344 119.769531 C 238.921875 119.519531 239.570312 119.289062 240.226562 119.078125 C 240.882812 118.867188 241.542969 118.679688 242.210938 118.511719 C 242.878906 118.347656 243.554688 118.203125 244.230469 118.078125 C 244.910156 117.953125 245.589844 117.855469 246.273438 117.773438 C 246.960938 117.695312 247.644531 117.636719 248.332031 117.601562 C 249.023438 117.570312 249.710938 117.554688 250.398438 117.566406 C 251.089844 117.574219 251.777344 117.605469 252.460938 117.660156 C 253.148438 117.714844 253.832031 117.792969 254.515625 117.890625 C 255.199219 117.988281 255.875 118.109375 256.550781 118.25 C 257.222656 118.394531 257.890625 118.558594 258.554688 118.742188 C 259.21875 118.929688 259.875 119.136719 260.527344 119.363281 C 261.175781 119.59375 261.816406 119.839844 262.453125 120.109375 C 263.085938 120.382812 263.710938 120.671875 264.324219 120.980469 C 265.328125 121.484375 266.300781 122.042969 267.242188 122.648438 C 268.183594 123.257812 269.09375 123.914062 269.964844 124.617188 C 270.839844 125.320312 271.671875 126.066406 272.46875 126.855469 C 273.261719 127.648438 274.015625 128.476562 274.722656 129.347656 C 275.429688 130.21875 276.085938 131.121094 276.699219 132.0625 C 277.3125 133 277.871094 133.96875 278.378906 134.96875 C 278.890625 135.96875 279.34375 136.988281 279.746094 138.035156 C 280.148438 139.082031 280.492188 140.148438 280.78125 141.230469 C 281.070312 142.3125 281.300781 143.410156 281.476562 144.515625 C 281.648438 145.621094 281.765625 146.734375 281.820312 147.855469 C 281.875 148.976562 281.875 150.09375 281.8125 151.210938 C 281.75 152.332031 281.628906 153.445312 281.449219 154.550781 C 281.269531 155.65625 281.03125 156.75 280.738281 157.832031 C 280.441406 158.914062 280.089844 159.976562 279.683594 161.019531 C 279.277344 162.0625 278.816406 163.082031 278.300781 164.078125 C 277.785156 165.074219 277.21875 166.042969 276.601562 166.976562 L 288.804688 175 C 289.304688 174.238281 289.785156 173.464844 290.238281 172.675781 C 290.695312 171.890625 291.128906 171.089844 291.535156 170.277344 C 291.945312 169.460938 292.328125 168.636719 292.6875 167.800781 C 293.046875 166.964844 293.382812 166.121094 293.691406 165.265625 C 294.003906 164.410156 294.289062 163.546875 294.546875 162.671875 C 294.804688 161.800781 295.039062 160.921875 295.246094 160.035156 C 295.457031 159.148438 295.636719 158.257812 295.792969 157.363281 C 295.949219 156.464844 296.078125 155.566406 296.179688 154.660156 C 296.28125 153.757812 296.355469 152.851562 296.40625 151.941406 C 296.453125 151.035156 296.476562 150.125 296.472656 149.214844 C 296.46875 148.304688 296.4375 147.394531 296.378906 146.488281 C 296.320312 145.578125 296.238281 144.675781 296.125 143.769531 C 296.015625 142.867188 295.878906 141.96875 295.714844 141.074219 C 295.550781 140.179688 295.359375 139.289062 295.144531 138.40625 C 294.925781 137.523438 294.683594 136.644531 294.417969 135.777344 C 294.148438 134.90625 293.855469 134.046875 293.539062 133.191406 C 293.21875 132.339844 292.875 131.496094 292.507812 130.664062 C 292.140625 129.832031 291.746094 129.011719 291.332031 128.203125 C 290.914062 127.394531 290.476562 126.597656 290.011719 125.8125 C 289.550781 125.03125 289.0625 124.261719 288.554688 123.507812 C 288.046875 122.75 287.515625 122.011719 286.964844 121.289062 C 286.414062 120.5625 285.839844 119.855469 285.246094 119.167969 C 284.65625 118.476562 284.042969 117.804688 283.410156 117.148438 C 282.777344 116.496094 282.125 115.859375 281.453125 115.242188 C 280.785156 114.628906 280.097656 114.03125 279.390625 113.457031 C 278.683594 112.878906 277.964844 112.324219 277.226562 111.792969 C 276.488281 111.257812 275.734375 110.746094 274.96875 110.257812 C 274.199219 109.769531 273.417969 109.300781 272.621094 108.859375 C 271.828125 108.414062 271.019531 107.996094 270.199219 107.601562 C 269.378906 107.203125 268.546875 106.832031 267.707031 106.484375 C 266.863281 106.136719 266.011719 105.816406 265.152344 105.519531 C 264.292969 105.222656 263.421875 104.949219 262.546875 104.703125 C 261.667969 104.457031 260.785156 104.234375 259.894531 104.042969 C 259.003906 103.847656 258.109375 103.679688 257.210938 103.535156 C 256.3125 103.394531 255.410156 103.28125 254.503906 103.191406 C 253.597656 103.101562 252.6875 103.039062 251.777344 103.003906 C 250.867188 102.96875 249.957031 102.960938 249.046875 102.976562 C 248.136719 102.996094 247.226562 103.039062 246.316406 103.109375 C 245.410156 103.179688 244.503906 103.277344 243.601562 103.402344 C 242.699219 103.527344 241.800781 103.675781 240.910156 103.855469 C 240.015625 104.03125 239.128906 104.234375 238.246094 104.464844 C 237.363281 104.691406 236.492188 104.945312 235.625 105.226562 C 234.757812 105.507812 233.898438 105.8125 233.050781 106.144531 C 232.203125 106.472656 231.363281 106.828125 230.539062 107.207031 C 229.710938 107.589844 228.894531 107.992188 228.089844 108.417969 C 227.285156 108.847656 226.496094 109.296875 225.71875 109.773438 C 224.941406 110.246094 224.175781 110.742188 223.429688 111.261719 C 222.679688 111.78125 221.949219 112.320312 221.230469 112.882812 C 220.515625 113.445312 219.816406 114.027344 219.132812 114.628906 C 218.453125 115.230469 217.789062 115.855469 217.140625 116.496094 C 216.496094 117.136719 215.871094 117.796875 215.261719 118.476562 C 214.65625 119.15625 214.070312 119.851562 213.503906 120.5625 C 212.9375 121.277344 212.394531 122.003906 211.871094 122.75 C 211.347656 123.496094 210.847656 124.253906 210.367188 125.027344 C 209.890625 125.800781 209.433594 126.589844 209 127.390625 C 208.570312 128.191406 208.160156 129.003906 207.777344 129.828125 C 207.390625 130.65625 207.03125 131.488281 206.699219 132.335938 C 206.363281 133.183594 206.050781 134.039062 205.765625 134.902344 C 205.480469 135.765625 205.222656 136.636719 204.988281 137.515625 C 204.753906 138.394531 204.546875 139.28125 204.367188 140.171875 C 204.183594 141.066406 204.03125 141.960938 203.902344 142.863281 C 203.773438 143.761719 203.667969 144.667969 203.59375 145.574219 C 203.519531 146.480469 203.46875 147.386719 203.445312 148.296875 C 203.425781 149.207031 203.429688 150.117188 203.460938 151.027344 C 203.574219 153.28125 203.851562 155.519531 204.292969 157.734375 C 204.734375 159.949219 205.335938 162.121094 206.097656 164.246094 C 206.863281 166.375 207.777344 168.433594 208.839844 170.425781 C 209.90625 172.417969 211.113281 174.324219 212.457031 176.136719 C 213.804688 177.953125 215.277344 179.660156 216.875 181.261719 C 218.472656 182.859375 220.175781 184.332031 221.992188 185.679688 C 223.808594 187.027344 225.710938 188.238281 227.703125 189.304688 C 229.695312 190.375 231.753906 191.292969 233.882812 192.058594 L 236.9375 193.21875 C 240.9375 194.757812 245.074219 195.710938 249.34375 196.078125 C 250.890625 196.203125 252.429688 196.40625 253.957031 196.679688 C 255.484375 196.957031 256.996094 197.304688 258.492188 197.726562 C 259.984375 198.148438 261.457031 198.640625 262.902344 199.203125 C 264.351562 199.765625 265.765625 200.398438 267.152344 201.097656 C 268.539062 201.796875 269.886719 202.558594 271.199219 203.390625 C 272.511719 204.21875 273.78125 205.109375 275.003906 206.0625 C 276.230469 207.015625 277.410156 208.023438 278.535156 209.089844 C 279.664062 210.15625 280.738281 211.273438 281.757812 212.441406 C 282.78125 213.609375 283.742188 214.828125 284.644531 216.089844 C 285.546875 217.351562 286.386719 218.652344 287.164062 219.996094 C 287.941406 221.339844 288.652344 222.714844 289.296875 224.128906 C 289.9375 225.539062 290.511719 226.976562 291.019531 228.445312 C 291.523438 229.910156 291.957031 231.398438 292.316406 232.90625 C 292.679688 234.417969 292.964844 235.9375 293.179688 237.476562 C 293.394531 239.011719 293.53125 240.554688 293.597656 242.105469 C 293.660156 243.652344 293.652344 245.203125 293.566406 246.75 C 293.480469 248.300781 293.324219 249.839844 293.089844 251.375 C 292.855469 252.90625 292.546875 254.425781 292.167969 255.929688 C 291.785156 257.433594 291.335938 258.917969 290.808594 260.375 C 290.285156 261.835938 289.695312 263.269531 289.03125 264.671875 C 288.371094 266.074219 287.640625 267.441406 286.847656 268.773438 C 286.050781 270.105469 285.195312 271.398438 284.277344 272.648438 C 283.355469 273.898438 282.378906 275.101562 281.34375 276.257812 C 280.308594 277.414062 279.21875 278.515625 278.078125 279.566406 C 276.9375 280.617188 275.746094 281.613281 274.507812 282.546875 C 273.269531 283.484375 271.988281 284.359375 270.667969 285.171875 C 269.34375 285.984375 267.984375 286.730469 266.589844 287.414062 C 265.195312 288.09375 263.773438 288.707031 262.316406 289.25 C 260.863281 289.796875 259.386719 290.269531 257.886719 290.671875 C 256.386719 291.070312 254.871094 291.402344 253.339844 291.65625 C 251.808594 291.914062 250.269531 292.09375 248.71875 292.199219 C 247.171875 292.308594 245.621094 292.339844 244.070312 292.296875 C 242.515625 292.253906 240.96875 292.136719 239.429688 291.945312 C 237.886719 291.753906 236.359375 291.488281 234.84375 291.152344 C 233.328125 290.8125 231.835938 290.402344 230.359375 289.917969 C 228.882812 289.433594 227.433594 288.882812 226.011719 288.257812 C 224.589844 287.636719 223.203125 286.945312 221.847656 286.191406 C 220.492188 285.433594 219.175781 284.613281 217.898438 283.730469 C 216.625 282.84375 215.394531 281.902344 214.207031 280.898438 C 213.023438 279.898438 211.890625 278.839844 210.804688 277.730469 C 209.722656 276.617188 208.695312 275.457031 207.726562 274.246094 C 206.753906 273.035156 205.84375 271.78125 204.996094 270.480469 C 204.148438 269.183594 203.363281 267.847656 202.640625 266.472656 C 201.921875 265.097656 201.269531 263.695312 200.683594 262.257812 C 200.101562 260.820312 199.585938 259.359375 199.144531 257.871094 C 198.699219 256.382812 198.328125 254.878906 198.03125 253.359375 C 197.734375 251.835938 197.511719 250.300781 197.359375 248.757812 C 197.210938 247.214844 197.136719 245.667969 197.136719 244.117188 L 197.136719 240.925781 C 194.410156 252.457031 192.433594 264.109375 191.203125 275.894531 C 194.164062 280.9375 197.753906 285.480469 201.980469 289.527344 C 204.867188 292.300781 207.988281 294.773438 211.351562 296.941406 C 214.714844 299.113281 218.257812 300.945312 221.972656 302.433594 C 225.6875 303.921875 229.511719 305.042969 233.445312 305.796875 C 237.378906 306.546875 241.347656 306.917969 245.351562 306.90625 C 246.347656 306.90625 247.34375 306.882812 248.347656 306.839844 C 250.320312 306.746094 252.28125 306.558594 254.234375 306.28125 C 256.191406 306.003906 258.128906 305.636719 260.046875 305.175781 C 261.964844 304.714844 263.859375 304.167969 265.726562 303.53125 C 267.597656 302.890625 269.429688 302.167969 271.230469 301.355469 C 273.027344 300.546875 274.785156 299.652344 276.5 298.675781 C 278.214844 297.699219 279.882812 296.644531 281.496094 295.511719 C 283.113281 294.378906 284.671875 293.171875 286.175781 291.894531 C 287.675781 290.613281 289.113281 289.265625 290.488281 287.851562 C 291.863281 286.4375 293.171875 284.960938 294.40625 283.421875 C 295.640625 281.882812 296.800781 280.292969 297.886719 278.644531 C 298.972656 276.996094 299.980469 275.304688 300.90625 273.5625 C 301.832031 271.820312 302.671875 270.039062 303.429688 268.21875 C 304.1875 266.394531 304.859375 264.542969 305.441406 262.660156 C 306.023438 260.777344 306.515625 258.867188 306.921875 256.9375 C 307.324219 255.007812 307.632812 253.0625 307.855469 251.101562 C 308.074219 249.144531 308.199219 247.175781 308.234375 245.207031 C 308.269531 243.234375 308.210938 241.265625 308.058594 239.300781 C 307.90625 237.332031 307.664062 235.378906 307.328125 233.433594 C 306.992188 231.492188 306.566406 229.566406 306.050781 227.664062 C 305.53125 225.761719 304.925781 223.886719 304.234375 222.042969 C 303.539062 220.195312 302.757812 218.386719 301.894531 216.613281 C 301.03125 214.839844 300.085938 213.113281 299.054688 211.429688 C 298.027344 209.746094 296.925781 208.113281 295.742188 206.53125 C 294.5625 204.953125 293.308594 203.433594 291.984375 201.96875 C 290.660156 200.507812 289.265625 199.113281 287.8125 197.78125 C 286.355469 196.449219 284.839844 195.191406 283.261719 194.003906 C 281.6875 192.8125 280.058594 191.703125 278.378906 190.667969 C 276.699219 189.632812 274.972656 188.679688 273.203125 187.804688 C 271.433594 186.933594 269.625 186.144531 267.78125 185.441406 C 265.9375 184.742188 264.0625 184.125 262.160156 183.597656 C 260.257812 183.074219 258.335938 182.636719 256.390625 182.292969 C 254.449219 181.945312 252.492188 181.695312 250.523438 181.53125 Z M 250.523438 181.53125 " fill-opacity="1" fill-rule="nonzero"/></g><g clip-path="url(#3e287b3441)"><g clip-path="url(#455d9e84ee)"><g clip-path="url(#85cebc4f0b)"><path fill="#ffffff" d="M 206.648438 370.554688 C 200.621094 356.671875 196.582031 343.191406 194.511719 330.117188 C 192.457031 317.039062 191.949219 303.832031 193 290.5 C 194.050781 277.164062 196.449219 263.488281 200.183594 249.488281 C 203.917969 235.488281 208.597656 220.5 214.214844 204.542969 C 218.53125 192.1875 222.609375 180.390625 226.457031 169.164062 C 230.304688 157.933594 233.457031 147.625 235.917969 138.242188 L 236.007812 137.902344 C 237.296875 132.992188 238.304688 128.597656 239.023438 124.722656 C 239.738281 120.851562 240.214844 117.335938 240.449219 114.167969 C 240.949219 107.261719 240.210938 102.347656 238.226562 99.4375 C 237.894531 98.867188 237.980469 98.539062 238.488281 98.433594 C 238.800781 98.15625 239.152344 98.1875 239.535156 98.527344 C 241.542969 101.804688 242.394531 106.621094 242.09375 112.992188 C 241.792969 119.363281 240.261719 127.800781 237.507812 138.296875 L 237.417969 138.632812 C 234.953125 148.015625 231.746094 158.3125 227.789062 169.511719 C 223.835938 180.714844 219.757812 192.507812 215.546875 204.894531 C 209.515625 222.421875 204.746094 238.539062 201.238281 253.261719 C 197.734375 267.980469 195.597656 281.929688 194.824219 295.097656 C 194.054688 308.265625 194.726562 320.957031 196.835938 333.152344 C 198.945312 345.34375 202.546875 357.664062 207.640625 370.105469 " fill-opacity="1" fill-rule="nonzero"/></g></g></g><g clip-path="url(#c4283c3c86)"><g clip-path="url(#2eb8bd1d72)"><g clip-path="url(#226cde3bc5)"><path fill="#ffffff" d="M 209.089844 387.171875 C 203.066406 373.289062 199.023438 359.808594 196.957031 346.734375 C 194.898438 333.652344 194.390625 320.449219 195.441406 307.113281 C 196.492188 293.78125 198.890625 280.105469 202.625 266.105469 C 206.359375 252.101562 211.039062 237.117188 216.65625 221.160156 C 220.972656 208.804688 225.054688 197.007812 228.898438 185.777344 C 232.746094 174.546875 235.898438 164.238281 238.363281 154.855469 L 238.449219 154.519531 C 239.738281 149.609375 240.746094 145.210938 241.464844 141.339844 C 242.179688 137.46875 242.65625 133.953125 242.890625 130.785156 C 243.394531 123.875 242.652344 118.960938 240.667969 116.050781 C 240.335938 115.484375 240.421875 115.15625 240.929688 115.050781 C 241.242188 114.773438 241.59375 114.804688 241.976562 115.144531 C 243.984375 118.421875 244.835938 123.234375 244.535156 129.605469 C 244.234375 135.976562 242.703125 144.414062 239.949219 154.914062 L 239.859375 155.25 C 237.398438 164.632812 234.191406 174.925781 230.230469 186.128906 C 226.277344 197.332031 222.199219 209.125 217.988281 221.511719 C 211.957031 239.035156 207.1875 255.15625 203.683594 269.875 C 200.175781 284.597656 198.039062 298.546875 197.265625 311.714844 C 196.5 324.882812 197.167969 337.574219 199.277344 349.765625 C 201.386719 361.960938 204.988281 374.28125 210.082031 386.71875 " fill-opacity="1" fill-rule="nonzero"/></g></g></g><g clip-path="url(#a1a61bb9a4)"><g clip-path="url(#cf04813aa2)"><g clip-path="url(#fd6fa17d7b)"><path fill="#ffffff" d="M 215.324219 387.171875 C 209.296875 373.289062 205.253906 359.808594 203.1875 346.734375 C 201.128906 333.652344 200.621094 320.449219 201.671875 307.113281 C 202.722656 293.78125 205.121094 280.105469 208.855469 266.105469 C 212.589844 252.101562 217.269531 237.117188 222.886719 221.160156 C 227.203125 208.804688 231.285156 197.007812 235.132812 185.777344 C 238.976562 174.546875 242.128906 164.238281 244.59375 154.855469 L 244.679688 154.519531 C 245.96875 149.609375 246.976562 145.210938 247.695312 141.339844 C 248.410156 137.46875 248.890625 133.953125 249.121094 130.785156 C 249.625 123.875 248.882812 118.960938 246.898438 116.050781 C 246.566406 115.484375 246.652344 115.15625 247.160156 115.050781 C 247.472656 114.773438 247.824219 114.804688 248.207031 115.144531 C 250.214844 118.421875 251.066406 123.234375 250.765625 129.605469 C 250.464844 135.976562 248.933594 144.414062 246.179688 154.914062 L 246.089844 155.25 C 243.628906 164.632812 240.421875 174.925781 236.460938 186.128906 C 232.511719 197.332031 228.429688 209.125 224.21875 221.511719 C 218.1875 239.035156 213.417969 255.15625 209.914062 269.875 C 206.410156 284.597656 204.273438 298.546875 203.496094 311.714844 C 202.730469 324.882812 203.398438 337.574219 205.507812 349.765625 C 207.617188 361.960938 211.21875 374.28125 216.3125 386.71875 " fill-opacity="1" fill-rule="nonzero"/></g></g></g><g clip-path="url(#382ca0fada)"><g clip-path="url(#2d19308010)"><g clip-path="url(#e0dde3f13e)"><path fill="#ffffff" d="M 221.554688 387.171875 C 215.527344 373.289062 211.484375 359.808594 209.417969 346.734375 C 207.359375 333.652344 206.851562 320.449219 207.902344 307.113281 C 208.953125 293.78125 211.351562 280.105469 215.085938 266.105469 C 218.820312 252.101562 223.5 237.117188 229.121094 221.160156 C 233.433594 208.804688 237.515625 197.007812 241.363281 185.777344 C 245.210938 174.546875 248.359375 164.238281 250.824219 154.855469 L 250.910156 154.519531 C 252.203125 149.609375 253.210938 145.210938 253.925781 141.339844 C 254.640625 137.46875 255.121094 133.953125 255.351562 130.785156 C 255.855469 123.875 255.113281 118.960938 253.128906 116.050781 C 252.796875 115.484375 252.882812 115.15625 253.390625 115.050781 C 253.703125 114.773438 254.054688 114.804688 254.4375 115.144531 C 256.445312 118.421875 257.300781 123.234375 256.996094 129.605469 C 256.695312 135.976562 255.164062 144.414062 252.410156 154.914062 L 252.320312 155.25 C 249.859375 164.632812 246.652344 174.925781 242.691406 186.128906 C 238.742188 197.332031 234.660156 209.125 230.449219 221.511719 C 224.417969 239.035156 219.648438 255.15625 216.144531 269.875 C 212.640625 284.597656 210.503906 298.546875 209.726562 311.714844 C 208.960938 324.882812 209.628906 337.574219 211.738281 349.765625 C 213.847656 361.960938 217.449219 374.28125 222.546875 386.71875 " fill-opacity="1" fill-rule="nonzero"/></g></g></g><g clip-path="url(#450df23aeb)"><g clip-path="url(#1e435d5f0d)"><g clip-path="url(#42c247e72a)"><path fill="#ffffff" d="M 224.683594 403.785156 C 218.65625 389.90625 214.613281 376.421875 212.546875 363.347656 C 210.488281 350.269531 209.980469 337.066406 211.03125 323.730469 C 212.082031 310.394531 214.480469 296.722656 218.214844 282.71875 C 221.949219 268.71875 226.628906 253.734375 232.246094 237.777344 C 236.5625 225.417969 240.644531 213.625 244.492188 202.394531 C 248.335938 191.164062 251.488281 180.855469 253.953125 171.472656 L 254.039062 171.136719 C 255.328125 166.222656 256.335938 161.828125 257.054688 157.957031 C 257.769531 154.085938 258.25 150.570312 258.480469 147.402344 C 258.984375 140.492188 258.242188 135.578125 256.257812 132.667969 C 255.925781 132.101562 256.011719 131.773438 256.519531 131.667969 C 256.832031 131.386719 257.183594 131.421875 257.566406 131.761719 C 259.574219 135.039062 260.425781 139.851562 260.125 146.222656 C 259.824219 152.59375 258.292969 161.03125 255.539062 171.527344 L 255.449219 171.867188 C 252.988281 181.25 249.78125 191.542969 245.820312 202.742188 C 241.871094 213.945312 237.789062 225.742188 233.578125 238.125 C 227.546875 255.652344 222.777344 271.769531 219.273438 286.492188 C 215.769531 301.214844 213.632812 315.160156 212.855469 328.328125 C 212.089844 341.5 212.757812 354.1875 214.867188 366.382812 C 216.976562 378.578125 220.578125 390.898438 225.671875 403.335938 " fill-opacity="1" fill-rule="nonzero"/></g></g></g><g clip-path="url(#db23c904db)"><g clip-path="url(#ff4d28005c)"><path fill="#ffffff" d="M 229.339844 128.546875 L 274.054688 128.546875 L 274.054688 173.257812 L 229.339844 173.257812 Z M 229.339844 128.546875 " fill-opacity="1" fill-rule="nonzero"/></g></g><g clip-path="url(#dfb0bb6a62)"><g clip-path="url(#53960b9a03)"><g clip-path="url(#e65a458482)"><path fill="#000000" d="M 250.660156 125.171875 L 251.0625 147 L 231.992188 147.355469 L 231.585938 125.523438 Z M 250.660156 125.171875 " fill-opacity="1" fill-rule="nonzero"/></g></g></g><g clip-path="url(#898bc852c5)"><g clip-path="url(#cb19c26c73)"><path fill="#000000" d="M 247.933594 147.3125 L 247.933594 125.480469 L 267.007812 125.480469 L 267.007812 147.3125 Z M 247.933594 147.3125 " fill-opacity="1" fill-rule="nonzero"/></g></g><g clip-path="url(#ca26f02e38)"><g clip-path="url(#482b3e0f59)"><path fill="#000000" d="M 247.171875 145.6875 L 252.558594 145.6875 L 252.558594 150.476562 L 247.171875 150.476562 Z M 247.171875 145.6875 " fill-opacity="1" fill-rule="nonzero"/></g></g><g clip-path="url(#790d580331)"><g clip-path="url(#28f2171b4a)"><path fill="#000000" d="M 245.59375 132.710938 L 253.011719 132.710938 L 253.011719 140.125 L 245.59375 140.125 Z M 245.59375 132.710938 " fill-opacity="1" fill-rule="nonzero"/></g></g><g clip-path="url(#b1839614f1)"><g clip-path="url(#e61e4a03ef)"><path fill="#000000" d="M 247.628906 154.457031 L 253.015625 154.457031 L 253.015625 159.246094 L 247.628906 159.246094 Z M 247.628906 154.457031 " fill-opacity="1" fill-rule="nonzero"/></g></g><g fill="#000000" fill-opacity="1"><g transform="translate(113.380221, 197.116251)"><g><path d="M 7.015625 0.1875 C 5.347656 0.1875 4.082031 -0.234375 3.21875 -1.078125 C 2.363281 -1.921875 1.9375 -3.175781 1.9375 -4.84375 L 1.9375 -13.59375 L 3.53125 -13.59375 L 3.53125 -4.859375 C 3.53125 -3.660156 3.816406 -2.765625 4.390625 -2.171875 C 4.960938 -1.578125 5.835938 -1.28125 7.015625 -1.28125 C 9.328125 -1.28125 10.484375 -2.472656 10.484375 -4.859375 L 10.484375 -13.59375 L 12.078125 -13.59375 L 12.078125 -4.84375 C 12.078125 -3.175781 11.648438 -1.921875 10.796875 -1.078125 C 9.941406 -0.234375 8.679688 0.1875 7.015625 0.1875 Z M 7.015625 0.1875 "/></g></g></g><g fill="#000000" fill-opacity="1"><g transform="translate(127.399924, 197.116251)"><g><path d="M 2.0625 0 L 2.0625 -13.59375 L 7.203125 -13.59375 C 8.046875 -13.59375 8.757812 -13.457031 9.34375 -13.1875 C 9.925781 -12.925781 10.363281 -12.546875 10.65625 -12.046875 C 10.945312 -11.554688 11.09375 -10.972656 11.09375 -10.296875 C 11.09375 -9.703125 10.929688 -9.164062 10.609375 -8.6875 C 10.296875 -8.21875 9.84375 -7.847656 9.25 -7.578125 L 9.25 -7.390625 C 10.15625 -7.160156 10.835938 -6.75 11.296875 -6.15625 C 11.765625 -5.570312 12 -4.832031 12 -3.9375 C 12 -2.675781 11.628906 -1.703125 10.890625 -1.015625 C 10.148438 -0.335938 9.050781 0 7.59375 0 Z M 7.140625 -7.890625 C 7.890625 -7.890625 8.46875 -8.082031 8.875 -8.46875 C 9.289062 -8.863281 9.5 -9.40625 9.5 -10.09375 C 9.5 -10.820312 9.300781 -11.367188 8.90625 -11.734375 C 8.507812 -12.097656 7.921875 -12.28125 7.140625 -12.28125 L 3.65625 -12.28125 L 3.65625 -7.890625 Z M 7.484375 -1.328125 C 9.410156 -1.328125 10.375 -2.195312 10.375 -3.9375 C 10.375 -5.6875 9.410156 -6.5625 7.484375 -6.5625 L 3.65625 -6.5625 L 3.65625 -1.328125 Z M 7.484375 -1.328125 "/></g></g></g><g fill="#000000" fill-opacity="1"><g transform="translate(140.489321, 197.116251)"><g><path d="M 3.65625 -6.40625 L 3.65625 -1.328125 L 10.578125 -1.328125 L 10.578125 0 L 2.0625 0 L 2.0625 -13.59375 L 10.4375 -13.59375 L 10.4375 -12.28125 L 3.65625 -12.28125 L 3.65625 -7.734375 L 9.640625 -7.734375 L 9.640625 -6.40625 Z M 3.65625 -6.40625 "/></g></g></g><g fill="#000000" fill-opacity="1"><g transform="translate(151.978593, 197.116251)"><g><path d="M 7.515625 0.1875 C 6.328125 0.1875 5.265625 -0.0820312 4.328125 -0.625 C 3.398438 -1.164062 2.671875 -1.960938 2.140625 -3.015625 C 1.617188 -4.066406 1.359375 -5.328125 1.359375 -6.796875 C 1.359375 -8.265625 1.617188 -9.523438 2.140625 -10.578125 C 2.671875 -11.628906 3.398438 -12.425781 4.328125 -12.96875 C 5.265625 -13.519531 6.328125 -13.796875 7.515625 -13.796875 C 8.785156 -13.796875 9.84375 -13.550781 10.6875 -13.0625 C 11.53125 -12.582031 12.140625 -11.863281 12.515625 -10.90625 L 11.484375 -10.21875 L 11.25 -10.21875 C 10.875 -11 10.390625 -11.550781 9.796875 -11.875 C 9.203125 -12.195312 8.441406 -12.359375 7.515625 -12.359375 C 6.660156 -12.359375 5.898438 -12.164062 5.234375 -11.78125 C 4.566406 -11.40625 4.035156 -10.800781 3.640625 -9.96875 C 3.253906 -9.144531 3.0625 -8.085938 3.0625 -6.796875 C 3.0625 -5.503906 3.253906 -4.445312 3.640625 -3.625 C 4.035156 -2.800781 4.566406 -2.195312 5.234375 -1.8125 C 5.898438 -1.4375 6.660156 -1.25 7.515625 -1.25 C 8.503906 -1.25 9.3125 -1.46875 9.9375 -1.90625 C 10.5625 -2.351562 11.023438 -3.070312 11.328125 -4.0625 L 11.5625 -4.0625 L 12.625 -3.53125 C 12.300781 -2.332031 11.703125 -1.410156 10.828125 -0.765625 C 9.960938 -0.128906 8.859375 0.1875 7.515625 0.1875 Z M 7.515625 0.1875 "/></g></g></g><g fill="#000000" fill-opacity="1"><g transform="translate(77.214278, 220.435468)"><g><path d="M 7.515625 0.1875 C 6.328125 0.1875 5.265625 -0.0820312 4.328125 -0.625 C 3.398438 -1.164062 2.671875 -1.960938 2.140625 -3.015625 C 1.617188 -4.066406 1.359375 -5.328125 1.359375 -6.796875 C 1.359375 -8.265625 1.617188 -9.523438 2.140625 -10.578125 C 2.671875 -11.628906 3.398438 -12.425781 4.328125 -12.96875 C 5.265625 -13.519531 6.328125 -13.796875 7.515625 -13.796875 C 8.785156 -13.796875 9.84375 -13.550781 10.6875 -13.0625 C 11.53125 -12.582031 12.140625 -11.863281 12.515625 -10.90625 L 11.484375 -10.21875 L 11.25 -10.21875 C 10.875 -11 10.390625 -11.550781 9.796875 -11.875 C 9.203125 -12.195312 8.441406 -12.359375 7.515625 -12.359375 C 6.660156 -12.359375 5.898438 -12.164062 5.234375 -11.78125 C 4.566406 -11.40625 4.035156 -10.800781 3.640625 -9.96875 C 3.253906 -9.144531 3.0625 -8.085938 3.0625 -6.796875 C 3.0625 -5.503906 3.253906 -4.445312 3.640625 -3.625 C 4.035156 -2.800781 4.566406 -2.195312 5.234375 -1.8125 C 5.898438 -1.4375 6.660156 -1.25 7.515625 -1.25 C 8.503906 -1.25 9.3125 -1.46875 9.9375 -1.90625 C 10.5625 -2.351562 11.023438 -3.070312 11.328125 -4.0625 L 11.5625 -4.0625 L 12.625 -3.53125 C 12.300781 -2.332031 11.703125 -1.410156 10.828125 -0.765625 C 9.960938 -0.128906 8.859375 0.1875 7.515625 0.1875 Z M 7.515625 0.1875 "/></g></g></g><g fill="#000000" fill-opacity="1"><g transform="translate(90.554852, 220.435468)"><g><path d="M 10.71875 -8.078125 L 10.71875 -13.59375 L 12.3125 -13.59375 L 12.3125 0 L 10.71875 0 L 10.71875 -6.71875 L 3.65625 -6.71875 L 3.65625 0 L 2.0625 0 L 2.0625 -13.59375 L 3.65625 -13.59375 L 3.65625 -8.078125 Z M 10.71875 -8.078125 "/></g></g></g><g fill="#000000" fill-opacity="1"><g transform="translate(104.937367, 220.435468)"><g><path d="M 12.234375 0 L 10.53125 0 L 9.265625 -3.734375 L 3.484375 -3.734375 L 2.21875 0 L 0.546875 0 L 5.28125 -13.59375 L 7.5 -13.59375 Z M 6.265625 -11.953125 L 3.921875 -5.0625 L 8.8125 -5.0625 L 6.484375 -11.953125 Z M 6.265625 -11.953125 "/></g></g></g><g fill="#000000" fill-opacity="1"><g transform="translate(117.719758, 220.435468)"><g><path d="M 6.921875 -13.59375 C 7.859375 -13.59375 8.660156 -13.425781 9.328125 -13.09375 C 9.992188 -12.757812 10.503906 -12.28125 10.859375 -11.65625 C 11.210938 -11.03125 11.390625 -10.296875 11.390625 -9.453125 C 11.390625 -8.609375 11.210938 -7.875 10.859375 -7.25 C 10.503906 -6.632812 9.992188 -6.15625 9.328125 -5.8125 C 8.660156 -5.476562 7.859375 -5.3125 6.921875 -5.3125 L 3.65625 -5.3125 L 3.65625 0 L 2.0625 0 L 2.0625 -13.59375 Z M 6.875 -6.6875 C 8.757812 -6.6875 9.703125 -7.609375 9.703125 -9.453125 C 9.703125 -11.304688 8.757812 -12.234375 6.875 -12.234375 L 3.65625 -12.234375 L 3.65625 -6.6875 Z M 6.875 -6.6875 "/></g></g></g><g fill="#000000" fill-opacity="1"><g transform="translate(130.120729, 220.435468)"><g><path d="M 10.609375 -13.59375 L 10.609375 -12.234375 L 6.359375 -12.234375 L 6.359375 0 L 4.765625 0 L 4.765625 -12.234375 L 0.5 -12.234375 L 0.5 -13.59375 Z M 10.609375 -13.59375 "/></g></g></g><g fill="#000000" fill-opacity="1"><g transform="translate(141.228571, 220.435468)"><g><path d="M 3.65625 -6.40625 L 3.65625 -1.328125 L 10.578125 -1.328125 L 10.578125 0 L 2.0625 0 L 2.0625 -13.59375 L 10.4375 -13.59375 L 10.4375 -12.28125 L 3.65625 -12.28125 L 3.65625 -7.734375 L 9.640625 -7.734375 L 9.640625 -6.40625 Z M 3.65625 -6.40625 "/></g></g></g><g fill="#000000" fill-opacity="1"><g transform="translate(152.717844, 220.435468)"><g><path d="M 2.0625 0 L 2.0625 -13.59375 L 7 -13.59375 C 7.90625 -13.59375 8.664062 -13.441406 9.28125 -13.140625 C 9.90625 -12.835938 10.375 -12.410156 10.6875 -11.859375 C 11 -11.316406 11.15625 -10.671875 11.15625 -9.921875 C 11.15625 -9.078125 10.941406 -8.378906 10.515625 -7.828125 C 10.097656 -7.285156 9.441406 -6.878906 8.546875 -6.609375 L 8.546875 -6.40625 C 8.984375 -6.226562 9.34375 -5.953125 9.625 -5.578125 C 9.90625 -5.210938 10.160156 -4.660156 10.390625 -3.921875 L 11.65625 0 L 10 0 L 8.65625 -4.15625 C 8.488281 -4.644531 8.300781 -5.03125 8.09375 -5.3125 C 7.882812 -5.59375 7.617188 -5.789062 7.296875 -5.90625 C 6.972656 -6.03125 6.5625 -6.09375 6.0625 -6.09375 L 3.65625 -6.09375 L 3.65625 0 Z M 6.953125 -7.453125 C 7.804688 -7.453125 8.441406 -7.648438 8.859375 -8.046875 C 9.273438 -8.441406 9.484375 -9.039062 9.484375 -9.84375 C 9.484375 -10.65625 9.273438 -11.253906 8.859375 -11.640625 C 8.441406 -12.035156 7.804688 -12.234375 6.953125 -12.234375 L 3.65625 -12.234375 L 3.65625 -7.453125 Z M 6.953125 -7.453125 "/></g></g></g><g fill="#000000" fill-opacity="1"><g transform="translate(80.082166, 243.754685)"><g><path d="M 12.234375 0 L 10.53125 0 L 9.265625 -3.734375 L 3.484375 -3.734375 L 2.21875 0 L 0.546875 0 L 5.28125 -13.59375 L 7.5 -13.59375 Z M 6.265625 -11.953125 L 3.921875 -5.0625 L 8.8125 -5.0625 L 6.484375 -11.953125 Z M 6.265625 -11.953125 "/></g></g></g><g fill="#000000" fill-opacity="1"><g transform="translate(92.864556, 243.754685)"><g><path d="M 6.921875 -13.59375 C 7.859375 -13.59375 8.660156 -13.425781 9.328125 -13.09375 C 9.992188 -12.757812 10.503906 -12.28125 10.859375 -11.65625 C 11.210938 -11.03125 11.390625 -10.296875 11.390625 -9.453125 C 11.390625 -8.609375 11.210938 -7.875 10.859375 -7.25 C 10.503906 -6.632812 9.992188 -6.15625 9.328125 -5.8125 C 8.660156 -5.476562 7.859375 -5.3125 6.921875 -5.3125 L 3.65625 -5.3125 L 3.65625 0 L 2.0625 0 L 2.0625 -13.59375 Z M 6.875 -6.6875 C 8.757812 -6.6875 9.703125 -7.609375 9.703125 -9.453125 C 9.703125 -11.304688 8.757812 -12.234375 6.875 -12.234375 L 3.65625 -12.234375 L 3.65625 -6.6875 Z M 6.875 -6.6875 "/></g></g></g><g fill="#000000" fill-opacity="1"><g transform="translate(105.265528, 243.754685)"><g><path d="M 6.921875 -13.59375 C 7.859375 -13.59375 8.660156 -13.425781 9.328125 -13.09375 C 9.992188 -12.757812 10.503906 -12.28125 10.859375 -11.65625 C 11.210938 -11.03125 11.390625 -10.296875 11.390625 -9.453125 C 11.390625 -8.609375 11.210938 -7.875 10.859375 -7.25 C 10.503906 -6.632812 9.992188 -6.15625 9.328125 -5.8125 C 8.660156 -5.476562 7.859375 -5.3125 6.921875 -5.3125 L 3.65625 -5.3125 L 3.65625 0 L 2.0625 0 L 2.0625 -13.59375 Z M 6.875 -6.6875 C 8.757812 -6.6875 9.703125 -7.609375 9.703125 -9.453125 C 9.703125 -11.304688 8.757812 -12.234375 6.875 -12.234375 L 3.65625 -12.234375 L 3.65625 -6.6875 Z M 6.875 -6.6875 "/></g></g></g><g fill="#000000" fill-opacity="1"><g transform="translate(117.6665, 243.754685)"><g><path d="M 12.234375 0 L 10.53125 0 L 9.265625 -3.734375 L 3.484375 -3.734375 L 2.21875 0 L 0.546875 0 L 5.28125 -13.59375 L 7.5 -13.59375 Z M 6.265625 -11.953125 L 3.921875 -5.0625 L 8.8125 -5.0625 L 6.484375 -11.953125 Z M 6.265625 -11.953125 "/></g></g></g><g fill="#000000" fill-opacity="1"><g transform="translate(130.44889, 243.754685)"><g><path d="M 2.0625 0 L 2.0625 -13.59375 L 7 -13.59375 C 7.90625 -13.59375 8.664062 -13.441406 9.28125 -13.140625 C 9.90625 -12.835938 10.375 -12.410156 10.6875 -11.859375 C 11 -11.316406 11.15625 -10.671875 11.15625 -9.921875 C 11.15625 -9.078125 10.941406 -8.378906 10.515625 -7.828125 C 10.097656 -7.285156 9.441406 -6.878906 8.546875 -6.609375 L 8.546875 -6.40625 C 8.984375 -6.226562 9.34375 -5.953125 9.625 -5.578125 C 9.90625 -5.210938 10.160156 -4.660156 10.390625 -3.921875 L 11.65625 0 L 10 0 L 8.65625 -4.15625 C 8.488281 -4.644531 8.300781 -5.03125 8.09375 -5.3125 C 7.882812 -5.59375 7.617188 -5.789062 7.296875 -5.90625 C 6.972656 -6.03125 6.5625 -6.09375 6.0625 -6.09375 L 3.65625 -6.09375 L 3.65625 0 Z M 6.953125 -7.453125 C 7.804688 -7.453125 8.441406 -7.648438 8.859375 -8.046875 C 9.273438 -8.441406 9.484375 -9.039062 9.484375 -9.84375 C 9.484375 -10.65625 9.273438 -11.253906 8.859375 -11.640625 C 8.441406 -12.035156 7.804688 -12.234375 6.953125 -12.234375 L 3.65625 -12.234375 L 3.65625 -7.453125 Z M 6.953125 -7.453125 "/></g></g></g><g fill="#000000" fill-opacity="1"><g transform="translate(143.04522, 243.754685)"><g><path d="M 3.65625 -6.40625 L 3.65625 -1.328125 L 10.578125 -1.328125 L 10.578125 0 L 2.0625 0 L 2.0625 -13.59375 L 10.4375 -13.59375 L 10.4375 -12.28125 L 3.65625 -12.28125 L 3.65625 -7.734375 L 9.640625 -7.734375 L 9.640625 -6.40625 Z M 3.65625 -6.40625 "/></g></g></g><g fill="#000000" fill-opacity="1"><g transform="translate(154.534493, 243.754685)"><g><path d="M 3.65625 -13.59375 L 3.65625 -1.328125 L 10.203125 -1.328125 L 10.203125 0 L 2.0625 0 L 2.0625 -13.59375 Z M 3.65625 -13.59375 "/></g></g></g><g fill="#000000" fill-opacity="1"><g transform="translate(165.319547, 243.754685)"><g/></g></g></svg>