<svg xmlns="http://www.w3.org/2000/svg" xmlns:xlink="http://www.w3.org/1999/xlink" width="1920" zoomAndPan="magnify" viewBox="0 0 1440 809.999993" height="1080" preserveAspectRatio="xMidYMid meet" version="1.0"><defs><clipPath id="b438b6f350"><path d="M 0 260.953125 L 1440 260.953125 L 1440 810 L 0 810 Z M 0 260.953125 " clip-rule="nonzero"/></clipPath><clipPath id="d1cce77b6d"><path d="M -284.484375 736.273438 L 1456.621094 260.953125 L 1456.621094 1211.589844 Z M -284.484375 736.273438 " clip-rule="nonzero"/></clipPath><clipPath id="ab83ab35d9"><path d="M 0 483.058594 L 1009 483.058594 L 1009 810 L 0 810 Z M 0 483.058594 " clip-rule="nonzero"/></clipPath><clipPath id="a159578c95"><path d="M -732.316406 958.375 L 1008.789062 483.058594 L 1008.789062 1433.695312 Z M -732.316406 958.375 " clip-rule="nonzero"/></clipPath></defs><rect x="-144" width="1728" fill="#ffffff" y="-80.999999" height="971.999992" fill-opacity="1"/><rect x="-144" width="1728" fill="#f8f8f8" y="-80.999999" height="971.999992" fill-opacity="1"/><g clip-path="url(#b438b6f350)"><g clip-path="url(#d1cce77b6d)"><path fill="#c41d00" d="M -284.484375 1211.589844 L -284.484375 260.953125 L 1457.109375 260.953125 L 1457.109375 1211.589844 Z M -284.484375 1211.589844 " fill-opacity="1" fill-rule="nonzero"/></g></g><g clip-path="url(#ab83ab35d9)"><g clip-path="url(#a159578c95)"><path fill="#c41d00" d="M -732.316406 1433.695312 L -732.316406 483.058594 L 1009.277344 483.058594 L 1009.277344 1433.695312 Z M -732.316406 1433.695312 " fill-opacity="1" fill-rule="nonzero"/></g></g></svg>